M48
; DRILL file {KiCad 6.0.2+dfsg-1} date Mon 06 Nov 2023 03:43:35 PM PST
; FORMAT={-:-/ absolute / inch / decimal}
; #@! TF.CreationDate,2023-11-06T15:43:35-08:00
; #@! TF.GenerationSoftware,Kicad,Pcbnew,6.0.2+dfsg-1
; #@! TF.FileFunction,Plated,1,2,PTH
FMAT,2
INCH
; #@! TA.AperFunction,Plated,PTH,ViaDrill
T1C0.0157
; #@! TA.AperFunction,Plated,PTH,ComponentDrill
T2C0.0335
%
G90
G05
T1
X5.525Y-2.275
X5.525Y-2.325
X5.525Y-2.375
X5.62Y-2.405
X5.6226Y-2.6724
X5.66Y-2.375
X5.685Y-2.325
T2
X5.5356Y-2.8138
X5.5356Y-2.8925
X5.5356Y-2.9713
X5.5356Y-3.05
X5.5356Y-3.1287
X5.5356Y-3.2075
X5.5356Y-3.2862
X5.6144Y-2.8138
X5.6144Y-2.8925
X5.6144Y-2.9713
X5.6144Y-3.05
X5.6144Y-3.1287
X5.6144Y-3.2075
X5.6144Y-3.2862
T0
M30
