M48
; DRILL file {KiCad 6.0.11+dfsg-1} date Fri 24 Nov 2023 06:39:51 PM PST
; FORMAT={-:-/ absolute / inch / decimal}
; #@! TF.CreationDate,2023-11-24T18:39:51-08:00
; #@! TF.GenerationSoftware,Kicad,Pcbnew,6.0.11+dfsg-1
; #@! TF.FileFunction,Plated,1,2,PTH
FMAT,2
INCH
; #@! TA.AperFunction,Plated,PTH,ViaDrill
T1C0.0157
; #@! TA.AperFunction,Plated,PTH,ComponentDrill
T2C0.0335
%
G90
G05
T1
X5.45Y-3.285
X5.525Y-2.275
X5.525Y-2.325
X5.525Y-2.375
X5.54Y-2.74
X5.59Y-2.275
X5.59Y-2.325
X5.59Y-2.375
X5.61Y-2.425
X5.61Y-2.69
X5.61Y-2.74
X5.66Y-2.325
X5.66Y-2.375
X5.745Y-2.69
X5.745Y-2.815
X5.745Y-2.97
X5.745Y-3.13
X5.745Y-3.285
T2
X5.5356Y-2.8138
X5.5356Y-2.8925
X5.5356Y-2.9713
X5.5356Y-3.05
X5.5356Y-3.1287
X5.5356Y-3.2075
X5.5356Y-3.2862
X5.6144Y-2.8138
X5.6144Y-2.8925
X5.6144Y-2.9713
X5.6144Y-3.05
X5.6144Y-3.1287
X5.6144Y-3.2075
X5.6144Y-3.2862
T0
M30
