%TF.GenerationSoftware,KiCad,Pcbnew,6.0.11+dfsg-1*%
%TF.CreationDate,2023-11-24T18:39:45-08:00*%
%TF.ProjectId,xbox_tray_emulator,78626f78-5f74-4726-9179-5f656d756c61,rev?*%
%TF.SameCoordinates,Original*%
%TF.FileFunction,Copper,L2,Bot*%
%TF.FilePolarity,Positive*%
%FSLAX46Y46*%
G04 Gerber Fmt 4.6, Leading zero omitted, Abs format (unit mm)*
G04 Created by KiCad (PCBNEW 6.0.11+dfsg-1) date 2023-11-24 18:39:45*
%MOMM*%
%LPD*%
G01*
G04 APERTURE LIST*
G04 Aperture macros list*
%AMRoundRect*
0 Rectangle with rounded corners*
0 $1 Rounding radius*
0 $2 $3 $4 $5 $6 $7 $8 $9 X,Y pos of 4 corners*
0 Add a 4 corners polygon primitive as box body*
4,1,4,$2,$3,$4,$5,$6,$7,$8,$9,$2,$3,0*
0 Add four circle primitives for the rounded corners*
1,1,$1+$1,$2,$3*
1,1,$1+$1,$4,$5*
1,1,$1+$1,$6,$7*
1,1,$1+$1,$8,$9*
0 Add four rect primitives between the rounded corners*
20,1,$1+$1,$2,$3,$4,$5,0*
20,1,$1+$1,$4,$5,$6,$7,0*
20,1,$1+$1,$6,$7,$8,$9,0*
20,1,$1+$1,$8,$9,$2,$3,0*%
G04 Aperture macros list end*
%TA.AperFunction,ComponentPad*%
%ADD10RoundRect,0.250000X0.575000X-0.350000X0.575000X0.350000X-0.575000X0.350000X-0.575000X-0.350000X0*%
%TD*%
%TA.AperFunction,ComponentPad*%
%ADD11O,1.650000X1.200000*%
%TD*%
%TA.AperFunction,ViaPad*%
%ADD12C,0.800000*%
%TD*%
%TA.AperFunction,Conductor*%
%ADD13C,0.250000*%
%TD*%
G04 APERTURE END LIST*
D10*
%TO.P,J1,1,Pin_1*%
%TO.N,unconnected-(J1-Pad1)*%
X142605000Y-83470000D03*
D11*
%TO.P,J1,2,Pin_2*%
%TO.N,/Net-(J1-Pad10)*%
X140605000Y-83470000D03*
%TO.P,J1,3,Pin_3*%
%TO.N,Net-(C1-Pad2)*%
X142605000Y-81470000D03*
%TO.P,J1,4,Pin_4*%
%TO.N,Net-(J1-Pad4)*%
X140605000Y-81470000D03*
%TO.P,J1,5,Pin_5*%
%TO.N,Net-(J1-Pad5)*%
X142605000Y-79470000D03*
%TO.P,J1,6,Pin_6*%
%TO.N,Net-(J1-Pad6)*%
X140605000Y-79470000D03*
%TO.P,J1,7,Pin_7*%
%TO.N,Net-(J1-Pad7)*%
X142605000Y-77470000D03*
%TO.P,J1,8,Pin_8*%
%TO.N,Net-(J1-Pad8)*%
X140605000Y-77470000D03*
%TO.P,J1,9,Pin_9*%
%TO.N,unconnected-(J1-Pad9)*%
X142605000Y-75470000D03*
%TO.P,J1,10,Pin_10*%
%TO.N,/Net-(J1-Pad10)*%
X140605000Y-75470000D03*
%TO.P,J1,11,Pin_11*%
%TO.N,Net-(C1-Pad2)*%
X142605000Y-73470000D03*
%TO.P,J1,12,Pin_12*%
X140605000Y-73470000D03*
%TO.P,J1,13,Pin_13*%
%TO.N,unconnected-(J1-Pad13)*%
X142605000Y-71470000D03*
%TO.P,J1,14*%
%TO.N,N/C*%
X140605000Y-71470000D03*
%TD*%
D12*
%TO.N,Net-(C1-Pad2)*%
X145923000Y-71501000D03*
X145923000Y-75438000D03*
X145923000Y-79502000D03*
X145923000Y-83439000D03*
X138430000Y-83439000D03*
X142494000Y-61595000D03*
X141986000Y-60325000D03*
X141986000Y-59055000D03*
X141986000Y-57785000D03*
%TO.N,Net-(J1-Pad8)*%
X140335000Y-60325000D03*
%TO.N,Net-(J1-Pad6)*%
X140335000Y-59055000D03*
%TO.N,Net-(J1-Pad4)*%
X140335000Y-57785000D03*
%TO.N,Net-(J1-Pad5)*%
X143764000Y-59055000D03*
%TO.N,Net-(J1-Pad7)*%
X143764000Y-60325000D03*
%TO.N,Net-(C1-Pad2)*%
X142494000Y-68326000D03*
X142494000Y-69596000D03*
X140716000Y-69596000D03*
X145923000Y-68326000D03*
%TD*%
D13*
%TO.N,Net-(J1-Pad5)*%
X144488511Y-77713489D02*
X144488511Y-59779511D01*
X144488511Y-59779511D02*
X143764000Y-59055000D01*
X144488511Y-77713489D02*
X142605000Y-79597000D01*
%TO.N,Net-(J1-Pad6)*%
X139005960Y-77870960D02*
X140605000Y-79470000D01*
X139005960Y-60384040D02*
X139005960Y-77870960D01*
X140335000Y-59055000D02*
X139005960Y-60384040D01*
%TO.N,Net-(J1-Pad7)*%
X143764000Y-60325000D02*
X143770520Y-60331520D01*
X143770520Y-76431480D02*
X142605000Y-77597000D01*
X143770520Y-60331520D02*
X143770520Y-76431480D01*
%TO.N,Net-(J1-Pad8)*%
X140335000Y-60325000D02*
X139455480Y-61204520D01*
X139455480Y-61204520D02*
X139455480Y-76320480D01*
X139455480Y-76320480D02*
X140605000Y-77470000D01*
%TO.N,Net-(J1-Pad4)*%
X138556440Y-79421440D02*
X140605000Y-81470000D01*
X138556440Y-59563560D02*
X138556440Y-79421440D01*
X140335000Y-57785000D02*
X138556440Y-59563560D01*
%TD*%
%TA.AperFunction,Conductor*%
%TO.N,Net-(C1-Pad2)*%
G36*
X139439341Y-57297502D02*
G01*
X139485834Y-57351158D01*
X139495938Y-57421432D01*
X139491054Y-57442432D01*
X139441458Y-57595072D01*
X139440768Y-57601633D01*
X139440768Y-57601635D01*
X139424093Y-57760293D01*
X139397080Y-57825950D01*
X139387878Y-57836218D01*
X138719784Y-58504311D01*
X138164187Y-59059908D01*
X138155901Y-59067448D01*
X138149422Y-59071560D01*
X138143997Y-59077337D01*
X138102797Y-59121211D01*
X138100042Y-59124053D01*
X138080305Y-59143790D01*
X138077825Y-59146987D01*
X138070122Y-59156007D01*
X138039854Y-59188239D01*
X138036035Y-59195185D01*
X138036033Y-59195188D01*
X138030092Y-59205994D01*
X138019241Y-59222513D01*
X138006826Y-59238519D01*
X138003681Y-59245788D01*
X138003678Y-59245792D01*
X137989266Y-59279097D01*
X137984049Y-59289747D01*
X137962745Y-59328500D01*
X137960774Y-59336175D01*
X137960774Y-59336176D01*
X137957707Y-59348122D01*
X137951303Y-59366826D01*
X137943259Y-59385415D01*
X137942020Y-59393238D01*
X137942017Y-59393248D01*
X137936341Y-59429084D01*
X137933935Y-59440704D01*
X137924912Y-59475849D01*
X137922940Y-59483530D01*
X137922940Y-59503784D01*
X137921389Y-59523495D01*
X137918949Y-59538900D01*
X137916535Y-59543992D01*
X137919941Y-59561709D01*
X137921111Y-59574081D01*
X137922381Y-59587521D01*
X137922940Y-59599379D01*
X137922940Y-79342673D01*
X137922413Y-79353856D01*
X137920738Y-79361349D01*
X137920987Y-79369275D01*
X137920987Y-79369276D01*
X137922878Y-79429426D01*
X137922940Y-79433385D01*
X137922940Y-79461296D01*
X137923437Y-79465230D01*
X137923437Y-79465231D01*
X137923445Y-79465296D01*
X137924378Y-79477133D01*
X137925767Y-79521329D01*
X137928384Y-79530336D01*
X137931418Y-79540779D01*
X137935427Y-79560140D01*
X137937966Y-79580237D01*
X137940885Y-79587608D01*
X137940885Y-79587610D01*
X137954244Y-79621352D01*
X137958089Y-79632582D01*
X137970422Y-79675033D01*
X137974455Y-79681852D01*
X137974457Y-79681857D01*
X137980733Y-79692468D01*
X137989428Y-79710216D01*
X137996888Y-79729057D01*
X138001550Y-79735473D01*
X138001550Y-79735474D01*
X138022876Y-79764827D01*
X138029392Y-79774747D01*
X138051898Y-79812802D01*
X138066219Y-79827123D01*
X138079059Y-79842156D01*
X138090968Y-79858547D01*
X138097074Y-79863598D01*
X138125045Y-79886738D01*
X138133824Y-79894728D01*
X139280251Y-81041155D01*
X139314277Y-81103467D01*
X139310184Y-81171581D01*
X139300108Y-81200599D01*
X139300107Y-81200605D01*
X139298139Y-81206271D01*
X139267787Y-81415604D01*
X139277567Y-81626899D01*
X139327125Y-81832534D01*
X139329607Y-81837992D01*
X139329608Y-81837996D01*
X139373053Y-81933546D01*
X139414674Y-82025087D01*
X139537054Y-82197611D01*
X139689850Y-82343881D01*
X139694888Y-82347134D01*
X139722163Y-82364746D01*
X139768540Y-82418501D01*
X139778493Y-82488797D01*
X139748861Y-82553314D01*
X139731649Y-82569681D01*
X139612080Y-82663604D01*
X139608148Y-82668135D01*
X139608145Y-82668138D01*
X139502552Y-82789824D01*
X139473448Y-82823363D01*
X139470448Y-82828549D01*
X139470445Y-82828553D01*
X139395966Y-82957296D01*
X139367527Y-83006454D01*
X139298139Y-83206271D01*
X139267787Y-83415604D01*
X139277567Y-83626899D01*
X139327125Y-83832534D01*
X139329607Y-83837992D01*
X139329608Y-83837996D01*
X139381916Y-83953041D01*
X139414674Y-84025087D01*
X139537054Y-84197611D01*
X139689850Y-84343881D01*
X139867548Y-84458620D01*
X139873114Y-84460863D01*
X140058168Y-84535442D01*
X140058171Y-84535443D01*
X140063737Y-84537686D01*
X140271337Y-84578228D01*
X140276899Y-84578500D01*
X140882846Y-84578500D01*
X141040566Y-84563452D01*
X141243534Y-84503908D01*
X141400343Y-84423146D01*
X141426631Y-84409607D01*
X141496350Y-84396198D01*
X141556135Y-84420217D01*
X141556697Y-84419305D01*
X141561996Y-84422572D01*
X141561999Y-84422573D01*
X141654299Y-84479468D01*
X141700090Y-84507694D01*
X141707262Y-84512115D01*
X141777591Y-84535442D01*
X141868611Y-84565632D01*
X141868613Y-84565632D01*
X141875139Y-84567797D01*
X141881975Y-84568497D01*
X141881978Y-84568498D01*
X141925031Y-84572909D01*
X141979600Y-84578500D01*
X143230400Y-84578500D01*
X143233646Y-84578163D01*
X143233650Y-84578163D01*
X143329308Y-84568238D01*
X143329312Y-84568237D01*
X143336166Y-84567526D01*
X143342702Y-84565345D01*
X143342704Y-84565345D01*
X143474806Y-84521272D01*
X143503946Y-84511550D01*
X143654348Y-84418478D01*
X143779305Y-84293303D01*
X143783146Y-84287072D01*
X143868275Y-84148968D01*
X143868276Y-84148966D01*
X143872115Y-84142738D01*
X143927797Y-83974861D01*
X143938500Y-83870400D01*
X143938500Y-83069600D01*
X143938163Y-83066350D01*
X143928238Y-82970692D01*
X143928237Y-82970688D01*
X143927526Y-82963834D01*
X143871550Y-82796054D01*
X143778478Y-82645652D01*
X143653303Y-82520695D01*
X143589523Y-82481380D01*
X143508968Y-82431725D01*
X143508966Y-82431724D01*
X143502738Y-82427885D01*
X143342254Y-82374655D01*
X143341389Y-82374368D01*
X143341387Y-82374368D01*
X143334861Y-82372203D01*
X143328025Y-82371503D01*
X143328022Y-82371502D01*
X143284969Y-82367091D01*
X143230400Y-82361500D01*
X141979600Y-82361500D01*
X141976354Y-82361837D01*
X141976350Y-82361837D01*
X141880692Y-82371762D01*
X141880688Y-82371763D01*
X141873834Y-82372474D01*
X141867298Y-82374655D01*
X141867296Y-82374655D01*
X141805053Y-82395421D01*
X141734103Y-82398005D01*
X141673020Y-82361821D01*
X141641195Y-82298357D01*
X141648734Y-82227762D01*
X141670009Y-82193321D01*
X141736552Y-82116637D01*
X141739552Y-82111451D01*
X141739555Y-82111447D01*
X141839467Y-81938742D01*
X141842473Y-81933546D01*
X141911861Y-81733729D01*
X141942213Y-81524396D01*
X141932433Y-81313101D01*
X141882875Y-81107466D01*
X141878113Y-81096991D01*
X141797806Y-80920368D01*
X141795326Y-80914913D01*
X141672946Y-80742389D01*
X141520150Y-80596119D01*
X141514255Y-80592312D01*
X141487837Y-80575254D01*
X141441460Y-80521499D01*
X141431507Y-80451203D01*
X141461139Y-80386686D01*
X141478353Y-80370317D01*
X141521103Y-80336737D01*
X141523711Y-80334688D01*
X141589637Y-80308338D01*
X141659343Y-80321813D01*
X141680243Y-80336737D01*
X141680811Y-80336017D01*
X141685520Y-80339736D01*
X141689850Y-80343881D01*
X141867548Y-80458620D01*
X141873114Y-80460863D01*
X142058168Y-80535442D01*
X142058171Y-80535443D01*
X142063737Y-80537686D01*
X142271337Y-80578228D01*
X142276899Y-80578500D01*
X142882846Y-80578500D01*
X143040566Y-80563452D01*
X143243534Y-80503908D01*
X143327111Y-80460863D01*
X143426249Y-80409804D01*
X143426252Y-80409802D01*
X143431580Y-80407058D01*
X143597920Y-80276396D01*
X143601852Y-80271865D01*
X143601855Y-80271862D01*
X143732621Y-80121167D01*
X143736552Y-80116637D01*
X143739552Y-80111451D01*
X143739555Y-80111447D01*
X143839467Y-79938742D01*
X143842473Y-79933546D01*
X143911861Y-79733729D01*
X143928155Y-79621352D01*
X143941352Y-79530336D01*
X143941352Y-79530333D01*
X143942213Y-79524396D01*
X143932433Y-79313101D01*
X143920313Y-79262809D01*
X143923799Y-79191898D01*
X143953711Y-79144194D01*
X144880764Y-78217141D01*
X144889050Y-78209601D01*
X144895529Y-78205489D01*
X144942155Y-78155837D01*
X144944909Y-78152996D01*
X144964646Y-78133259D01*
X144967126Y-78130062D01*
X144974831Y-78121040D01*
X144999670Y-78094589D01*
X145005097Y-78088810D01*
X145008916Y-78081864D01*
X145008918Y-78081861D01*
X145014859Y-78071055D01*
X145025710Y-78054536D01*
X145033269Y-78044790D01*
X145038125Y-78038530D01*
X145041270Y-78031261D01*
X145041273Y-78031257D01*
X145055685Y-77997952D01*
X145060902Y-77987302D01*
X145082206Y-77948549D01*
X145087244Y-77928926D01*
X145093648Y-77910223D01*
X145098544Y-77898909D01*
X145098544Y-77898908D01*
X145101692Y-77891634D01*
X145102931Y-77883811D01*
X145102934Y-77883801D01*
X145108610Y-77847965D01*
X145111016Y-77836345D01*
X145120039Y-77801200D01*
X145120039Y-77801199D01*
X145122011Y-77793519D01*
X145122011Y-77773265D01*
X145123562Y-77753554D01*
X145125491Y-77741375D01*
X145126731Y-77733546D01*
X145122570Y-77689527D01*
X145122011Y-77677670D01*
X145122011Y-59858278D01*
X145122538Y-59847095D01*
X145124213Y-59839602D01*
X145122073Y-59771525D01*
X145122011Y-59767566D01*
X145122011Y-59739655D01*
X145121506Y-59735655D01*
X145120573Y-59723812D01*
X145120149Y-59710303D01*
X145119184Y-59679621D01*
X145113533Y-59660169D01*
X145109525Y-59640817D01*
X145107978Y-59628574D01*
X145106985Y-59620714D01*
X145104067Y-59613343D01*
X145090711Y-59579608D01*
X145086866Y-59568381D01*
X145086232Y-59566198D01*
X145074529Y-59525918D01*
X145070495Y-59519096D01*
X145070492Y-59519090D01*
X145064217Y-59508479D01*
X145055521Y-59490729D01*
X145050983Y-59479267D01*
X145050980Y-59479262D01*
X145048063Y-59471894D01*
X145035412Y-59454481D01*
X145022084Y-59436136D01*
X145015568Y-59426218D01*
X144997086Y-59394968D01*
X144993053Y-59388148D01*
X144978729Y-59373824D01*
X144965887Y-59358789D01*
X144965115Y-59357726D01*
X144953983Y-59342404D01*
X144919917Y-59314222D01*
X144911138Y-59306233D01*
X144711122Y-59106217D01*
X144677096Y-59043905D01*
X144674907Y-59030292D01*
X144658232Y-58871635D01*
X144658232Y-58871633D01*
X144657542Y-58865072D01*
X144598527Y-58683444D01*
X144503040Y-58518056D01*
X144375253Y-58376134D01*
X144220752Y-58263882D01*
X144214724Y-58261198D01*
X144214722Y-58261197D01*
X144052319Y-58188891D01*
X144052318Y-58188891D01*
X144046288Y-58186206D01*
X143933721Y-58162279D01*
X143865944Y-58147872D01*
X143865939Y-58147872D01*
X143859487Y-58146500D01*
X143668513Y-58146500D01*
X143662061Y-58147872D01*
X143662056Y-58147872D01*
X143594279Y-58162279D01*
X143481712Y-58186206D01*
X143475682Y-58188891D01*
X143475681Y-58188891D01*
X143313278Y-58261197D01*
X143313276Y-58261198D01*
X143307248Y-58263882D01*
X143152747Y-58376134D01*
X143024960Y-58518056D01*
X142929473Y-58683444D01*
X142870458Y-58865072D01*
X142850496Y-59055000D01*
X142851186Y-59061565D01*
X142867279Y-59214677D01*
X142870458Y-59244928D01*
X142929473Y-59426556D01*
X143024960Y-59591944D01*
X143037338Y-59605691D01*
X143068054Y-59669697D01*
X143059290Y-59740150D01*
X143037339Y-59774307D01*
X143024960Y-59788056D01*
X142929473Y-59953444D01*
X142870458Y-60135072D01*
X142850496Y-60325000D01*
X142870458Y-60514928D01*
X142929473Y-60696556D01*
X143024960Y-60861944D01*
X143029378Y-60866851D01*
X143029379Y-60866852D01*
X143104656Y-60950455D01*
X143135373Y-61014463D01*
X143137020Y-61034766D01*
X143137020Y-70247522D01*
X143117018Y-70315643D01*
X143063362Y-70362136D01*
X142986871Y-70371186D01*
X142943124Y-70362643D01*
X142943121Y-70362643D01*
X142938663Y-70361772D01*
X142933101Y-70361500D01*
X142327154Y-70361500D01*
X142169434Y-70376548D01*
X141966466Y-70436092D01*
X141961139Y-70438836D01*
X141961138Y-70438836D01*
X141783751Y-70530196D01*
X141783748Y-70530198D01*
X141778420Y-70532942D01*
X141687981Y-70603983D01*
X141686289Y-70605312D01*
X141620364Y-70631662D01*
X141550657Y-70618187D01*
X141529757Y-70603263D01*
X141529189Y-70603983D01*
X141524480Y-70600264D01*
X141520150Y-70596119D01*
X141342452Y-70481380D01*
X141282354Y-70457160D01*
X141151832Y-70404558D01*
X141151829Y-70404557D01*
X141146263Y-70402314D01*
X140938663Y-70361772D01*
X140933101Y-70361500D01*
X140327154Y-70361500D01*
X140226947Y-70371061D01*
X140157235Y-70357620D01*
X140105856Y-70308623D01*
X140088980Y-70245631D01*
X140088980Y-61519114D01*
X140108982Y-61450993D01*
X140125885Y-61430019D01*
X140285499Y-61270405D01*
X140347811Y-61236379D01*
X140374594Y-61233500D01*
X140430487Y-61233500D01*
X140436939Y-61232128D01*
X140436944Y-61232128D01*
X140523887Y-61213647D01*
X140617288Y-61193794D01*
X140623319Y-61191109D01*
X140785722Y-61118803D01*
X140785724Y-61118802D01*
X140791752Y-61116118D01*
X140946253Y-61003866D01*
X140961980Y-60986399D01*
X141069621Y-60866852D01*
X141069622Y-60866851D01*
X141074040Y-60861944D01*
X141169527Y-60696556D01*
X141228542Y-60514928D01*
X141248504Y-60325000D01*
X141228542Y-60135072D01*
X141169527Y-59953444D01*
X141074040Y-59788056D01*
X141061662Y-59774309D01*
X141030946Y-59710303D01*
X141039710Y-59639850D01*
X141061661Y-59605693D01*
X141074040Y-59591944D01*
X141169527Y-59426556D01*
X141228542Y-59244928D01*
X141231722Y-59214677D01*
X141247814Y-59061565D01*
X141248504Y-59055000D01*
X141228542Y-58865072D01*
X141169527Y-58683444D01*
X141074040Y-58518056D01*
X141061662Y-58504309D01*
X141030946Y-58440303D01*
X141039710Y-58369850D01*
X141061661Y-58335693D01*
X141074040Y-58321944D01*
X141169527Y-58156556D01*
X141228542Y-57974928D01*
X141248504Y-57785000D01*
X141228542Y-57595072D01*
X141178947Y-57442435D01*
X141176919Y-57371469D01*
X141213582Y-57310671D01*
X141277294Y-57279345D01*
X141298780Y-57277500D01*
X146685500Y-57277500D01*
X146753621Y-57297502D01*
X146800114Y-57351158D01*
X146811500Y-57403500D01*
X146811500Y-85725500D01*
X146791498Y-85793621D01*
X146737842Y-85840114D01*
X146685500Y-85851500D01*
X137794500Y-85851500D01*
X137726379Y-85831498D01*
X137679886Y-85777842D01*
X137668500Y-85725500D01*
X137668500Y-59573567D01*
X137675646Y-59549231D01*
X137669539Y-59535337D01*
X137668500Y-59519189D01*
X137668500Y-57403500D01*
X137688502Y-57335379D01*
X137742158Y-57288886D01*
X137794500Y-57277500D01*
X139371220Y-57277500D01*
X139439341Y-57297502D01*
G37*
%TD.AperFunction*%
%TA.AperFunction,Conductor*%
G36*
X141659343Y-72321813D02*
G01*
X141680243Y-72336737D01*
X141680811Y-72336017D01*
X141685520Y-72339736D01*
X141689850Y-72343881D01*
X141867548Y-72458620D01*
X141873114Y-72460863D01*
X142058168Y-72535442D01*
X142058171Y-72535443D01*
X142063737Y-72537686D01*
X142271337Y-72578228D01*
X142276899Y-72578500D01*
X142882846Y-72578500D01*
X142951623Y-72571938D01*
X142999053Y-72567413D01*
X143068766Y-72580854D01*
X143120144Y-72629852D01*
X143137020Y-72692843D01*
X143137020Y-74247522D01*
X143117018Y-74315643D01*
X143063362Y-74362136D01*
X142986871Y-74371186D01*
X142943124Y-74362643D01*
X142943121Y-74362643D01*
X142938663Y-74361772D01*
X142933101Y-74361500D01*
X142327154Y-74361500D01*
X142169434Y-74376548D01*
X141966466Y-74436092D01*
X141961139Y-74438836D01*
X141961138Y-74438836D01*
X141783751Y-74530196D01*
X141783748Y-74530198D01*
X141778420Y-74532942D01*
X141687981Y-74603983D01*
X141686289Y-74605312D01*
X141620364Y-74631662D01*
X141550657Y-74618187D01*
X141529757Y-74603263D01*
X141529189Y-74603983D01*
X141524480Y-74600264D01*
X141520150Y-74596119D01*
X141342452Y-74481380D01*
X141282354Y-74457160D01*
X141151832Y-74404558D01*
X141151829Y-74404557D01*
X141146263Y-74402314D01*
X140938663Y-74361772D01*
X140933101Y-74361500D01*
X140327154Y-74361500D01*
X140226947Y-74371061D01*
X140157235Y-74357620D01*
X140105856Y-74308623D01*
X140088980Y-74245631D01*
X140088980Y-72695602D01*
X140108982Y-72627481D01*
X140162638Y-72580988D01*
X140239129Y-72571938D01*
X140271337Y-72578228D01*
X140276899Y-72578500D01*
X140882846Y-72578500D01*
X141040566Y-72563452D01*
X141243534Y-72503908D01*
X141327111Y-72460863D01*
X141426249Y-72409804D01*
X141426252Y-72409802D01*
X141431580Y-72407058D01*
X141523711Y-72334688D01*
X141589636Y-72308338D01*
X141659343Y-72321813D01*
G37*
%TD.AperFunction*%
%TD*%
M02*
