%TF.GenerationSoftware,KiCad,Pcbnew,6.0.2+dfsg-1*%
%TF.CreationDate,2023-11-05T21:01:26-08:00*%
%TF.ProjectId,xbox_tray_emulator,78626f78-5f74-4726-9179-5f656d756c61,rev?*%
%TF.SameCoordinates,Original*%
%TF.FileFunction,Copper,L1,Top*%
%TF.FilePolarity,Positive*%
%FSLAX46Y46*%
G04 Gerber Fmt 4.6, Leading zero omitted, Abs format (unit mm)*
G04 Created by KiCad (PCBNEW 6.0.2+dfsg-1) date 2023-11-05 21:01:26*
%MOMM*%
%LPD*%
G01*
G04 APERTURE LIST*
G04 Aperture macros list*
%AMRoundRect*
0 Rectangle with rounded corners*
0 $1 Rounding radius*
0 $2 $3 $4 $5 $6 $7 $8 $9 X,Y pos of 4 corners*
0 Add a 4 corners polygon primitive as box body*
4,1,4,$2,$3,$4,$5,$6,$7,$8,$9,$2,$3,0*
0 Add four circle primitives for the rounded corners*
1,1,$1+$1,$2,$3*
1,1,$1+$1,$4,$5*
1,1,$1+$1,$6,$7*
1,1,$1+$1,$8,$9*
0 Add four rect primitives between the rounded corners*
20,1,$1+$1,$2,$3,$4,$5,0*
20,1,$1+$1,$4,$5,$6,$7,0*
20,1,$1+$1,$6,$7,$8,$9,0*
20,1,$1+$1,$8,$9,$2,$3,0*%
G04 Aperture macros list end*
%TA.AperFunction,SMDPad,CuDef*%
%ADD10RoundRect,0.250000X0.337500X0.475000X-0.337500X0.475000X-0.337500X-0.475000X0.337500X-0.475000X0*%
%TD*%
%TA.AperFunction,SMDPad,CuDef*%
%ADD11RoundRect,0.250000X0.450000X-0.325000X0.450000X0.325000X-0.450000X0.325000X-0.450000X-0.325000X0*%
%TD*%
%TA.AperFunction,SMDPad,CuDef*%
%ADD12RoundRect,0.250000X0.350000X0.450000X-0.350000X0.450000X-0.350000X-0.450000X0.350000X-0.450000X0*%
%TD*%
%TA.AperFunction,SMDPad,CuDef*%
%ADD13R,1.700000X0.650000*%
%TD*%
%TA.AperFunction,ComponentPad*%
%ADD14RoundRect,0.250000X0.575000X-0.350000X0.575000X0.350000X-0.575000X0.350000X-0.575000X-0.350000X0*%
%TD*%
%TA.AperFunction,ComponentPad*%
%ADD15O,1.650000X1.200000*%
%TD*%
%TA.AperFunction,ViaPad*%
%ADD16C,0.800000*%
%TD*%
%TA.AperFunction,Conductor*%
%ADD17C,0.250000*%
%TD*%
%TA.AperFunction,Conductor*%
%ADD18C,0.400000*%
%TD*%
G04 APERTURE END LIST*
D10*
%TO.P,C1,1*%
%TO.N,Net-(C1-Pad1)*%
X144801500Y-63881000D03*
%TO.P,C1,2*%
%TO.N,Net-(C1-Pad2)*%
X142726500Y-63881000D03*
%TD*%
D11*
%TO.P,D1,1,K*%
%TO.N,Net-(D1-Pad1)*%
X145923000Y-79638000D03*
%TO.P,D1,2,A*%
%TO.N,Net-(D1-Pad2)*%
X145923000Y-77588000D03*
%TD*%
D12*
%TO.P,R1,1*%
%TO.N,Net-(R1-Pad1)*%
X140573000Y-63881000D03*
%TO.P,R1,2*%
%TO.N,Net-(C1-Pad2)*%
X138573000Y-63881000D03*
%TD*%
D13*
%TO.P,U1,1,~{RESET}/PB5*%
%TO.N,Net-(R1-Pad1)*%
X145890000Y-61595000D03*
%TO.P,U1,2,PB3*%
%TO.N,Net-(J1-Pad7)*%
X145890000Y-60325000D03*
%TO.P,U1,3,PB4*%
%TO.N,Net-(J1-Pad5)*%
X145890000Y-59055000D03*
%TO.P,U1,4,GND*%
%TO.N,Net-(C1-Pad1)*%
X145890000Y-57785000D03*
%TO.P,U1,5,PB0*%
%TO.N,Net-(D1-Pad2)*%
X138590000Y-57785000D03*
%TO.P,U1,6,PB1*%
%TO.N,Net-(J1-Pad6)*%
X138590000Y-59055000D03*
%TO.P,U1,7,PB2*%
%TO.N,Net-(J1-Pad8)*%
X138590000Y-60325000D03*
%TO.P,U1,8,VCC*%
%TO.N,Net-(C1-Pad2)*%
X138590000Y-61595000D03*
%TD*%
D14*
%TO.P,J1,1,Pin_1*%
%TO.N,unconnected-(J1-Pad1)*%
X142621000Y-80645000D03*
D15*
%TO.P,J1,2,Pin_2*%
%TO.N,Net-(C1-Pad2)*%
X140621000Y-80645000D03*
%TO.P,J1,3,Pin_3*%
%TO.N,Net-(C1-Pad1)*%
X142621000Y-78645000D03*
%TO.P,J1,4,Pin_4*%
%TO.N,Net-(D1-Pad1)*%
X140621000Y-78645000D03*
%TO.P,J1,5,Pin_5*%
%TO.N,Net-(J1-Pad5)*%
X142621000Y-76645000D03*
%TO.P,J1,6,Pin_6*%
%TO.N,Net-(J1-Pad6)*%
X140621000Y-76645000D03*
%TO.P,J1,7,Pin_7*%
%TO.N,Net-(J1-Pad7)*%
X142621000Y-74645000D03*
%TO.P,J1,8,Pin_8*%
%TO.N,Net-(J1-Pad8)*%
X140621000Y-74645000D03*
%TO.P,J1,9,Pin_9*%
%TO.N,unconnected-(J1-Pad9)*%
X142621000Y-72645000D03*
%TO.P,J1,10,Pin_10*%
%TO.N,Net-(C1-Pad2)*%
X140621000Y-72645000D03*
%TO.P,J1,11,Pin_11*%
%TO.N,Net-(C1-Pad1)*%
X142621000Y-70645000D03*
%TO.P,J1,12,Pin_12*%
X140621000Y-70645000D03*
%TO.P,J1,13,Pin_13*%
%TO.N,unconnected-(J1-Pad13)*%
X142621000Y-68645000D03*
%TO.P,J1,14*%
%TO.N,N/C*%
X140621000Y-68645000D03*
%TD*%
D16*
%TO.N,Net-(C1-Pad1)*%
X142748000Y-66802000D03*
X142748000Y-61087000D03*
%TO.N,Net-(J1-Pad5)*%
X144399000Y-59055000D03*
%TO.N,Net-(J1-Pad6)*%
X140335000Y-59055000D03*
%TO.N,Net-(J1-Pad7)*%
X143764000Y-60325000D03*
%TO.N,Net-(J1-Pad8)*%
X140335000Y-60325000D03*
%TO.N,Net-(D1-Pad2)*%
X145923000Y-76200000D03*
X140335000Y-57785000D03*
%TD*%
D17*
%TO.N,Net-(C1-Pad1)*%
X143924000Y-70645000D02*
X144018000Y-70739000D01*
D18*
X144018000Y-70739000D02*
X144018000Y-67183000D01*
X144801500Y-63140500D02*
X142748000Y-61087000D01*
X145890000Y-57785000D02*
X142748000Y-57785000D01*
X144018000Y-77248000D02*
X144018000Y-70739000D01*
X143637000Y-66802000D02*
X142748000Y-66802000D01*
X142621000Y-78645000D02*
X144018000Y-77248000D01*
X140621000Y-70645000D02*
X142621000Y-70645000D01*
X142748000Y-61087000D02*
X142748000Y-57785000D01*
X142621000Y-70645000D02*
X143924000Y-70645000D01*
D17*
X144801500Y-63881000D02*
X144801500Y-63140500D01*
D18*
X144018000Y-67183000D02*
X143637000Y-66802000D01*
%TO.N,Net-(C1-Pad2)*%
X142726500Y-63881000D02*
X142726500Y-62843500D01*
X138557000Y-65278000D02*
X139192000Y-65913000D01*
X138590000Y-64118000D02*
X138590000Y-61595000D01*
X139192000Y-79216000D02*
X140621000Y-80645000D01*
X140621000Y-72645000D02*
X139318000Y-72645000D01*
X139318000Y-72645000D02*
X139192000Y-72771000D01*
X141478000Y-61595000D02*
X138590000Y-61595000D01*
X138557000Y-65278000D02*
X138557000Y-64135000D01*
X139192000Y-65913000D02*
X139192000Y-79216000D01*
X142726500Y-62843500D02*
X141478000Y-61595000D01*
D17*
%TO.N,Net-(D1-Pad1)*%
X140621000Y-78645000D02*
X141545520Y-79569520D01*
X145854520Y-79569520D02*
X145923000Y-79638000D01*
X141545520Y-79569520D02*
X145854520Y-79569520D01*
%TO.N,Net-(J1-Pad5)*%
X145890000Y-59055000D02*
X144399000Y-59055000D01*
%TO.N,Net-(J1-Pad6)*%
X138590000Y-59055000D02*
X140335000Y-59055000D01*
%TO.N,Net-(J1-Pad7)*%
X145890000Y-60325000D02*
X143764000Y-60325000D01*
%TO.N,Net-(J1-Pad8)*%
X138590000Y-60325000D02*
X140335000Y-60325000D01*
%TO.N,Net-(R1-Pad1)*%
X140573000Y-64246000D02*
X140573000Y-63881000D01*
X146431000Y-64770000D02*
X145669000Y-65532000D01*
X146431000Y-62865000D02*
X146431000Y-64770000D01*
X145890000Y-61595000D02*
X145890000Y-62324000D01*
X145890000Y-62324000D02*
X146431000Y-62865000D01*
X141859000Y-65532000D02*
X140573000Y-64246000D01*
X145669000Y-65532000D02*
X141859000Y-65532000D01*
%TO.N,Net-(D1-Pad2)*%
X145923000Y-77588000D02*
X145923000Y-76200000D01*
X138590000Y-57785000D02*
X140335000Y-57785000D01*
%TD*%
M02*
