%TF.GenerationSoftware,KiCad,Pcbnew,6.0.2+dfsg-1*%
%TF.CreationDate,2023-11-06T15:43:30-08:00*%
%TF.ProjectId,xbox_tray_emulator,78626f78-5f74-4726-9179-5f656d756c61,rev?*%
%TF.SameCoordinates,Original*%
%TF.FileFunction,Copper,L1,Top*%
%TF.FilePolarity,Positive*%
%FSLAX46Y46*%
G04 Gerber Fmt 4.6, Leading zero omitted, Abs format (unit mm)*
G04 Created by KiCad (PCBNEW 6.0.2+dfsg-1) date 2023-11-06 15:43:30*
%MOMM*%
%LPD*%
G01*
G04 APERTURE LIST*
G04 Aperture macros list*
%AMRoundRect*
0 Rectangle with rounded corners*
0 $1 Rounding radius*
0 $2 $3 $4 $5 $6 $7 $8 $9 X,Y pos of 4 corners*
0 Add a 4 corners polygon primitive as box body*
4,1,4,$2,$3,$4,$5,$6,$7,$8,$9,$2,$3,0*
0 Add four circle primitives for the rounded corners*
1,1,$1+$1,$2,$3*
1,1,$1+$1,$4,$5*
1,1,$1+$1,$6,$7*
1,1,$1+$1,$8,$9*
0 Add four rect primitives between the rounded corners*
20,1,$1+$1,$2,$3,$4,$5,0*
20,1,$1+$1,$4,$5,$6,$7,0*
20,1,$1+$1,$6,$7,$8,$9,0*
20,1,$1+$1,$8,$9,$2,$3,0*%
G04 Aperture macros list end*
%TA.AperFunction,SMDPad,CuDef*%
%ADD10RoundRect,0.250000X0.337500X0.475000X-0.337500X0.475000X-0.337500X-0.475000X0.337500X-0.475000X0*%
%TD*%
%TA.AperFunction,SMDPad,CuDef*%
%ADD11RoundRect,0.250000X0.350000X0.450000X-0.350000X0.450000X-0.350000X-0.450000X0.350000X-0.450000X0*%
%TD*%
%TA.AperFunction,SMDPad,CuDef*%
%ADD12RoundRect,0.150000X0.587500X0.150000X-0.587500X0.150000X-0.587500X-0.150000X0.587500X-0.150000X0*%
%TD*%
%TA.AperFunction,SMDPad,CuDef*%
%ADD13RoundRect,0.250000X-0.337500X-0.475000X0.337500X-0.475000X0.337500X0.475000X-0.337500X0.475000X0*%
%TD*%
%TA.AperFunction,SMDPad,CuDef*%
%ADD14R,1.700000X0.650000*%
%TD*%
%TA.AperFunction,ComponentPad*%
%ADD15RoundRect,0.250000X0.575000X-0.350000X0.575000X0.350000X-0.575000X0.350000X-0.575000X-0.350000X0*%
%TD*%
%TA.AperFunction,ComponentPad*%
%ADD16O,1.650000X1.200000*%
%TD*%
%TA.AperFunction,ViaPad*%
%ADD17C,0.800000*%
%TD*%
%TA.AperFunction,Conductor*%
%ADD18C,0.400000*%
%TD*%
%TA.AperFunction,Conductor*%
%ADD19C,0.250000*%
%TD*%
G04 APERTURE END LIST*
D10*
%TO.P,C1,1*%
%TO.N,Net-(C1-Pad1)*%
X144801500Y-63881000D03*
%TO.P,C1,2*%
%TO.N,Net-(C1-Pad2)*%
X142726500Y-63881000D03*
%TD*%
D11*
%TO.P,R1,1*%
%TO.N,Net-(R1-Pad1)*%
X140573000Y-63881000D03*
%TO.P,R1,2*%
%TO.N,Net-(C1-Pad2)*%
X138573000Y-63881000D03*
%TD*%
D12*
%TO.P,U2,1,GND*%
%TO.N,Net-(C1-Pad1)*%
X140383500Y-67879000D03*
%TO.P,U2,2,VO*%
%TO.N,Net-(C1-Pad2)*%
X140383500Y-65979000D03*
%TO.P,U2,3,VI*%
%TO.N,Net-(J1-Pad10)*%
X138508500Y-66929000D03*
%TD*%
D13*
%TO.P,C2,1*%
%TO.N,Net-(J1-Pad10)*%
X142726500Y-66421000D03*
%TO.P,C2,2*%
%TO.N,Net-(C1-Pad1)*%
X144801500Y-66421000D03*
%TD*%
D14*
%TO.P,U1,1,~{RESET}/PB5*%
%TO.N,Net-(R1-Pad1)*%
X145890000Y-61595000D03*
%TO.P,U1,2,PB3*%
%TO.N,Net-(J1-Pad7)*%
X145890000Y-60325000D03*
%TO.P,U1,3,PB4*%
%TO.N,Net-(J1-Pad5)*%
X145890000Y-59055000D03*
%TO.P,U1,4,GND*%
%TO.N,Net-(C1-Pad1)*%
X145890000Y-57785000D03*
%TO.P,U1,5,PB0*%
%TO.N,Net-(J1-Pad4)*%
X138590000Y-57785000D03*
%TO.P,U1,6,PB1*%
%TO.N,Net-(J1-Pad6)*%
X138590000Y-59055000D03*
%TO.P,U1,7,PB2*%
%TO.N,Net-(J1-Pad8)*%
X138590000Y-60325000D03*
%TO.P,U1,8,VCC*%
%TO.N,Net-(C1-Pad2)*%
X138590000Y-61595000D03*
%TD*%
D15*
%TO.P,J1,1,Pin_1*%
%TO.N,unconnected-(J1-Pad1)*%
X142605000Y-83470000D03*
D16*
%TO.P,J1,2,Pin_2*%
%TO.N,Net-(J1-Pad10)*%
X140605000Y-83470000D03*
%TO.P,J1,3,Pin_3*%
%TO.N,Net-(C1-Pad1)*%
X142605000Y-81470000D03*
%TO.P,J1,4,Pin_4*%
%TO.N,Net-(J1-Pad4)*%
X140605000Y-81470000D03*
%TO.P,J1,5,Pin_5*%
%TO.N,Net-(J1-Pad5)*%
X142605000Y-79470000D03*
%TO.P,J1,6,Pin_6*%
%TO.N,Net-(J1-Pad6)*%
X140605000Y-79470000D03*
%TO.P,J1,7,Pin_7*%
%TO.N,Net-(J1-Pad7)*%
X142605000Y-77470000D03*
%TO.P,J1,8,Pin_8*%
%TO.N,Net-(J1-Pad8)*%
X140605000Y-77470000D03*
%TO.P,J1,9,Pin_9*%
%TO.N,unconnected-(J1-Pad9)*%
X142605000Y-75470000D03*
%TO.P,J1,10,Pin_10*%
%TO.N,Net-(J1-Pad10)*%
X140605000Y-75470000D03*
%TO.P,J1,11,Pin_11*%
%TO.N,Net-(C1-Pad1)*%
X142605000Y-73470000D03*
%TO.P,J1,12,Pin_12*%
X140605000Y-73470000D03*
%TO.P,J1,13,Pin_13*%
%TO.N,unconnected-(J1-Pad13)*%
X142605000Y-71470000D03*
%TO.P,J1,14*%
%TO.N,N/C*%
X140605000Y-71470000D03*
%TD*%
D17*
%TO.N,Net-(C1-Pad1)*%
X142748000Y-61087000D03*
X142814000Y-67879000D03*
%TO.N,Net-(J1-Pad5)*%
X144399000Y-59055000D03*
%TO.N,Net-(J1-Pad6)*%
X140335000Y-59055000D03*
%TO.N,Net-(J1-Pad7)*%
X143764000Y-60325000D03*
%TO.N,Net-(J1-Pad8)*%
X140335000Y-60325000D03*
%TO.N,Net-(J1-Pad4)*%
X140335000Y-57785000D03*
%TD*%
D18*
%TO.N,Net-(C1-Pad1)*%
X144801500Y-63140500D02*
X142748000Y-61087000D01*
X145890000Y-57785000D02*
X142748000Y-57785000D01*
X142814000Y-67879000D02*
X144630000Y-67879000D01*
X142605000Y-73470000D02*
X144759000Y-73470000D01*
X144801500Y-79273500D02*
X144801500Y-73427500D01*
X142605000Y-81470000D02*
X144801500Y-79273500D01*
X144801500Y-73427500D02*
X144801500Y-66421000D01*
X142748000Y-61087000D02*
X142748000Y-57785000D01*
X140383500Y-67879000D02*
X142814000Y-67879000D01*
X140605000Y-73597000D02*
X142605000Y-73597000D01*
D19*
X144801500Y-63881000D02*
X144801500Y-63140500D01*
X144759000Y-73470000D02*
X144801500Y-73427500D01*
D18*
%TO.N,Net-(C1-Pad2)*%
X142726500Y-63881000D02*
X142726500Y-62843500D01*
X138557000Y-63897000D02*
X138573000Y-63881000D01*
X139766000Y-65979000D02*
X138573000Y-64786000D01*
X138590000Y-64118000D02*
X138590000Y-61595000D01*
X141478000Y-61595000D02*
X138590000Y-61595000D01*
X142726500Y-62843500D02*
X141478000Y-61595000D01*
X138573000Y-64786000D02*
X138573000Y-63881000D01*
D19*
X140383500Y-65979000D02*
X139766000Y-65979000D01*
%TO.N,Net-(J1-Pad5)*%
X145890000Y-59055000D02*
X144399000Y-59055000D01*
%TO.N,Net-(J1-Pad6)*%
X138590000Y-59055000D02*
X140335000Y-59055000D01*
%TO.N,Net-(J1-Pad7)*%
X145890000Y-60325000D02*
X143764000Y-60325000D01*
%TO.N,Net-(J1-Pad8)*%
X138590000Y-60325000D02*
X140335000Y-60325000D01*
%TO.N,Net-(R1-Pad1)*%
X141622520Y-64930520D02*
X140573000Y-63881000D01*
X145890000Y-64417493D02*
X145890000Y-61595000D01*
X145376973Y-64930520D02*
X145890000Y-64417493D01*
X141622520Y-64930520D02*
X145376973Y-64930520D01*
%TO.N,Net-(J1-Pad4)*%
X138590000Y-57785000D02*
X140335000Y-57785000D01*
D18*
%TO.N,Net-(J1-Pad10)*%
X138508500Y-66929000D02*
X142218500Y-66929000D01*
X138508500Y-75613500D02*
X138508500Y-81500500D01*
X140605000Y-75597000D02*
X138525000Y-75597000D01*
D19*
X138525000Y-75597000D02*
X138508500Y-75613500D01*
D18*
X138508500Y-75613500D02*
X138508500Y-66929000D01*
X142218500Y-66929000D02*
X142726500Y-66421000D01*
X138508500Y-81500500D02*
X140605000Y-83597000D01*
%TD*%
M02*
