M48
; DRILL file {KiCad 6.0.2+dfsg-1} date Tue 07 Nov 2023 08:53:51 PM PST
; FORMAT={-:-/ absolute / inch / decimal}
; #@! TF.CreationDate,2023-11-07T20:53:51-08:00
; #@! TF.GenerationSoftware,Kicad,Pcbnew,6.0.2+dfsg-1
; #@! TF.FileFunction,Plated,1,2,PTH
FMAT,2
INCH
; #@! TA.AperFunction,Plated,PTH,ViaDrill
T1C0.0157
; #@! TA.AperFunction,Plated,PTH,ComponentDrill
T2C0.0335
%
G90
G05
T1
X5.45Y-3.34
X5.525Y-2.275
X5.525Y-2.325
X5.525Y-2.375
X5.54Y-2.74
X5.585Y-2.28
X5.585Y-2.365
X5.61Y-2.69
X5.61Y-2.74
X5.635Y-2.28
X5.66Y-2.375
X5.685Y-2.325
X5.715Y-3.21
X5.745Y-2.69
X5.745Y-2.85
X5.745Y-3.06
X5.745Y-3.34
T2
X5.5356Y-2.8138
X5.5356Y-2.8925
X5.5356Y-2.9713
X5.5356Y-3.05
X5.5356Y-3.1287
X5.5356Y-3.2075
X5.5356Y-3.2862
X5.6144Y-2.8138
X5.6144Y-2.8925
X5.6144Y-2.9713
X5.6144Y-3.05
X5.6144Y-3.1287
X5.6144Y-3.2075
X5.6144Y-3.2862
T0
M30
