%TF.GenerationSoftware,KiCad,Pcbnew,6.0.11+dfsg-1*%
%TF.CreationDate,2023-11-21T20:36:44-08:00*%
%TF.ProjectId,xbox_dvd_delete,78626f78-5f64-4766-945f-64656c657465,rev?*%
%TF.SameCoordinates,Original*%
%TF.FileFunction,Copper,L1,Top*%
%TF.FilePolarity,Positive*%
%FSLAX46Y46*%
G04 Gerber Fmt 4.6, Leading zero omitted, Abs format (unit mm)*
G04 Created by KiCad (PCBNEW 6.0.11+dfsg-1) date 2023-11-21 20:36:44*
%MOMM*%
%LPD*%
G01*
G04 APERTURE LIST*
G04 Aperture macros list*
%AMRoundRect*
0 Rectangle with rounded corners*
0 $1 Rounding radius*
0 $2 $3 $4 $5 $6 $7 $8 $9 X,Y pos of 4 corners*
0 Add a 4 corners polygon primitive as box body*
4,1,4,$2,$3,$4,$5,$6,$7,$8,$9,$2,$3,0*
0 Add four circle primitives for the rounded corners*
1,1,$1+$1,$2,$3*
1,1,$1+$1,$4,$5*
1,1,$1+$1,$6,$7*
1,1,$1+$1,$8,$9*
0 Add four rect primitives between the rounded corners*
20,1,$1+$1,$2,$3,$4,$5,0*
20,1,$1+$1,$4,$5,$6,$7,0*
20,1,$1+$1,$6,$7,$8,$9,0*
20,1,$1+$1,$8,$9,$2,$3,0*%
G04 Aperture macros list end*
%TA.AperFunction,SMDPad,CuDef*%
%ADD10RoundRect,0.237500X-0.237500X0.250000X-0.237500X-0.250000X0.237500X-0.250000X0.237500X0.250000X0*%
%TD*%
%TA.AperFunction,SMDPad,CuDef*%
%ADD11RoundRect,0.237500X0.237500X-0.250000X0.237500X0.250000X-0.237500X0.250000X-0.237500X-0.250000X0*%
%TD*%
%TA.AperFunction,ComponentPad*%
%ADD12RoundRect,0.250000X0.575000X-0.350000X0.575000X0.350000X-0.575000X0.350000X-0.575000X-0.350000X0*%
%TD*%
%TA.AperFunction,ComponentPad*%
%ADD13O,1.650000X1.200000*%
%TD*%
%TA.AperFunction,ViaPad*%
%ADD14C,0.800000*%
%TD*%
%TA.AperFunction,Conductor*%
%ADD15C,0.250000*%
%TD*%
G04 APERTURE END LIST*
D10*
%TO.P,R4,1*%
%TO.N,Net-(J1-Pad7)*%
X147447000Y-93448500D03*
%TO.P,R4,2*%
%TO.N,Net-(J1-Pad11)*%
X147447000Y-95273500D03*
%TD*%
D11*
%TO.P,R3,1*%
%TO.N,Net-(J1-Pad5)*%
X147447000Y-98702500D03*
%TO.P,R3,2*%
%TO.N,Net-(J1-Pad11)*%
X147447000Y-96877500D03*
%TD*%
%TO.P,R2,1*%
%TO.N,Net-(J1-Pad7)*%
X147447000Y-91844500D03*
%TO.P,R2,2*%
%TO.N,Net-(J1-Pad10)*%
X147447000Y-90019500D03*
%TD*%
D10*
%TO.P,R1,1*%
%TO.N,Net-(J1-Pad11)*%
X140081000Y-96115500D03*
%TO.P,R1,2*%
%TO.N,Net-(J1-Pad6)*%
X140081000Y-97940500D03*
%TD*%
%TO.P,R5,1*%
%TO.N,Net-(J1-Pad8)*%
X140081000Y-92686500D03*
%TO.P,R5,2*%
%TO.N,Net-(J1-Pad11)*%
X140081000Y-94511500D03*
%TD*%
D12*
%TO.P,J1,1,Pin_1*%
%TO.N,unconnected-(J1-Pad1)*%
X144764000Y-100488000D03*
D13*
%TO.P,J1,2,Pin_2*%
%TO.N,unconnected-(J1-Pad2)*%
X142764000Y-100488000D03*
%TO.P,J1,3,Pin_3*%
%TO.N,Net-(J1-Pad11)*%
X144764000Y-98488000D03*
%TO.P,J1,4,Pin_4*%
%TO.N,unconnected-(J1-Pad4)*%
X142764000Y-98488000D03*
%TO.P,J1,5,Pin_5*%
%TO.N,Net-(J1-Pad5)*%
X144764000Y-96488000D03*
%TO.P,J1,6,Pin_6*%
%TO.N,Net-(J1-Pad6)*%
X142764000Y-96488000D03*
%TO.P,J1,7,Pin_7*%
%TO.N,Net-(J1-Pad7)*%
X144764000Y-94488000D03*
%TO.P,J1,8,Pin_8*%
%TO.N,Net-(J1-Pad8)*%
X142764000Y-94488000D03*
%TO.P,J1,9,Pin_9*%
%TO.N,unconnected-(J1-Pad9)*%
X144764000Y-92488000D03*
%TO.P,J1,10,Pin_10*%
%TO.N,Net-(J1-Pad10)*%
X142764000Y-92488000D03*
%TO.P,J1,11,Pin_11*%
%TO.N,Net-(J1-Pad11)*%
X144764000Y-90488000D03*
%TO.P,J1,12,Pin_12*%
X142764000Y-90488000D03*
%TO.P,J1,13,Pin_13*%
%TO.N,unconnected-(J1-Pad13)*%
X144764000Y-88488000D03*
%TD*%
D14*
%TO.N,Net-(J1-Pad11)*%
X146304000Y-95631000D03*
X141097000Y-95377000D03*
X141097000Y-88519000D03*
X147193000Y-101600000D03*
X140335000Y-101600000D03*
%TD*%
D15*
%TO.N,Net-(J1-Pad5)*%
X146978500Y-98702500D02*
X144764000Y-96488000D01*
X147447000Y-98702500D02*
X146978500Y-98702500D01*
%TO.N,Net-(J1-Pad6)*%
X141533500Y-96488000D02*
X140081000Y-97940500D01*
X142764000Y-96488000D02*
X141533500Y-96488000D01*
%TO.N,Net-(J1-Pad7)*%
X146788500Y-94488000D02*
X144764000Y-94488000D01*
X147447000Y-91844500D02*
X147447000Y-93448500D01*
X147828000Y-93448500D02*
X146788500Y-94488000D01*
%TO.N,Net-(J1-Pad8)*%
X142764000Y-94488000D02*
X140962500Y-92686500D01*
X140962500Y-92686500D02*
X140081000Y-92686500D01*
%TO.N,Net-(J1-Pad10)*%
X142018000Y-92488000D02*
X142622980Y-92488000D01*
X139700000Y-90170000D02*
X142018000Y-92488000D01*
X139700000Y-86868000D02*
X147447000Y-86868000D01*
X147447000Y-86868000D02*
X147447000Y-90019500D01*
X139700000Y-86868000D02*
X139700000Y-90170000D01*
%TD*%
%TA.AperFunction,Conductor*%
%TO.N,Net-(J1-Pad11)*%
G36*
X141744941Y-97276629D02*
G01*
X141788036Y-97303664D01*
X141848850Y-97361881D01*
X141853889Y-97365135D01*
X141853892Y-97365137D01*
X141881163Y-97382746D01*
X141927540Y-97436501D01*
X141937493Y-97506797D01*
X141907861Y-97571314D01*
X141890649Y-97587681D01*
X141771080Y-97681604D01*
X141767148Y-97686135D01*
X141767145Y-97686138D01*
X141654458Y-97815999D01*
X141632448Y-97841363D01*
X141629448Y-97846549D01*
X141629445Y-97846553D01*
X141582312Y-97928026D01*
X141526527Y-98024454D01*
X141457139Y-98224271D01*
X141456278Y-98230206D01*
X141456278Y-98230208D01*
X141439952Y-98342809D01*
X141426787Y-98433604D01*
X141436567Y-98644899D01*
X141437971Y-98650724D01*
X141437971Y-98650725D01*
X141479286Y-98822155D01*
X141486125Y-98850534D01*
X141488607Y-98855992D01*
X141488608Y-98855996D01*
X141531911Y-98951235D01*
X141573674Y-99043087D01*
X141696054Y-99215611D01*
X141848850Y-99361881D01*
X141853888Y-99365134D01*
X141881163Y-99382746D01*
X141927540Y-99436501D01*
X141937493Y-99506797D01*
X141907861Y-99571314D01*
X141890649Y-99587681D01*
X141771080Y-99681604D01*
X141767148Y-99686135D01*
X141767145Y-99686138D01*
X141684512Y-99781365D01*
X141632448Y-99841363D01*
X141629448Y-99846549D01*
X141629445Y-99846553D01*
X141554966Y-99975296D01*
X141526527Y-100024454D01*
X141457139Y-100224271D01*
X141426787Y-100433604D01*
X141436567Y-100644899D01*
X141486125Y-100850534D01*
X141488607Y-100855992D01*
X141488608Y-100855996D01*
X141540916Y-100971041D01*
X141573674Y-101043087D01*
X141696054Y-101215611D01*
X141848850Y-101361881D01*
X142026548Y-101476620D01*
X142032114Y-101478863D01*
X142217168Y-101553442D01*
X142217171Y-101553443D01*
X142222737Y-101555686D01*
X142430337Y-101596228D01*
X142435899Y-101596500D01*
X143041846Y-101596500D01*
X143199566Y-101581452D01*
X143402534Y-101521908D01*
X143559343Y-101441146D01*
X143585631Y-101427607D01*
X143655350Y-101414198D01*
X143715135Y-101438217D01*
X143715697Y-101437305D01*
X143720996Y-101440572D01*
X143720999Y-101440573D01*
X143813299Y-101497468D01*
X143859090Y-101525694D01*
X143866262Y-101530115D01*
X143936591Y-101553442D01*
X144027611Y-101583632D01*
X144027613Y-101583632D01*
X144034139Y-101585797D01*
X144040975Y-101586497D01*
X144040978Y-101586498D01*
X144084031Y-101590909D01*
X144138600Y-101596500D01*
X145389400Y-101596500D01*
X145392646Y-101596163D01*
X145392650Y-101596163D01*
X145488308Y-101586238D01*
X145488312Y-101586237D01*
X145495166Y-101585526D01*
X145501702Y-101583345D01*
X145501704Y-101583345D01*
X145633806Y-101539272D01*
X145662946Y-101529550D01*
X145813348Y-101436478D01*
X145938305Y-101311303D01*
X145942146Y-101305072D01*
X146027275Y-101166968D01*
X146027276Y-101166966D01*
X146031115Y-101160738D01*
X146086797Y-100992861D01*
X146097500Y-100888400D01*
X146097500Y-100087600D01*
X146097163Y-100084350D01*
X146087238Y-99988692D01*
X146087237Y-99988688D01*
X146086526Y-99981834D01*
X146030550Y-99814054D01*
X145937478Y-99663652D01*
X145812303Y-99538695D01*
X145748523Y-99499380D01*
X145667968Y-99449725D01*
X145667966Y-99449724D01*
X145661738Y-99445885D01*
X145501254Y-99392655D01*
X145500389Y-99392368D01*
X145500387Y-99392368D01*
X145493861Y-99390203D01*
X145487025Y-99389503D01*
X145487022Y-99389502D01*
X145443969Y-99385091D01*
X145389400Y-99379500D01*
X144138600Y-99379500D01*
X144135354Y-99379837D01*
X144135350Y-99379837D01*
X144039692Y-99389762D01*
X144039688Y-99389763D01*
X144032834Y-99390474D01*
X144026298Y-99392655D01*
X144026296Y-99392655D01*
X143964053Y-99413421D01*
X143893103Y-99416005D01*
X143832020Y-99379821D01*
X143800195Y-99316357D01*
X143807734Y-99245762D01*
X143829009Y-99211321D01*
X143895552Y-99134637D01*
X143898552Y-99129451D01*
X143898555Y-99129447D01*
X143998467Y-98956742D01*
X144001473Y-98951546D01*
X144070861Y-98751729D01*
X144071722Y-98745792D01*
X144100352Y-98548336D01*
X144100352Y-98548333D01*
X144101213Y-98542396D01*
X144091433Y-98331101D01*
X144041875Y-98125466D01*
X143998525Y-98030122D01*
X143956806Y-97938368D01*
X143954326Y-97932913D01*
X143831946Y-97760389D01*
X143719313Y-97652567D01*
X143683480Y-97618264D01*
X143679150Y-97614119D01*
X143673255Y-97610312D01*
X143646837Y-97593254D01*
X143600460Y-97539499D01*
X143590507Y-97469203D01*
X143620139Y-97404686D01*
X143637353Y-97388317D01*
X143644446Y-97382746D01*
X143682711Y-97352688D01*
X143748637Y-97326338D01*
X143818343Y-97339813D01*
X143839243Y-97354737D01*
X143839811Y-97354017D01*
X143844519Y-97357735D01*
X143848850Y-97361881D01*
X144026548Y-97476620D01*
X144032114Y-97478863D01*
X144217168Y-97553442D01*
X144217171Y-97553443D01*
X144222737Y-97555686D01*
X144430337Y-97596228D01*
X144435899Y-97596500D01*
X144924406Y-97596500D01*
X144992527Y-97616502D01*
X145013501Y-97633405D01*
X145807759Y-98427664D01*
X146447316Y-99067221D01*
X146477745Y-99116440D01*
X146483816Y-99134637D01*
X146529346Y-99271107D01*
X146620884Y-99419031D01*
X146626066Y-99424204D01*
X146738816Y-99536758D01*
X146738821Y-99536762D01*
X146743997Y-99541929D01*
X146750227Y-99545769D01*
X146750228Y-99545770D01*
X146812481Y-99584143D01*
X146892080Y-99633209D01*
X147057191Y-99687974D01*
X147064027Y-99688674D01*
X147064030Y-99688675D01*
X147115526Y-99693951D01*
X147159928Y-99698500D01*
X147734072Y-99698500D01*
X147737318Y-99698163D01*
X147737322Y-99698163D01*
X147831235Y-99688419D01*
X147831239Y-99688418D01*
X147838093Y-99687707D01*
X147844627Y-99685527D01*
X147844632Y-99685526D01*
X147915624Y-99661841D01*
X147986574Y-99659257D01*
X148047658Y-99695441D01*
X148079482Y-99758905D01*
X148081500Y-99781365D01*
X148081500Y-102362500D01*
X148061498Y-102430621D01*
X148007842Y-102477114D01*
X147955500Y-102488500D01*
X139572500Y-102488500D01*
X139504379Y-102468498D01*
X139457886Y-102414842D01*
X139446500Y-102362500D01*
X139446500Y-99019356D01*
X139466502Y-98951235D01*
X139520158Y-98904742D01*
X139590432Y-98894638D01*
X139612169Y-98899763D01*
X139691191Y-98925974D01*
X139698027Y-98926674D01*
X139698030Y-98926675D01*
X139749526Y-98931951D01*
X139793928Y-98936500D01*
X140368072Y-98936500D01*
X140371318Y-98936163D01*
X140371322Y-98936163D01*
X140465235Y-98926419D01*
X140465239Y-98926418D01*
X140472093Y-98925707D01*
X140478629Y-98923526D01*
X140478631Y-98923526D01*
X140630159Y-98872972D01*
X140637107Y-98870654D01*
X140785031Y-98779116D01*
X140818297Y-98745792D01*
X140902758Y-98661184D01*
X140902762Y-98661179D01*
X140907929Y-98656003D01*
X140999209Y-98507920D01*
X141053974Y-98342809D01*
X141064500Y-98240072D01*
X141064500Y-97905094D01*
X141084502Y-97836973D01*
X141101405Y-97815999D01*
X141611814Y-97305590D01*
X141674126Y-97271564D01*
X141744941Y-97276629D01*
G37*
%TD.AperFunction*%
%TA.AperFunction,Conductor*%
G36*
X148047658Y-94441441D02*
G01*
X148079482Y-94504905D01*
X148081500Y-94527365D01*
X148081500Y-97623644D01*
X148061498Y-97691765D01*
X148007842Y-97738258D01*
X147937568Y-97748362D01*
X147915833Y-97743237D01*
X147889027Y-97734346D01*
X147836809Y-97717026D01*
X147829973Y-97716326D01*
X147829970Y-97716325D01*
X147778474Y-97711049D01*
X147734072Y-97706500D01*
X147159928Y-97706500D01*
X147156682Y-97706837D01*
X147156678Y-97706837D01*
X147062765Y-97716581D01*
X147062761Y-97716582D01*
X147055907Y-97717293D01*
X147049371Y-97719474D01*
X147049369Y-97719474D01*
X147004793Y-97734346D01*
X146933844Y-97736930D01*
X146875821Y-97703917D01*
X146088748Y-96916843D01*
X146054723Y-96854531D01*
X146058816Y-96786415D01*
X146068894Y-96757393D01*
X146070861Y-96751729D01*
X146101213Y-96542396D01*
X146091433Y-96331101D01*
X146041875Y-96125466D01*
X145954326Y-95932913D01*
X145831946Y-95760389D01*
X145679150Y-95614119D01*
X145673255Y-95610312D01*
X145646837Y-95593254D01*
X145600460Y-95539499D01*
X145590507Y-95469203D01*
X145620139Y-95404686D01*
X145637353Y-95388317D01*
X145644446Y-95382746D01*
X145756920Y-95294396D01*
X145869275Y-95164918D01*
X145929027Y-95126579D01*
X145964439Y-95121500D01*
X146709733Y-95121500D01*
X146720916Y-95122027D01*
X146728409Y-95123702D01*
X146736335Y-95123453D01*
X146736336Y-95123453D01*
X146796486Y-95121562D01*
X146800445Y-95121500D01*
X146828356Y-95121500D01*
X146832291Y-95121003D01*
X146832356Y-95120995D01*
X146844193Y-95120062D01*
X146876451Y-95119048D01*
X146880470Y-95118922D01*
X146888389Y-95118673D01*
X146907843Y-95113021D01*
X146927200Y-95109013D01*
X146939430Y-95107468D01*
X146939431Y-95107468D01*
X146947297Y-95106474D01*
X146954668Y-95103555D01*
X146954670Y-95103555D01*
X146988412Y-95090196D01*
X146999642Y-95086351D01*
X147034483Y-95076229D01*
X147034484Y-95076229D01*
X147042093Y-95074018D01*
X147048912Y-95069985D01*
X147048917Y-95069983D01*
X147059528Y-95063707D01*
X147077276Y-95055012D01*
X147096117Y-95047552D01*
X147131887Y-95021564D01*
X147141807Y-95015048D01*
X147173035Y-94996580D01*
X147173038Y-94996578D01*
X147179862Y-94992542D01*
X147194183Y-94978221D01*
X147209217Y-94965380D01*
X147219194Y-94958131D01*
X147225607Y-94953472D01*
X147253798Y-94919395D01*
X147261788Y-94910616D01*
X147695572Y-94476832D01*
X147757884Y-94442806D01*
X147771663Y-94440600D01*
X147831235Y-94434419D01*
X147831239Y-94434418D01*
X147838093Y-94433707D01*
X147844627Y-94431527D01*
X147844632Y-94431526D01*
X147915624Y-94407841D01*
X147986574Y-94405257D01*
X148047658Y-94441441D01*
G37*
%TD.AperFunction*%
%TA.AperFunction,Conductor*%
G36*
X140910647Y-93534002D02*
G01*
X140929823Y-93549727D01*
X141214593Y-93834498D01*
X141439252Y-94059157D01*
X141473277Y-94121469D01*
X141469184Y-94189585D01*
X141457139Y-94224271D01*
X141426787Y-94433604D01*
X141436567Y-94644899D01*
X141486125Y-94850534D01*
X141573674Y-95043087D01*
X141696054Y-95215611D01*
X141848850Y-95361881D01*
X141853888Y-95365134D01*
X141881163Y-95382746D01*
X141927540Y-95436501D01*
X141937493Y-95506797D01*
X141907861Y-95571314D01*
X141890649Y-95587681D01*
X141771080Y-95681604D01*
X141659902Y-95809725D01*
X141600151Y-95848064D01*
X141568699Y-95853080D01*
X141531861Y-95854238D01*
X141525512Y-95854438D01*
X141521555Y-95854500D01*
X141493644Y-95854500D01*
X141489710Y-95854997D01*
X141489709Y-95854997D01*
X141489644Y-95855005D01*
X141477807Y-95855938D01*
X141445990Y-95856938D01*
X141441529Y-95857078D01*
X141433610Y-95857327D01*
X141415954Y-95862456D01*
X141414158Y-95862978D01*
X141394806Y-95866986D01*
X141387735Y-95867880D01*
X141374703Y-95869526D01*
X141367334Y-95872443D01*
X141367332Y-95872444D01*
X141333597Y-95885800D01*
X141322369Y-95889645D01*
X141279907Y-95901982D01*
X141273085Y-95906016D01*
X141273079Y-95906019D01*
X141262468Y-95912294D01*
X141244718Y-95920990D01*
X141233256Y-95925528D01*
X141233251Y-95925531D01*
X141225883Y-95928448D01*
X141219468Y-95933109D01*
X141190125Y-95954427D01*
X141180207Y-95960943D01*
X141161519Y-95971995D01*
X141142137Y-95983458D01*
X141127813Y-95997782D01*
X141112781Y-96010621D01*
X141096393Y-96022528D01*
X141068212Y-96056593D01*
X141060222Y-96065373D01*
X140218000Y-96907595D01*
X140155688Y-96941621D01*
X140128905Y-96944500D01*
X139793928Y-96944500D01*
X139790682Y-96944837D01*
X139790678Y-96944837D01*
X139696765Y-96954581D01*
X139696761Y-96954582D01*
X139689907Y-96955293D01*
X139683373Y-96957473D01*
X139683368Y-96957474D01*
X139612376Y-96981159D01*
X139541426Y-96983743D01*
X139480342Y-96947559D01*
X139448518Y-96884095D01*
X139446500Y-96861635D01*
X139446500Y-93765356D01*
X139466502Y-93697235D01*
X139520158Y-93650742D01*
X139590432Y-93640638D01*
X139612169Y-93645763D01*
X139691191Y-93671974D01*
X139698027Y-93672674D01*
X139698030Y-93672675D01*
X139749526Y-93677951D01*
X139793928Y-93682500D01*
X140368072Y-93682500D01*
X140371318Y-93682163D01*
X140371322Y-93682163D01*
X140465235Y-93672419D01*
X140465239Y-93672418D01*
X140472093Y-93671707D01*
X140478629Y-93669526D01*
X140478631Y-93669526D01*
X140630159Y-93618972D01*
X140637107Y-93616654D01*
X140774426Y-93531679D01*
X140842877Y-93512841D01*
X140910647Y-93534002D01*
G37*
%TD.AperFunction*%
%TA.AperFunction,Conductor*%
G36*
X143719326Y-87521502D02*
G01*
X143765819Y-87575158D01*
X143775923Y-87645432D01*
X143746371Y-87710078D01*
X143632448Y-87841363D01*
X143629448Y-87846549D01*
X143629445Y-87846553D01*
X143582312Y-87928026D01*
X143526527Y-88024454D01*
X143457139Y-88224271D01*
X143426787Y-88433604D01*
X143436567Y-88644899D01*
X143486125Y-88850534D01*
X143488607Y-88855992D01*
X143488608Y-88855996D01*
X143532053Y-88951546D01*
X143573674Y-89043087D01*
X143696054Y-89215611D01*
X143848850Y-89361881D01*
X144026548Y-89476620D01*
X144032114Y-89478863D01*
X144217168Y-89553442D01*
X144217171Y-89553443D01*
X144222737Y-89555686D01*
X144430337Y-89596228D01*
X144435899Y-89596500D01*
X145041846Y-89596500D01*
X145199566Y-89581452D01*
X145402534Y-89521908D01*
X145486111Y-89478863D01*
X145585249Y-89427804D01*
X145585252Y-89427802D01*
X145590580Y-89425058D01*
X145756920Y-89294396D01*
X145760852Y-89289865D01*
X145760855Y-89289862D01*
X145891621Y-89139167D01*
X145895552Y-89134637D01*
X145898552Y-89129451D01*
X145898555Y-89129447D01*
X145998467Y-88956742D01*
X146001473Y-88951546D01*
X146070861Y-88751729D01*
X146101213Y-88542396D01*
X146091433Y-88331101D01*
X146041875Y-88125466D01*
X145998525Y-88030122D01*
X145956806Y-87938368D01*
X145954326Y-87932913D01*
X145831946Y-87760389D01*
X145788207Y-87718518D01*
X145752831Y-87656963D01*
X145756350Y-87586053D01*
X145797647Y-87528303D01*
X145863610Y-87502047D01*
X145875338Y-87501500D01*
X146687500Y-87501500D01*
X146755621Y-87521502D01*
X146802114Y-87575158D01*
X146813500Y-87627500D01*
X146813500Y-89067036D01*
X146793498Y-89135157D01*
X146753804Y-89174179D01*
X146742969Y-89180884D01*
X146737796Y-89186066D01*
X146625242Y-89298816D01*
X146625238Y-89298821D01*
X146620071Y-89303997D01*
X146616231Y-89310227D01*
X146616230Y-89310228D01*
X146545448Y-89425058D01*
X146528791Y-89452080D01*
X146474026Y-89617191D01*
X146463500Y-89719928D01*
X146463500Y-90319072D01*
X146474293Y-90423093D01*
X146529346Y-90588107D01*
X146620884Y-90736031D01*
X146626066Y-90741204D01*
X146727786Y-90842747D01*
X146761865Y-90905030D01*
X146756862Y-90975850D01*
X146727941Y-91020937D01*
X146625246Y-91123812D01*
X146625242Y-91123817D01*
X146620071Y-91128997D01*
X146528791Y-91277080D01*
X146474026Y-91442191D01*
X146473326Y-91449027D01*
X146473325Y-91449030D01*
X146468571Y-91495431D01*
X146463500Y-91544928D01*
X146463500Y-92144072D01*
X146474293Y-92248093D01*
X146529346Y-92413107D01*
X146620884Y-92561031D01*
X146626067Y-92566205D01*
X146627664Y-92568220D01*
X146654302Y-92634030D01*
X146641132Y-92703794D01*
X146627800Y-92724578D01*
X146625242Y-92727817D01*
X146620071Y-92732997D01*
X146528791Y-92881080D01*
X146474026Y-93046191D01*
X146463500Y-93148928D01*
X146463500Y-93728500D01*
X146443498Y-93796621D01*
X146389842Y-93843114D01*
X146337500Y-93854500D01*
X145963807Y-93854500D01*
X145895686Y-93834498D01*
X145861037Y-93801399D01*
X145835416Y-93765280D01*
X145835413Y-93765276D01*
X145831946Y-93760389D01*
X145679150Y-93614119D01*
X145673255Y-93610312D01*
X145646837Y-93593254D01*
X145600460Y-93539499D01*
X145590507Y-93469203D01*
X145620139Y-93404686D01*
X145637353Y-93388317D01*
X145752202Y-93298102D01*
X145756920Y-93294396D01*
X145760852Y-93289865D01*
X145760855Y-93289862D01*
X145891621Y-93139167D01*
X145895552Y-93134637D01*
X145898552Y-93129451D01*
X145898555Y-93129447D01*
X145998467Y-92956742D01*
X146001473Y-92951546D01*
X146070861Y-92751729D01*
X146101213Y-92542396D01*
X146091433Y-92331101D01*
X146041875Y-92125466D01*
X145954326Y-91932913D01*
X145831946Y-91760389D01*
X145679150Y-91614119D01*
X145501452Y-91499380D01*
X145434779Y-91472510D01*
X145310832Y-91422558D01*
X145310829Y-91422557D01*
X145305263Y-91420314D01*
X145097663Y-91379772D01*
X145092101Y-91379500D01*
X144486154Y-91379500D01*
X144328434Y-91394548D01*
X144125466Y-91454092D01*
X144120139Y-91456836D01*
X144120138Y-91456836D01*
X143942751Y-91548196D01*
X143942748Y-91548198D01*
X143937420Y-91550942D01*
X143846981Y-91621983D01*
X143845289Y-91623312D01*
X143779364Y-91649662D01*
X143709657Y-91636187D01*
X143688757Y-91621263D01*
X143688189Y-91621983D01*
X143683480Y-91618264D01*
X143679150Y-91614119D01*
X143501452Y-91499380D01*
X143434779Y-91472510D01*
X143310832Y-91422558D01*
X143310829Y-91422557D01*
X143305263Y-91420314D01*
X143097663Y-91379772D01*
X143092101Y-91379500D01*
X142486154Y-91379500D01*
X142328434Y-91394548D01*
X142125466Y-91454092D01*
X142120139Y-91456836D01*
X142120138Y-91456836D01*
X142045201Y-91495431D01*
X141975482Y-91508840D01*
X141909582Y-91482427D01*
X141898414Y-91472510D01*
X140370405Y-89944500D01*
X140336379Y-89882188D01*
X140333500Y-89855405D01*
X140333500Y-87627500D01*
X140353502Y-87559379D01*
X140407158Y-87512886D01*
X140459500Y-87501500D01*
X143651205Y-87501500D01*
X143719326Y-87521502D01*
G37*
%TD.AperFunction*%
%TD*%
M02*
