%TF.GenerationSoftware,KiCad,Pcbnew,6.0.11+dfsg-1*%
%TF.CreationDate,2023-11-21T20:36:44-08:00*%
%TF.ProjectId,xbox_dvd_delete,78626f78-5f64-4766-945f-64656c657465,rev?*%
%TF.SameCoordinates,Original*%
%TF.FileFunction,Copper,L2,Bot*%
%TF.FilePolarity,Positive*%
%FSLAX46Y46*%
G04 Gerber Fmt 4.6, Leading zero omitted, Abs format (unit mm)*
G04 Created by KiCad (PCBNEW 6.0.11+dfsg-1) date 2023-11-21 20:36:44*
%MOMM*%
%LPD*%
G01*
G04 APERTURE LIST*
G04 Aperture macros list*
%AMRoundRect*
0 Rectangle with rounded corners*
0 $1 Rounding radius*
0 $2 $3 $4 $5 $6 $7 $8 $9 X,Y pos of 4 corners*
0 Add a 4 corners polygon primitive as box body*
4,1,4,$2,$3,$4,$5,$6,$7,$8,$9,$2,$3,0*
0 Add four circle primitives for the rounded corners*
1,1,$1+$1,$2,$3*
1,1,$1+$1,$4,$5*
1,1,$1+$1,$6,$7*
1,1,$1+$1,$8,$9*
0 Add four rect primitives between the rounded corners*
20,1,$1+$1,$2,$3,$4,$5,0*
20,1,$1+$1,$4,$5,$6,$7,0*
20,1,$1+$1,$6,$7,$8,$9,0*
20,1,$1+$1,$8,$9,$2,$3,0*%
G04 Aperture macros list end*
%TA.AperFunction,ComponentPad*%
%ADD10RoundRect,0.250000X0.575000X-0.350000X0.575000X0.350000X-0.575000X0.350000X-0.575000X-0.350000X0*%
%TD*%
%TA.AperFunction,ComponentPad*%
%ADD11O,1.650000X1.200000*%
%TD*%
%TA.AperFunction,ViaPad*%
%ADD12C,0.800000*%
%TD*%
G04 APERTURE END LIST*
D10*
%TO.P,J1,1,Pin_1*%
%TO.N,unconnected-(J1-Pad1)*%
X144764000Y-100488000D03*
D11*
%TO.P,J1,2,Pin_2*%
%TO.N,unconnected-(J1-Pad2)*%
X142764000Y-100488000D03*
%TO.P,J1,3,Pin_3*%
%TO.N,Net-(J1-Pad11)*%
X144764000Y-98488000D03*
%TO.P,J1,4,Pin_4*%
%TO.N,unconnected-(J1-Pad4)*%
X142764000Y-98488000D03*
%TO.P,J1,5,Pin_5*%
%TO.N,Net-(J1-Pad5)*%
X144764000Y-96488000D03*
%TO.P,J1,6,Pin_6*%
%TO.N,Net-(J1-Pad6)*%
X142764000Y-96488000D03*
%TO.P,J1,7,Pin_7*%
%TO.N,Net-(J1-Pad7)*%
X144764000Y-94488000D03*
%TO.P,J1,8,Pin_8*%
%TO.N,Net-(J1-Pad8)*%
X142764000Y-94488000D03*
%TO.P,J1,9,Pin_9*%
%TO.N,unconnected-(J1-Pad9)*%
X144764000Y-92488000D03*
%TO.P,J1,10,Pin_10*%
%TO.N,Net-(J1-Pad10)*%
X142764000Y-92488000D03*
%TO.P,J1,11,Pin_11*%
%TO.N,Net-(J1-Pad11)*%
X144764000Y-90488000D03*
%TO.P,J1,12,Pin_12*%
X142764000Y-90488000D03*
%TO.P,J1,13,Pin_13*%
%TO.N,unconnected-(J1-Pad13)*%
X144764000Y-88488000D03*
%TD*%
D12*
%TO.N,Net-(J1-Pad11)*%
X146304000Y-95631000D03*
X141097000Y-95377000D03*
X141097000Y-88519000D03*
X147193000Y-101600000D03*
X140335000Y-101600000D03*
%TD*%
%TA.AperFunction,Conductor*%
%TO.N,Net-(J1-Pad11)*%
G36*
X148023621Y-86507502D02*
G01*
X148070114Y-86561158D01*
X148081500Y-86613500D01*
X148081500Y-102362500D01*
X148061498Y-102430621D01*
X148007842Y-102477114D01*
X147955500Y-102488500D01*
X139572500Y-102488500D01*
X139504379Y-102468498D01*
X139457886Y-102414842D01*
X139446500Y-102362500D01*
X139446500Y-100433604D01*
X141426787Y-100433604D01*
X141436567Y-100644899D01*
X141486125Y-100850534D01*
X141488607Y-100855992D01*
X141488608Y-100855996D01*
X141540916Y-100971041D01*
X141573674Y-101043087D01*
X141696054Y-101215611D01*
X141848850Y-101361881D01*
X142026548Y-101476620D01*
X142032114Y-101478863D01*
X142217168Y-101553442D01*
X142217171Y-101553443D01*
X142222737Y-101555686D01*
X142430337Y-101596228D01*
X142435899Y-101596500D01*
X143041846Y-101596500D01*
X143199566Y-101581452D01*
X143402534Y-101521908D01*
X143559343Y-101441146D01*
X143585631Y-101427607D01*
X143655350Y-101414198D01*
X143715135Y-101438217D01*
X143715697Y-101437305D01*
X143720996Y-101440572D01*
X143720999Y-101440573D01*
X143813299Y-101497468D01*
X143859090Y-101525694D01*
X143866262Y-101530115D01*
X143936591Y-101553442D01*
X144027611Y-101583632D01*
X144027613Y-101583632D01*
X144034139Y-101585797D01*
X144040975Y-101586497D01*
X144040978Y-101586498D01*
X144084031Y-101590909D01*
X144138600Y-101596500D01*
X145389400Y-101596500D01*
X145392646Y-101596163D01*
X145392650Y-101596163D01*
X145488308Y-101586238D01*
X145488312Y-101586237D01*
X145495166Y-101585526D01*
X145501702Y-101583345D01*
X145501704Y-101583345D01*
X145633806Y-101539272D01*
X145662946Y-101529550D01*
X145813348Y-101436478D01*
X145938305Y-101311303D01*
X145942146Y-101305072D01*
X146027275Y-101166968D01*
X146027276Y-101166966D01*
X146031115Y-101160738D01*
X146086797Y-100992861D01*
X146097500Y-100888400D01*
X146097500Y-100087600D01*
X146097163Y-100084350D01*
X146087238Y-99988692D01*
X146087237Y-99988688D01*
X146086526Y-99981834D01*
X146030550Y-99814054D01*
X145937478Y-99663652D01*
X145812303Y-99538695D01*
X145748523Y-99499380D01*
X145667968Y-99449725D01*
X145667966Y-99449724D01*
X145661738Y-99445885D01*
X145501254Y-99392655D01*
X145500389Y-99392368D01*
X145500387Y-99392368D01*
X145493861Y-99390203D01*
X145487025Y-99389503D01*
X145487022Y-99389502D01*
X145443969Y-99385091D01*
X145389400Y-99379500D01*
X144138600Y-99379500D01*
X144135354Y-99379837D01*
X144135350Y-99379837D01*
X144039692Y-99389762D01*
X144039688Y-99389763D01*
X144032834Y-99390474D01*
X144026298Y-99392655D01*
X144026296Y-99392655D01*
X143964053Y-99413421D01*
X143893103Y-99416005D01*
X143832020Y-99379821D01*
X143800195Y-99316357D01*
X143807734Y-99245762D01*
X143829009Y-99211321D01*
X143895552Y-99134637D01*
X143898552Y-99129451D01*
X143898555Y-99129447D01*
X143998467Y-98956742D01*
X144001473Y-98951546D01*
X144070861Y-98751729D01*
X144101213Y-98542396D01*
X144091433Y-98331101D01*
X144041875Y-98125466D01*
X143998525Y-98030122D01*
X143956806Y-97938368D01*
X143954326Y-97932913D01*
X143831946Y-97760389D01*
X143679150Y-97614119D01*
X143673255Y-97610312D01*
X143646837Y-97593254D01*
X143600460Y-97539499D01*
X143590507Y-97469203D01*
X143620139Y-97404686D01*
X143637353Y-97388317D01*
X143644446Y-97382746D01*
X143682711Y-97352688D01*
X143748637Y-97326338D01*
X143818343Y-97339813D01*
X143839243Y-97354737D01*
X143839811Y-97354017D01*
X143844520Y-97357736D01*
X143848850Y-97361881D01*
X144026548Y-97476620D01*
X144032114Y-97478863D01*
X144217168Y-97553442D01*
X144217171Y-97553443D01*
X144222737Y-97555686D01*
X144430337Y-97596228D01*
X144435899Y-97596500D01*
X145041846Y-97596500D01*
X145199566Y-97581452D01*
X145402534Y-97521908D01*
X145446275Y-97499380D01*
X145585249Y-97427804D01*
X145585252Y-97427802D01*
X145590580Y-97425058D01*
X145756920Y-97294396D01*
X145760852Y-97289865D01*
X145760855Y-97289862D01*
X145891621Y-97139167D01*
X145895552Y-97134637D01*
X145898552Y-97129451D01*
X145898555Y-97129447D01*
X145998467Y-96956742D01*
X146001473Y-96951546D01*
X146070861Y-96751729D01*
X146101213Y-96542396D01*
X146091433Y-96331101D01*
X146041875Y-96125466D01*
X145998525Y-96030122D01*
X145956806Y-95938368D01*
X145954326Y-95932913D01*
X145831946Y-95760389D01*
X145679150Y-95614119D01*
X145673255Y-95610312D01*
X145646837Y-95593254D01*
X145600460Y-95539499D01*
X145590507Y-95469203D01*
X145620139Y-95404686D01*
X145637353Y-95388317D01*
X145644446Y-95382746D01*
X145756920Y-95294396D01*
X145760852Y-95289865D01*
X145760855Y-95289862D01*
X145891621Y-95139167D01*
X145895552Y-95134637D01*
X145898552Y-95129451D01*
X145898555Y-95129447D01*
X145998467Y-94956742D01*
X146001473Y-94951546D01*
X146070861Y-94751729D01*
X146101213Y-94542396D01*
X146091433Y-94331101D01*
X146041875Y-94125466D01*
X145998525Y-94030122D01*
X145956806Y-93938368D01*
X145954326Y-93932913D01*
X145831946Y-93760389D01*
X145679150Y-93614119D01*
X145673255Y-93610312D01*
X145646837Y-93593254D01*
X145600460Y-93539499D01*
X145590507Y-93469203D01*
X145620139Y-93404686D01*
X145637353Y-93388317D01*
X145644446Y-93382746D01*
X145756920Y-93294396D01*
X145760852Y-93289865D01*
X145760855Y-93289862D01*
X145891621Y-93139167D01*
X145895552Y-93134637D01*
X145898552Y-93129451D01*
X145898555Y-93129447D01*
X145998467Y-92956742D01*
X146001473Y-92951546D01*
X146070861Y-92751729D01*
X146101213Y-92542396D01*
X146091433Y-92331101D01*
X146041875Y-92125466D01*
X145998525Y-92030122D01*
X145956806Y-91938368D01*
X145954326Y-91932913D01*
X145831946Y-91760389D01*
X145679150Y-91614119D01*
X145501452Y-91499380D01*
X145441354Y-91475160D01*
X145310832Y-91422558D01*
X145310829Y-91422557D01*
X145305263Y-91420314D01*
X145097663Y-91379772D01*
X145092101Y-91379500D01*
X144486154Y-91379500D01*
X144328434Y-91394548D01*
X144125466Y-91454092D01*
X144120139Y-91456836D01*
X144120138Y-91456836D01*
X143942751Y-91548196D01*
X143942748Y-91548198D01*
X143937420Y-91550942D01*
X143846981Y-91621983D01*
X143845289Y-91623312D01*
X143779364Y-91649662D01*
X143709657Y-91636187D01*
X143688757Y-91621263D01*
X143688189Y-91621983D01*
X143683480Y-91618264D01*
X143679150Y-91614119D01*
X143501452Y-91499380D01*
X143441354Y-91475160D01*
X143310832Y-91422558D01*
X143310829Y-91422557D01*
X143305263Y-91420314D01*
X143097663Y-91379772D01*
X143092101Y-91379500D01*
X142486154Y-91379500D01*
X142328434Y-91394548D01*
X142125466Y-91454092D01*
X142120139Y-91456836D01*
X142120138Y-91456836D01*
X141942751Y-91548196D01*
X141942748Y-91548198D01*
X141937420Y-91550942D01*
X141771080Y-91681604D01*
X141767148Y-91686135D01*
X141767145Y-91686138D01*
X141698474Y-91765275D01*
X141632448Y-91841363D01*
X141629448Y-91846549D01*
X141629445Y-91846553D01*
X141582312Y-91928026D01*
X141526527Y-92024454D01*
X141457139Y-92224271D01*
X141426787Y-92433604D01*
X141436567Y-92644899D01*
X141486125Y-92850534D01*
X141488607Y-92855992D01*
X141488608Y-92855996D01*
X141532053Y-92951546D01*
X141573674Y-93043087D01*
X141696054Y-93215611D01*
X141848850Y-93361881D01*
X141853888Y-93365134D01*
X141881163Y-93382746D01*
X141927540Y-93436501D01*
X141937493Y-93506797D01*
X141907861Y-93571314D01*
X141890649Y-93587681D01*
X141771080Y-93681604D01*
X141767148Y-93686135D01*
X141767145Y-93686138D01*
X141698474Y-93765275D01*
X141632448Y-93841363D01*
X141629448Y-93846549D01*
X141629445Y-93846553D01*
X141582312Y-93928026D01*
X141526527Y-94024454D01*
X141457139Y-94224271D01*
X141426787Y-94433604D01*
X141436567Y-94644899D01*
X141486125Y-94850534D01*
X141488607Y-94855992D01*
X141488608Y-94855996D01*
X141532053Y-94951546D01*
X141573674Y-95043087D01*
X141696054Y-95215611D01*
X141848850Y-95361881D01*
X141853888Y-95365134D01*
X141881163Y-95382746D01*
X141927540Y-95436501D01*
X141937493Y-95506797D01*
X141907861Y-95571314D01*
X141890649Y-95587681D01*
X141771080Y-95681604D01*
X141767148Y-95686135D01*
X141767145Y-95686138D01*
X141698474Y-95765275D01*
X141632448Y-95841363D01*
X141629448Y-95846549D01*
X141629445Y-95846553D01*
X141582312Y-95928026D01*
X141526527Y-96024454D01*
X141457139Y-96224271D01*
X141426787Y-96433604D01*
X141436567Y-96644899D01*
X141486125Y-96850534D01*
X141488607Y-96855992D01*
X141488608Y-96855996D01*
X141532053Y-96951546D01*
X141573674Y-97043087D01*
X141696054Y-97215611D01*
X141848850Y-97361881D01*
X141853885Y-97365132D01*
X141853888Y-97365134D01*
X141881163Y-97382746D01*
X141927540Y-97436501D01*
X141937493Y-97506797D01*
X141907861Y-97571314D01*
X141890649Y-97587681D01*
X141771080Y-97681604D01*
X141767148Y-97686135D01*
X141767145Y-97686138D01*
X141698474Y-97765275D01*
X141632448Y-97841363D01*
X141629448Y-97846549D01*
X141629445Y-97846553D01*
X141582312Y-97928026D01*
X141526527Y-98024454D01*
X141457139Y-98224271D01*
X141426787Y-98433604D01*
X141436567Y-98644899D01*
X141486125Y-98850534D01*
X141488607Y-98855992D01*
X141488608Y-98855996D01*
X141532053Y-98951546D01*
X141573674Y-99043087D01*
X141696054Y-99215611D01*
X141848850Y-99361881D01*
X141853888Y-99365134D01*
X141881163Y-99382746D01*
X141927540Y-99436501D01*
X141937493Y-99506797D01*
X141907861Y-99571314D01*
X141890649Y-99587681D01*
X141771080Y-99681604D01*
X141767148Y-99686135D01*
X141767145Y-99686138D01*
X141661552Y-99807824D01*
X141632448Y-99841363D01*
X141629448Y-99846549D01*
X141629445Y-99846553D01*
X141554966Y-99975296D01*
X141526527Y-100024454D01*
X141457139Y-100224271D01*
X141426787Y-100433604D01*
X139446500Y-100433604D01*
X139446500Y-88433604D01*
X143426787Y-88433604D01*
X143436567Y-88644899D01*
X143486125Y-88850534D01*
X143488607Y-88855992D01*
X143488608Y-88855996D01*
X143532053Y-88951546D01*
X143573674Y-89043087D01*
X143696054Y-89215611D01*
X143848850Y-89361881D01*
X144026548Y-89476620D01*
X144032114Y-89478863D01*
X144217168Y-89553442D01*
X144217171Y-89553443D01*
X144222737Y-89555686D01*
X144430337Y-89596228D01*
X144435899Y-89596500D01*
X145041846Y-89596500D01*
X145199566Y-89581452D01*
X145402534Y-89521908D01*
X145486111Y-89478863D01*
X145585249Y-89427804D01*
X145585252Y-89427802D01*
X145590580Y-89425058D01*
X145756920Y-89294396D01*
X145760852Y-89289865D01*
X145760855Y-89289862D01*
X145891621Y-89139167D01*
X145895552Y-89134637D01*
X145898552Y-89129451D01*
X145898555Y-89129447D01*
X145998467Y-88956742D01*
X146001473Y-88951546D01*
X146070861Y-88751729D01*
X146101213Y-88542396D01*
X146091433Y-88331101D01*
X146041875Y-88125466D01*
X145998525Y-88030122D01*
X145956806Y-87938368D01*
X145954326Y-87932913D01*
X145831946Y-87760389D01*
X145679150Y-87614119D01*
X145501452Y-87499380D01*
X145441354Y-87475160D01*
X145310832Y-87422558D01*
X145310829Y-87422557D01*
X145305263Y-87420314D01*
X145097663Y-87379772D01*
X145092101Y-87379500D01*
X144486154Y-87379500D01*
X144328434Y-87394548D01*
X144125466Y-87454092D01*
X144120139Y-87456836D01*
X144120138Y-87456836D01*
X143942751Y-87548196D01*
X143942748Y-87548198D01*
X143937420Y-87550942D01*
X143771080Y-87681604D01*
X143767148Y-87686135D01*
X143767145Y-87686138D01*
X143698474Y-87765275D01*
X143632448Y-87841363D01*
X143629448Y-87846549D01*
X143629445Y-87846553D01*
X143582312Y-87928026D01*
X143526527Y-88024454D01*
X143457139Y-88224271D01*
X143426787Y-88433604D01*
X139446500Y-88433604D01*
X139446500Y-86613500D01*
X139466502Y-86545379D01*
X139520158Y-86498886D01*
X139572500Y-86487500D01*
X147955500Y-86487500D01*
X148023621Y-86507502D01*
G37*
%TD.AperFunction*%
%TD*%
M02*
