M48
; DRILL file {KiCad 6.0.11+dfsg-1} date Tue 21 Nov 2023 08:36:50 PM PST
; FORMAT={-:-/ absolute / inch / decimal}
; #@! TF.CreationDate,2023-11-21T20:36:50-08:00
; #@! TF.GenerationSoftware,Kicad,Pcbnew,6.0.11+dfsg-1
; #@! TF.FileFunction,Plated,1,2,PTH
FMAT,2
INCH
; #@! TA.AperFunction,Plated,PTH,ViaDrill
T1C0.0157
; #@! TA.AperFunction,Plated,PTH,ComponentDrill
T2C0.0394
%
G90
G05
T1
X5.525Y-4.0
X5.555Y-3.485
X5.555Y-3.755
X5.76Y-3.765
X5.795Y-4.0
T2
G00X5.6167Y-3.5625
M15
G01X5.6246Y-3.5625
M16
G05
G00X5.6167Y-3.6413
M15
G01X5.6246Y-3.6413
M16
G05
G00X5.6167Y-3.72
M15
G01X5.6246Y-3.72
M16
G05
G00X5.6167Y-3.7987
M15
G01X5.6246Y-3.7987
M16
G05
G00X5.6167Y-3.8775
M15
G01X5.6246Y-3.8775
M16
G05
G00X5.6167Y-3.9562
M15
G01X5.6246Y-3.9562
M16
G05
G00X5.6954Y-3.4838
M15
G01X5.7033Y-3.4838
M16
G05
G00X5.6954Y-3.5625
M15
G01X5.7033Y-3.5625
M16
G05
G00X5.6954Y-3.6413
M15
G01X5.7033Y-3.6413
M16
G05
G00X5.6954Y-3.72
M15
G01X5.7033Y-3.72
M16
G05
G00X5.6954Y-3.7987
M15
G01X5.7033Y-3.7987
M16
G05
G00X5.6954Y-3.8775
M15
G01X5.7033Y-3.8775
M16
G05
G00X5.6954Y-3.9562
M15
G01X5.7033Y-3.9562
M16
G05
T0
M30
