M48
; DRILL file {KiCad 6.0.2+dfsg-1} date Sat 11 Nov 2023 04:32:39 PM PST
; FORMAT={-:-/ absolute / inch / decimal}
; #@! TF.CreationDate,2023-11-11T16:32:39-08:00
; #@! TF.GenerationSoftware,Kicad,Pcbnew,6.0.2+dfsg-1
; #@! TF.FileFunction,Plated,1,2,PTH
FMAT,2
INCH
; #@! TA.AperFunction,Plated,PTH,ViaDrill
T1C0.0157
; #@! TA.AperFunction,Plated,PTH,ComponentDrill
T2C0.0394
%
G90
G05
T1
X5.45Y-3.34
X5.525Y-2.275
X5.525Y-2.325
X5.525Y-2.375
X5.54Y-2.74
X5.585Y-2.28
X5.585Y-2.365
X5.61Y-2.69
X5.61Y-2.74
X5.635Y-2.28
X5.66Y-2.375
X5.685Y-2.325
X5.715Y-3.21
X5.745Y-2.69
X5.745Y-2.85
X5.745Y-3.06
X5.745Y-3.34
T2
G00X5.5317Y-2.8925
M15
G01X5.5396Y-2.8925
M16
G05
G00X5.5317Y-2.9713
M15
G01X5.5396Y-2.9713
M16
G05
G00X5.5317Y-3.05
M15
G01X5.5396Y-3.05
M16
G05
G00X5.5317Y-3.1287
M15
G01X5.5396Y-3.1287
M16
G05
G00X5.5317Y-3.2075
M15
G01X5.5396Y-3.2075
M16
G05
G00X5.5317Y-3.2862
M15
G01X5.5396Y-3.2862
M16
G05
G00X5.6104Y-2.8138
M15
G01X5.6183Y-2.8138
M16
G05
G00X5.6104Y-2.8925
M15
G01X5.6183Y-2.8925
M16
G05
G00X5.6104Y-2.9713
M15
G01X5.6183Y-2.9713
M16
G05
G00X5.6104Y-3.05
M15
G01X5.6183Y-3.05
M16
G05
G00X5.6104Y-3.1287
M15
G01X5.6183Y-3.1287
M16
G05
G00X5.6104Y-3.2075
M15
G01X5.6183Y-3.2075
M16
G05
G00X5.6104Y-3.2862
M15
G01X5.6183Y-3.2862
M16
G05
T0
M30
