%TF.GenerationSoftware,KiCad,Pcbnew,6.0.2+dfsg-1*%
%TF.CreationDate,2023-11-11T16:32:34-08:00*%
%TF.ProjectId,xbox_tray_emulator,78626f78-5f74-4726-9179-5f656d756c61,rev?*%
%TF.SameCoordinates,Original*%
%TF.FileFunction,Copper,L1,Top*%
%TF.FilePolarity,Positive*%
%FSLAX46Y46*%
G04 Gerber Fmt 4.6, Leading zero omitted, Abs format (unit mm)*
G04 Created by KiCad (PCBNEW 6.0.2+dfsg-1) date 2023-11-11 16:32:34*
%MOMM*%
%LPD*%
G01*
G04 APERTURE LIST*
G04 Aperture macros list*
%AMRoundRect*
0 Rectangle with rounded corners*
0 $1 Rounding radius*
0 $2 $3 $4 $5 $6 $7 $8 $9 X,Y pos of 4 corners*
0 Add a 4 corners polygon primitive as box body*
4,1,4,$2,$3,$4,$5,$6,$7,$8,$9,$2,$3,0*
0 Add four circle primitives for the rounded corners*
1,1,$1+$1,$2,$3*
1,1,$1+$1,$4,$5*
1,1,$1+$1,$6,$7*
1,1,$1+$1,$8,$9*
0 Add four rect primitives between the rounded corners*
20,1,$1+$1,$2,$3,$4,$5,0*
20,1,$1+$1,$4,$5,$6,$7,0*
20,1,$1+$1,$6,$7,$8,$9,0*
20,1,$1+$1,$8,$9,$2,$3,0*%
G04 Aperture macros list end*
%TA.AperFunction,SMDPad,CuDef*%
%ADD10RoundRect,0.250000X-0.337500X-0.475000X0.337500X-0.475000X0.337500X0.475000X-0.337500X0.475000X0*%
%TD*%
%TA.AperFunction,SMDPad,CuDef*%
%ADD11RoundRect,0.250000X-0.350000X-0.450000X0.350000X-0.450000X0.350000X0.450000X-0.350000X0.450000X0*%
%TD*%
%TA.AperFunction,SMDPad,CuDef*%
%ADD12RoundRect,0.150000X0.587500X0.150000X-0.587500X0.150000X-0.587500X-0.150000X0.587500X-0.150000X0*%
%TD*%
%TA.AperFunction,SMDPad,CuDef*%
%ADD13R,1.700000X0.650000*%
%TD*%
%TA.AperFunction,ComponentPad*%
%ADD14O,1.650000X1.200000*%
%TD*%
%TA.AperFunction,ViaPad*%
%ADD15C,0.800000*%
%TD*%
%TA.AperFunction,Conductor*%
%ADD16C,0.250000*%
%TD*%
%TA.AperFunction,Conductor*%
%ADD17C,0.400000*%
%TD*%
G04 APERTURE END LIST*
D10*
%TO.P,C1,1*%
%TO.N,/Net-(R1-Pad1)*%
X142726500Y-63881000D03*
%TO.P,C1,2*%
%TO.N,Net-(C1-Pad2)*%
X144801500Y-63881000D03*
%TD*%
D11*
%TO.P,R1,1*%
%TO.N,/Net-(R1-Pad1)*%
X138573000Y-63881000D03*
%TO.P,R1,2*%
%TO.N,Net-(R1-Pad2)*%
X140573000Y-63881000D03*
%TD*%
D12*
%TO.P,U2,1,GND*%
%TO.N,Net-(C1-Pad2)*%
X140383500Y-67879000D03*
%TO.P,U2,2,VO*%
%TO.N,/Net-(R1-Pad1)*%
X140383500Y-65979000D03*
%TO.P,U2,3,VI*%
%TO.N,/Net-(J1-Pad10)*%
X138508500Y-66929000D03*
%TD*%
D10*
%TO.P,C2,1*%
%TO.N,/Net-(J1-Pad10)*%
X142726500Y-66421000D03*
%TO.P,C2,2*%
%TO.N,Net-(C1-Pad2)*%
X144801500Y-66421000D03*
%TD*%
D13*
%TO.P,U1,1,~{RESET}/PB5*%
%TO.N,Net-(R1-Pad2)*%
X145890000Y-61595000D03*
%TO.P,U1,2,PB3*%
%TO.N,Net-(J1-Pad7)*%
X145890000Y-60325000D03*
%TO.P,U1,3,PB4*%
%TO.N,Net-(J1-Pad5)*%
X145890000Y-59055000D03*
%TO.P,U1,4,GND*%
%TO.N,Net-(C1-Pad2)*%
X145890000Y-57785000D03*
%TO.P,U1,5,PB0*%
%TO.N,Net-(J1-Pad4)*%
X138590000Y-57785000D03*
%TO.P,U1,6,PB1*%
%TO.N,Net-(J1-Pad6)*%
X138590000Y-59055000D03*
%TO.P,U1,7,PB2*%
%TO.N,Net-(J1-Pad8)*%
X138590000Y-60325000D03*
%TO.P,U1,8,VCC*%
%TO.N,/Net-(R1-Pad1)*%
X138590000Y-61595000D03*
%TD*%
D14*
%TO.P,J1,1,Pin_1*%
%TO.N,unconnected-(J1-Pad1)*%
X142605000Y-83470000D03*
%TO.P,J1,2,Pin_2*%
%TO.N,/Net-(J1-Pad10)*%
X140605000Y-83470000D03*
%TO.P,J1,3,Pin_3*%
%TO.N,Net-(C1-Pad2)*%
X142605000Y-81470000D03*
%TO.P,J1,4,Pin_4*%
%TO.N,Net-(J1-Pad4)*%
X140605000Y-81470000D03*
%TO.P,J1,5,Pin_5*%
%TO.N,Net-(J1-Pad5)*%
X142605000Y-79470000D03*
%TO.P,J1,6,Pin_6*%
%TO.N,Net-(J1-Pad6)*%
X140605000Y-79470000D03*
%TO.P,J1,7,Pin_7*%
%TO.N,Net-(J1-Pad7)*%
X142605000Y-77470000D03*
%TO.P,J1,8,Pin_8*%
%TO.N,Net-(J1-Pad8)*%
X140605000Y-77470000D03*
%TO.P,J1,9,Pin_9*%
%TO.N,unconnected-(J1-Pad9)*%
X142605000Y-75470000D03*
%TO.P,J1,10,Pin_10*%
%TO.N,/Net-(J1-Pad10)*%
X140605000Y-75470000D03*
%TO.P,J1,11,Pin_11*%
%TO.N,Net-(C1-Pad2)*%
X142605000Y-73470000D03*
%TO.P,J1,12,Pin_12*%
X140605000Y-73470000D03*
%TO.P,J1,13,Pin_13*%
%TO.N,unconnected-(J1-Pad13)*%
X142605000Y-71470000D03*
%TD*%
D15*
%TO.N,Net-(J1-Pad5)*%
X144399000Y-59055000D03*
%TO.N,Net-(J1-Pad6)*%
X140335000Y-59055000D03*
%TO.N,Net-(J1-Pad7)*%
X143764000Y-60325000D03*
%TO.N,Net-(J1-Pad8)*%
X140335000Y-60325000D03*
%TO.N,Net-(J1-Pad4)*%
X140335000Y-57785000D03*
%TO.N,Net-(C1-Pad2)*%
X141859000Y-60071000D03*
X145923000Y-84836000D03*
X145923000Y-72390000D03*
X142494000Y-68326000D03*
X143129000Y-57912000D03*
X142494000Y-69596000D03*
X138430000Y-84836000D03*
X145923000Y-77724000D03*
X145161000Y-81534000D03*
X141859000Y-57912000D03*
X140716000Y-69596000D03*
X145923000Y-68326000D03*
%TD*%
D16*
%TO.N,Net-(J1-Pad5)*%
X145890000Y-59055000D02*
X144399000Y-59055000D01*
%TO.N,Net-(J1-Pad6)*%
X138590000Y-59055000D02*
X140335000Y-59055000D01*
%TO.N,Net-(J1-Pad7)*%
X145890000Y-60325000D02*
X143764000Y-60325000D01*
%TO.N,Net-(J1-Pad8)*%
X138590000Y-60325000D02*
X140335000Y-60325000D01*
%TO.N,Net-(J1-Pad4)*%
X138590000Y-57785000D02*
X140335000Y-57785000D01*
%TO.N,Net-(R1-Pad2)*%
X141622520Y-64930520D02*
X140573000Y-63881000D01*
X145890000Y-64417493D02*
X145890000Y-61595000D01*
X145376973Y-64930520D02*
X145890000Y-64417493D01*
X141622520Y-64930520D02*
X145376973Y-64930520D01*
D17*
%TO.N,/Net-(R1-Pad1)*%
X142726500Y-63881000D02*
X142726500Y-62843500D01*
X138557000Y-63897000D02*
X138573000Y-63881000D01*
X139766000Y-65979000D02*
X138573000Y-64786000D01*
X138590000Y-64118000D02*
X138590000Y-61595000D01*
X141478000Y-61595000D02*
X138590000Y-61595000D01*
X142726500Y-62843500D02*
X141478000Y-61595000D01*
X138573000Y-64786000D02*
X138573000Y-63881000D01*
D16*
X140383500Y-65979000D02*
X139766000Y-65979000D01*
D17*
%TO.N,/Net-(J1-Pad10)*%
X138938000Y-75438000D02*
X138938000Y-67358500D01*
X138970000Y-75470000D02*
X140605000Y-75470000D01*
D16*
X138938000Y-75438000D02*
X138970000Y-75470000D01*
D17*
X138508500Y-66929000D02*
X142218500Y-66929000D01*
D16*
X138938000Y-67358500D02*
X138508500Y-66929000D01*
D17*
X138938000Y-81803000D02*
X138938000Y-75438000D01*
X140605000Y-83470000D02*
X138938000Y-81803000D01*
X142218500Y-66929000D02*
X142726500Y-66421000D01*
%TD*%
%TA.AperFunction,Conductor*%
%TO.N,Net-(C1-Pad2)*%
G36*
X143948992Y-67457002D02*
G01*
X143969888Y-67473826D01*
X143985828Y-67489738D01*
X143997240Y-67498751D01*
X144135243Y-67583816D01*
X144148424Y-67589963D01*
X144302710Y-67641138D01*
X144316086Y-67644005D01*
X144410438Y-67653672D01*
X144416854Y-67654000D01*
X144529385Y-67654000D01*
X144544624Y-67649525D01*
X144545829Y-67648135D01*
X144547500Y-67640452D01*
X144547500Y-67437000D01*
X145055500Y-67437000D01*
X145055500Y-67635884D01*
X145059975Y-67651123D01*
X145061365Y-67652328D01*
X145069048Y-67653999D01*
X145186095Y-67653999D01*
X145192614Y-67653662D01*
X145288206Y-67643743D01*
X145301600Y-67640851D01*
X145455784Y-67589412D01*
X145468962Y-67583239D01*
X145606807Y-67497937D01*
X145618208Y-67488901D01*
X145633101Y-67473982D01*
X145695384Y-67439903D01*
X145722274Y-67437000D01*
X146686000Y-67437000D01*
X146754121Y-67457002D01*
X146800614Y-67510658D01*
X146812000Y-67563000D01*
X146812000Y-85726000D01*
X146791998Y-85794121D01*
X146738342Y-85840614D01*
X146686000Y-85852000D01*
X137794000Y-85852000D01*
X137725879Y-85831998D01*
X137679386Y-85778342D01*
X137668000Y-85726000D01*
X137668000Y-67857748D01*
X137688002Y-67789627D01*
X137741658Y-67743134D01*
X137815169Y-67733981D01*
X137817169Y-67734562D01*
X137832278Y-67735751D01*
X137852042Y-67737307D01*
X137852050Y-67737307D01*
X137854498Y-67737500D01*
X138103500Y-67737500D01*
X138171621Y-67757502D01*
X138218114Y-67811158D01*
X138229500Y-67863500D01*
X138229500Y-81774088D01*
X138229208Y-81782658D01*
X138225275Y-81840352D01*
X138226580Y-81847829D01*
X138226580Y-81847830D01*
X138236261Y-81903299D01*
X138237223Y-81909821D01*
X138244898Y-81973242D01*
X138247581Y-81980343D01*
X138248222Y-81982952D01*
X138252685Y-81999262D01*
X138253450Y-82001798D01*
X138254757Y-82009284D01*
X138257811Y-82016241D01*
X138280442Y-82067795D01*
X138282933Y-82073899D01*
X138305513Y-82133656D01*
X138309817Y-82139919D01*
X138311054Y-82142285D01*
X138319299Y-82157097D01*
X138320632Y-82159351D01*
X138323685Y-82166305D01*
X138328307Y-82172328D01*
X138362579Y-82216991D01*
X138366459Y-82222332D01*
X138398339Y-82268720D01*
X138398344Y-82268725D01*
X138402643Y-82274981D01*
X138408313Y-82280032D01*
X138408314Y-82280034D01*
X138449170Y-82316435D01*
X138454446Y-82321416D01*
X139258687Y-83125657D01*
X139292713Y-83187969D01*
X139294288Y-83232831D01*
X139267787Y-83415604D01*
X139277567Y-83626899D01*
X139327125Y-83832534D01*
X139329607Y-83837992D01*
X139329608Y-83837996D01*
X139373053Y-83933546D01*
X139414674Y-84025087D01*
X139537054Y-84197611D01*
X139689850Y-84343881D01*
X139867548Y-84458620D01*
X139873114Y-84460863D01*
X140058168Y-84535442D01*
X140058171Y-84535443D01*
X140063737Y-84537686D01*
X140271337Y-84578228D01*
X140276899Y-84578500D01*
X140882846Y-84578500D01*
X141040566Y-84563452D01*
X141243534Y-84503908D01*
X141327111Y-84460863D01*
X141426249Y-84409804D01*
X141426252Y-84409802D01*
X141431580Y-84407058D01*
X141523711Y-84334688D01*
X141589636Y-84308338D01*
X141659343Y-84321813D01*
X141680243Y-84336737D01*
X141680811Y-84336017D01*
X141685520Y-84339736D01*
X141689850Y-84343881D01*
X141867548Y-84458620D01*
X141873114Y-84460863D01*
X142058168Y-84535442D01*
X142058171Y-84535443D01*
X142063737Y-84537686D01*
X142271337Y-84578228D01*
X142276899Y-84578500D01*
X142882846Y-84578500D01*
X143040566Y-84563452D01*
X143243534Y-84503908D01*
X143327111Y-84460863D01*
X143426249Y-84409804D01*
X143426252Y-84409802D01*
X143431580Y-84407058D01*
X143597920Y-84276396D01*
X143601852Y-84271865D01*
X143601855Y-84271862D01*
X143732621Y-84121167D01*
X143736552Y-84116637D01*
X143739552Y-84111451D01*
X143739555Y-84111447D01*
X143839467Y-83938742D01*
X143842473Y-83933546D01*
X143911861Y-83733729D01*
X143942213Y-83524396D01*
X143932433Y-83313101D01*
X143882875Y-83107466D01*
X143795326Y-82914913D01*
X143672946Y-82742389D01*
X143520150Y-82596119D01*
X143515119Y-82592870D01*
X143515112Y-82592865D01*
X143487393Y-82574967D01*
X143441016Y-82521211D01*
X143431063Y-82450915D01*
X143460696Y-82386398D01*
X143477909Y-82370030D01*
X143592857Y-82279738D01*
X143601506Y-82271501D01*
X143732212Y-82120877D01*
X143739147Y-82111153D01*
X143839010Y-81938533D01*
X143843984Y-81927669D01*
X143909407Y-81739273D01*
X143909648Y-81738284D01*
X143908180Y-81727992D01*
X143894615Y-81724000D01*
X142477000Y-81724000D01*
X142408879Y-81703998D01*
X142362386Y-81650342D01*
X142351000Y-81598000D01*
X142351000Y-81342000D01*
X142371002Y-81273879D01*
X142424658Y-81227386D01*
X142477000Y-81216000D01*
X143890402Y-81216000D01*
X143903933Y-81212027D01*
X143905288Y-81202601D01*
X143883806Y-81113463D01*
X143879917Y-81102168D01*
X143797371Y-80920618D01*
X143791424Y-80910276D01*
X143676032Y-80747603D01*
X143668239Y-80738575D01*
X143524169Y-80600658D01*
X143514800Y-80593259D01*
X143487423Y-80575582D01*
X143441045Y-80521828D01*
X143431091Y-80451532D01*
X143460722Y-80387015D01*
X143477937Y-80370644D01*
X143512008Y-80343881D01*
X143597920Y-80276396D01*
X143601852Y-80271865D01*
X143601855Y-80271862D01*
X143732621Y-80121167D01*
X143736552Y-80116637D01*
X143739552Y-80111451D01*
X143739555Y-80111447D01*
X143839467Y-79938742D01*
X143842473Y-79933546D01*
X143911861Y-79733729D01*
X143942213Y-79524396D01*
X143932433Y-79313101D01*
X143882875Y-79107466D01*
X143795326Y-78914913D01*
X143672946Y-78742389D01*
X143520150Y-78596119D01*
X143514255Y-78592312D01*
X143487837Y-78575254D01*
X143441460Y-78521499D01*
X143431507Y-78451203D01*
X143461139Y-78386686D01*
X143478353Y-78370317D01*
X143485446Y-78364746D01*
X143597920Y-78276396D01*
X143601852Y-78271865D01*
X143601855Y-78271862D01*
X143732621Y-78121167D01*
X143736552Y-78116637D01*
X143739552Y-78111451D01*
X143739555Y-78111447D01*
X143839467Y-77938742D01*
X143842473Y-77933546D01*
X143911861Y-77733729D01*
X143942213Y-77524396D01*
X143932433Y-77313101D01*
X143882875Y-77107466D01*
X143795326Y-76914913D01*
X143672946Y-76742389D01*
X143520150Y-76596119D01*
X143514255Y-76592312D01*
X143487837Y-76575254D01*
X143441460Y-76521499D01*
X143431507Y-76451203D01*
X143461139Y-76386686D01*
X143478353Y-76370317D01*
X143485446Y-76364746D01*
X143597920Y-76276396D01*
X143601852Y-76271865D01*
X143601855Y-76271862D01*
X143732621Y-76121167D01*
X143736552Y-76116637D01*
X143739552Y-76111451D01*
X143739555Y-76111447D01*
X143839467Y-75938742D01*
X143842473Y-75933546D01*
X143911861Y-75733729D01*
X143942213Y-75524396D01*
X143932433Y-75313101D01*
X143882875Y-75107466D01*
X143795326Y-74914913D01*
X143672946Y-74742389D01*
X143520150Y-74596119D01*
X143515119Y-74592870D01*
X143515112Y-74592865D01*
X143487393Y-74574967D01*
X143441016Y-74521211D01*
X143431063Y-74450915D01*
X143460696Y-74386398D01*
X143477909Y-74370030D01*
X143592857Y-74279738D01*
X143601506Y-74271501D01*
X143732212Y-74120877D01*
X143739147Y-74111153D01*
X143839010Y-73938533D01*
X143843984Y-73927669D01*
X143909407Y-73739273D01*
X143909648Y-73738284D01*
X143908180Y-73727992D01*
X143894615Y-73724000D01*
X140477000Y-73724000D01*
X140408879Y-73703998D01*
X140362386Y-73650342D01*
X140351000Y-73598000D01*
X140351000Y-73197885D01*
X140859000Y-73197885D01*
X140863475Y-73213124D01*
X140864865Y-73214329D01*
X140872548Y-73216000D01*
X143890402Y-73216000D01*
X143903933Y-73212027D01*
X143905288Y-73202601D01*
X143883806Y-73113463D01*
X143879917Y-73102168D01*
X143797371Y-72920618D01*
X143791424Y-72910276D01*
X143676032Y-72747603D01*
X143668239Y-72738575D01*
X143524169Y-72600658D01*
X143514800Y-72593259D01*
X143487423Y-72575582D01*
X143441045Y-72521828D01*
X143431091Y-72451532D01*
X143460722Y-72387015D01*
X143477937Y-72370644D01*
X143487486Y-72363143D01*
X143597920Y-72276396D01*
X143601852Y-72271865D01*
X143601855Y-72271862D01*
X143732621Y-72121167D01*
X143736552Y-72116637D01*
X143739552Y-72111451D01*
X143739555Y-72111447D01*
X143839467Y-71938742D01*
X143842473Y-71933546D01*
X143911861Y-71733729D01*
X143942213Y-71524396D01*
X143932433Y-71313101D01*
X143882875Y-71107466D01*
X143839525Y-71012122D01*
X143797806Y-70920368D01*
X143795326Y-70914913D01*
X143672946Y-70742389D01*
X143520150Y-70596119D01*
X143342452Y-70481380D01*
X143282354Y-70457160D01*
X143151832Y-70404558D01*
X143151829Y-70404557D01*
X143146263Y-70402314D01*
X142938663Y-70361772D01*
X142933101Y-70361500D01*
X142327154Y-70361500D01*
X142169434Y-70376548D01*
X141966466Y-70436092D01*
X141961139Y-70438836D01*
X141961138Y-70438836D01*
X141783751Y-70530196D01*
X141783748Y-70530198D01*
X141778420Y-70532942D01*
X141612080Y-70663604D01*
X141608148Y-70668135D01*
X141608145Y-70668138D01*
X141539474Y-70747275D01*
X141473448Y-70823363D01*
X141470448Y-70828549D01*
X141470445Y-70828553D01*
X141423312Y-70910026D01*
X141367527Y-71006454D01*
X141298139Y-71206271D01*
X141267787Y-71415604D01*
X141277567Y-71626899D01*
X141327125Y-71832534D01*
X141329607Y-71837992D01*
X141329608Y-71837996D01*
X141373053Y-71933546D01*
X141414674Y-72025087D01*
X141537054Y-72197611D01*
X141689850Y-72343881D01*
X141694881Y-72347130D01*
X141694888Y-72347135D01*
X141722607Y-72365033D01*
X141768984Y-72418789D01*
X141778937Y-72489085D01*
X141749304Y-72553602D01*
X141732090Y-72569971D01*
X141686255Y-72605974D01*
X141620329Y-72632323D01*
X141550623Y-72618848D01*
X141529408Y-72603699D01*
X141528874Y-72604375D01*
X141514800Y-72593259D01*
X141347259Y-72485079D01*
X141336655Y-72479583D01*
X141151688Y-72405039D01*
X141140230Y-72401645D01*
X140943072Y-72363143D01*
X140934209Y-72362066D01*
X140931500Y-72362000D01*
X140877115Y-72362000D01*
X140861876Y-72366475D01*
X140860671Y-72367865D01*
X140859000Y-72375548D01*
X140859000Y-73197885D01*
X140351000Y-73197885D01*
X140351000Y-72380115D01*
X140346525Y-72364876D01*
X140345135Y-72363671D01*
X140337452Y-72362000D01*
X140330168Y-72362000D01*
X140324192Y-72362285D01*
X140175506Y-72376471D01*
X140163772Y-72378730D01*
X139972401Y-72434872D01*
X139961325Y-72439302D01*
X139830192Y-72506840D01*
X139760473Y-72520249D01*
X139694573Y-72493836D01*
X139653414Y-72435987D01*
X139646500Y-72394824D01*
X139646500Y-68813000D01*
X139666502Y-68744879D01*
X139720158Y-68698386D01*
X139772500Y-68687000D01*
X140111385Y-68687000D01*
X140126624Y-68682525D01*
X140127829Y-68681135D01*
X140129500Y-68673452D01*
X140129500Y-68668884D01*
X140637500Y-68668884D01*
X140641975Y-68684123D01*
X140643365Y-68685328D01*
X140651048Y-68686999D01*
X141034984Y-68686999D01*
X141039920Y-68686805D01*
X141068336Y-68684570D01*
X141080931Y-68682270D01*
X141226790Y-68639893D01*
X141241221Y-68633648D01*
X141370678Y-68557089D01*
X141383104Y-68547449D01*
X141489449Y-68441104D01*
X141499089Y-68428678D01*
X141575648Y-68299221D01*
X141581893Y-68284790D01*
X141620939Y-68150395D01*
X141620899Y-68136294D01*
X141613630Y-68133000D01*
X140655615Y-68133000D01*
X140640376Y-68137475D01*
X140639171Y-68138865D01*
X140637500Y-68146548D01*
X140637500Y-68668884D01*
X140129500Y-68668884D01*
X140129500Y-67763500D01*
X140149502Y-67695379D01*
X140203158Y-67648886D01*
X140255500Y-67637500D01*
X142189588Y-67637500D01*
X142198152Y-67637792D01*
X142206079Y-67638332D01*
X142223916Y-67640840D01*
X142227615Y-67641633D01*
X142234139Y-67643797D01*
X142240972Y-67644497D01*
X142240976Y-67644498D01*
X142290044Y-67649525D01*
X142338600Y-67654500D01*
X143114400Y-67654500D01*
X143117646Y-67654163D01*
X143117650Y-67654163D01*
X143213308Y-67644238D01*
X143213312Y-67644237D01*
X143220166Y-67643526D01*
X143226702Y-67641345D01*
X143226704Y-67641345D01*
X143380998Y-67589868D01*
X143387946Y-67587550D01*
X143538348Y-67494478D01*
X143558808Y-67473983D01*
X143621090Y-67439903D01*
X143647981Y-67437000D01*
X143880871Y-67437000D01*
X143948992Y-67457002D01*
G37*
%TD.AperFunction*%
%TD*%
%TA.AperFunction,Conductor*%
%TO.N,Net-(C1-Pad2)*%
G36*
X146754121Y-62448502D02*
G01*
X146800614Y-62502158D01*
X146812000Y-62554500D01*
X146812000Y-85726000D01*
X146791998Y-85794121D01*
X146738342Y-85840614D01*
X146686000Y-85852000D01*
X137794000Y-85852000D01*
X137725879Y-85831998D01*
X137679386Y-85778342D01*
X137668000Y-85726000D01*
X137668000Y-67857748D01*
X137688002Y-67789627D01*
X137741658Y-67743134D01*
X137815169Y-67733981D01*
X137817169Y-67734562D01*
X137832278Y-67735751D01*
X137852042Y-67737307D01*
X137852050Y-67737307D01*
X137854498Y-67737500D01*
X138103500Y-67737500D01*
X138171621Y-67757502D01*
X138218114Y-67811158D01*
X138229500Y-67863500D01*
X138229500Y-81774088D01*
X138229208Y-81782658D01*
X138225275Y-81840352D01*
X138226580Y-81847829D01*
X138226580Y-81847830D01*
X138236261Y-81903299D01*
X138237223Y-81909821D01*
X138244898Y-81973242D01*
X138247581Y-81980343D01*
X138248222Y-81982952D01*
X138252685Y-81999262D01*
X138253450Y-82001798D01*
X138254757Y-82009284D01*
X138257811Y-82016241D01*
X138280442Y-82067795D01*
X138282933Y-82073899D01*
X138305513Y-82133656D01*
X138309817Y-82139919D01*
X138311054Y-82142285D01*
X138319299Y-82157097D01*
X138320632Y-82159351D01*
X138323685Y-82166305D01*
X138328307Y-82172328D01*
X138362579Y-82216991D01*
X138366459Y-82222332D01*
X138398339Y-82268720D01*
X138398344Y-82268725D01*
X138402643Y-82274981D01*
X138408313Y-82280032D01*
X138408314Y-82280034D01*
X138449170Y-82316435D01*
X138454446Y-82321416D01*
X139258687Y-83125657D01*
X139292713Y-83187969D01*
X139294288Y-83232831D01*
X139267787Y-83415604D01*
X139277567Y-83626899D01*
X139327125Y-83832534D01*
X139329607Y-83837992D01*
X139329608Y-83837996D01*
X139373053Y-83933546D01*
X139414674Y-84025087D01*
X139537054Y-84197611D01*
X139689850Y-84343881D01*
X139867548Y-84458620D01*
X139873114Y-84460863D01*
X140058168Y-84535442D01*
X140058171Y-84535443D01*
X140063737Y-84537686D01*
X140271337Y-84578228D01*
X140276899Y-84578500D01*
X140882846Y-84578500D01*
X141040566Y-84563452D01*
X141243534Y-84503908D01*
X141327111Y-84460863D01*
X141426249Y-84409804D01*
X141426252Y-84409802D01*
X141431580Y-84407058D01*
X141523711Y-84334688D01*
X141589636Y-84308338D01*
X141659343Y-84321813D01*
X141680243Y-84336737D01*
X141680811Y-84336017D01*
X141685520Y-84339736D01*
X141689850Y-84343881D01*
X141867548Y-84458620D01*
X141873114Y-84460863D01*
X142058168Y-84535442D01*
X142058171Y-84535443D01*
X142063737Y-84537686D01*
X142271337Y-84578228D01*
X142276899Y-84578500D01*
X142882846Y-84578500D01*
X143040566Y-84563452D01*
X143243534Y-84503908D01*
X143327111Y-84460863D01*
X143426249Y-84409804D01*
X143426252Y-84409802D01*
X143431580Y-84407058D01*
X143597920Y-84276396D01*
X143601852Y-84271865D01*
X143601855Y-84271862D01*
X143732621Y-84121167D01*
X143736552Y-84116637D01*
X143739552Y-84111451D01*
X143739555Y-84111447D01*
X143839467Y-83938742D01*
X143842473Y-83933546D01*
X143911861Y-83733729D01*
X143942213Y-83524396D01*
X143932433Y-83313101D01*
X143882875Y-83107466D01*
X143795326Y-82914913D01*
X143672946Y-82742389D01*
X143520150Y-82596119D01*
X143515119Y-82592870D01*
X143515112Y-82592865D01*
X143487393Y-82574967D01*
X143441016Y-82521211D01*
X143431063Y-82450915D01*
X143460696Y-82386398D01*
X143477909Y-82370030D01*
X143592857Y-82279738D01*
X143601506Y-82271501D01*
X143732212Y-82120877D01*
X143739147Y-82111153D01*
X143839010Y-81938533D01*
X143843984Y-81927669D01*
X143909407Y-81739273D01*
X143909648Y-81738284D01*
X143908180Y-81727992D01*
X143894615Y-81724000D01*
X142477000Y-81724000D01*
X142408879Y-81703998D01*
X142362386Y-81650342D01*
X142351000Y-81598000D01*
X142351000Y-81342000D01*
X142371002Y-81273879D01*
X142424658Y-81227386D01*
X142477000Y-81216000D01*
X143890402Y-81216000D01*
X143903933Y-81212027D01*
X143905288Y-81202601D01*
X143883806Y-81113463D01*
X143879917Y-81102168D01*
X143797371Y-80920618D01*
X143791424Y-80910276D01*
X143676032Y-80747603D01*
X143668239Y-80738575D01*
X143524169Y-80600658D01*
X143514800Y-80593259D01*
X143487423Y-80575582D01*
X143441045Y-80521828D01*
X143431091Y-80451532D01*
X143460722Y-80387015D01*
X143477937Y-80370644D01*
X143512008Y-80343881D01*
X143597920Y-80276396D01*
X143601852Y-80271865D01*
X143601855Y-80271862D01*
X143732621Y-80121167D01*
X143736552Y-80116637D01*
X143739552Y-80111451D01*
X143739555Y-80111447D01*
X143839467Y-79938742D01*
X143842473Y-79933546D01*
X143911861Y-79733729D01*
X143942213Y-79524396D01*
X143932433Y-79313101D01*
X143882875Y-79107466D01*
X143795326Y-78914913D01*
X143672946Y-78742389D01*
X143520150Y-78596119D01*
X143514255Y-78592312D01*
X143487837Y-78575254D01*
X143441460Y-78521499D01*
X143431507Y-78451203D01*
X143461139Y-78386686D01*
X143478353Y-78370317D01*
X143485446Y-78364746D01*
X143597920Y-78276396D01*
X143601852Y-78271865D01*
X143601855Y-78271862D01*
X143732621Y-78121167D01*
X143736552Y-78116637D01*
X143739552Y-78111451D01*
X143739555Y-78111447D01*
X143839467Y-77938742D01*
X143842473Y-77933546D01*
X143911861Y-77733729D01*
X143942213Y-77524396D01*
X143932433Y-77313101D01*
X143882875Y-77107466D01*
X143795326Y-76914913D01*
X143672946Y-76742389D01*
X143520150Y-76596119D01*
X143514255Y-76592312D01*
X143487837Y-76575254D01*
X143441460Y-76521499D01*
X143431507Y-76451203D01*
X143461139Y-76386686D01*
X143478353Y-76370317D01*
X143485446Y-76364746D01*
X143597920Y-76276396D01*
X143601852Y-76271865D01*
X143601855Y-76271862D01*
X143732621Y-76121167D01*
X143736552Y-76116637D01*
X143739552Y-76111451D01*
X143739555Y-76111447D01*
X143839467Y-75938742D01*
X143842473Y-75933546D01*
X143911861Y-75733729D01*
X143942213Y-75524396D01*
X143932433Y-75313101D01*
X143882875Y-75107466D01*
X143795326Y-74914913D01*
X143672946Y-74742389D01*
X143520150Y-74596119D01*
X143515119Y-74592870D01*
X143515112Y-74592865D01*
X143487393Y-74574967D01*
X143441016Y-74521211D01*
X143431063Y-74450915D01*
X143460696Y-74386398D01*
X143477909Y-74370030D01*
X143592857Y-74279738D01*
X143601506Y-74271501D01*
X143732212Y-74120877D01*
X143739147Y-74111153D01*
X143839010Y-73938533D01*
X143843984Y-73927669D01*
X143909407Y-73739273D01*
X143909648Y-73738284D01*
X143908180Y-73727992D01*
X143894615Y-73724000D01*
X140477000Y-73724000D01*
X140408879Y-73703998D01*
X140362386Y-73650342D01*
X140351000Y-73598000D01*
X140351000Y-73197885D01*
X140859000Y-73197885D01*
X140863475Y-73213124D01*
X140864865Y-73214329D01*
X140872548Y-73216000D01*
X143890402Y-73216000D01*
X143903933Y-73212027D01*
X143905288Y-73202601D01*
X143883806Y-73113463D01*
X143879917Y-73102168D01*
X143797371Y-72920618D01*
X143791424Y-72910276D01*
X143676032Y-72747603D01*
X143668239Y-72738575D01*
X143524169Y-72600658D01*
X143514800Y-72593259D01*
X143487423Y-72575582D01*
X143441045Y-72521828D01*
X143431091Y-72451532D01*
X143460722Y-72387015D01*
X143477937Y-72370644D01*
X143487486Y-72363143D01*
X143597920Y-72276396D01*
X143601852Y-72271865D01*
X143601855Y-72271862D01*
X143732621Y-72121167D01*
X143736552Y-72116637D01*
X143739552Y-72111451D01*
X143739555Y-72111447D01*
X143839467Y-71938742D01*
X143842473Y-71933546D01*
X143911861Y-71733729D01*
X143942213Y-71524396D01*
X143932433Y-71313101D01*
X143882875Y-71107466D01*
X143839525Y-71012122D01*
X143797806Y-70920368D01*
X143795326Y-70914913D01*
X143672946Y-70742389D01*
X143520150Y-70596119D01*
X143342452Y-70481380D01*
X143282354Y-70457160D01*
X143151832Y-70404558D01*
X143151829Y-70404557D01*
X143146263Y-70402314D01*
X142938663Y-70361772D01*
X142933101Y-70361500D01*
X142327154Y-70361500D01*
X142169434Y-70376548D01*
X141966466Y-70436092D01*
X141961139Y-70438836D01*
X141961138Y-70438836D01*
X141783751Y-70530196D01*
X141783748Y-70530198D01*
X141778420Y-70532942D01*
X141612080Y-70663604D01*
X141608148Y-70668135D01*
X141608145Y-70668138D01*
X141539474Y-70747275D01*
X141473448Y-70823363D01*
X141470448Y-70828549D01*
X141470445Y-70828553D01*
X141423312Y-70910026D01*
X141367527Y-71006454D01*
X141298139Y-71206271D01*
X141267787Y-71415604D01*
X141277567Y-71626899D01*
X141327125Y-71832534D01*
X141329607Y-71837992D01*
X141329608Y-71837996D01*
X141373053Y-71933546D01*
X141414674Y-72025087D01*
X141537054Y-72197611D01*
X141689850Y-72343881D01*
X141694881Y-72347130D01*
X141694888Y-72347135D01*
X141722607Y-72365033D01*
X141768984Y-72418789D01*
X141778937Y-72489085D01*
X141749304Y-72553602D01*
X141732090Y-72569971D01*
X141686255Y-72605974D01*
X141620329Y-72632323D01*
X141550623Y-72618848D01*
X141529408Y-72603699D01*
X141528874Y-72604375D01*
X141514800Y-72593259D01*
X141347259Y-72485079D01*
X141336655Y-72479583D01*
X141151688Y-72405039D01*
X141140230Y-72401645D01*
X140943072Y-72363143D01*
X140934209Y-72362066D01*
X140931500Y-72362000D01*
X140877115Y-72362000D01*
X140861876Y-72366475D01*
X140860671Y-72367865D01*
X140859000Y-72375548D01*
X140859000Y-73197885D01*
X140351000Y-73197885D01*
X140351000Y-72380115D01*
X140346525Y-72364876D01*
X140345135Y-72363671D01*
X140337452Y-72362000D01*
X140330168Y-72362000D01*
X140324192Y-72362285D01*
X140175506Y-72376471D01*
X140163772Y-72378730D01*
X139972401Y-72434872D01*
X139961325Y-72439302D01*
X139830192Y-72506840D01*
X139760473Y-72520249D01*
X139694573Y-72493836D01*
X139653414Y-72435987D01*
X139646500Y-72394824D01*
X139646500Y-67763500D01*
X139666502Y-67695379D01*
X139720158Y-67648886D01*
X139772500Y-67637500D01*
X142189588Y-67637500D01*
X142198152Y-67637792D01*
X142206079Y-67638332D01*
X142223916Y-67640840D01*
X142227615Y-67641633D01*
X142234139Y-67643797D01*
X142240972Y-67644497D01*
X142240976Y-67644498D01*
X142296852Y-67650222D01*
X142338600Y-67654500D01*
X143114400Y-67654500D01*
X143117646Y-67654163D01*
X143117650Y-67654163D01*
X143213308Y-67644238D01*
X143213312Y-67644237D01*
X143220166Y-67643526D01*
X143226702Y-67641345D01*
X143226704Y-67641345D01*
X143380998Y-67589868D01*
X143387946Y-67587550D01*
X143538348Y-67494478D01*
X143663305Y-67369303D01*
X143756115Y-67218738D01*
X143811797Y-67050861D01*
X143822500Y-66946400D01*
X143822500Y-65895600D01*
X143811526Y-65789834D01*
X143791529Y-65729896D01*
X143788945Y-65658947D01*
X143825128Y-65597863D01*
X143888592Y-65566038D01*
X143911053Y-65564020D01*
X145298206Y-65564020D01*
X145309389Y-65564547D01*
X145316882Y-65566222D01*
X145324808Y-65565973D01*
X145324809Y-65565973D01*
X145384959Y-65564082D01*
X145388918Y-65564020D01*
X145416829Y-65564020D01*
X145420764Y-65563523D01*
X145420829Y-65563515D01*
X145432666Y-65562582D01*
X145464924Y-65561568D01*
X145468943Y-65561442D01*
X145476862Y-65561193D01*
X145496316Y-65555541D01*
X145515673Y-65551533D01*
X145527903Y-65549988D01*
X145527904Y-65549988D01*
X145535770Y-65548994D01*
X145543141Y-65546075D01*
X145543143Y-65546075D01*
X145576885Y-65532716D01*
X145588115Y-65528871D01*
X145622956Y-65518749D01*
X145622957Y-65518749D01*
X145630566Y-65516538D01*
X145637385Y-65512505D01*
X145637390Y-65512503D01*
X145648001Y-65506227D01*
X145665749Y-65497532D01*
X145684590Y-65490072D01*
X145720360Y-65464084D01*
X145730280Y-65457568D01*
X145761508Y-65439100D01*
X145761511Y-65439098D01*
X145768335Y-65435062D01*
X145782656Y-65420741D01*
X145797690Y-65407900D01*
X145807666Y-65400652D01*
X145814080Y-65395992D01*
X145842261Y-65361927D01*
X145850251Y-65353146D01*
X146282258Y-64921140D01*
X146290537Y-64913606D01*
X146297018Y-64909493D01*
X146343644Y-64859841D01*
X146346398Y-64857000D01*
X146366135Y-64837263D01*
X146368615Y-64834066D01*
X146376320Y-64825044D01*
X146401159Y-64798593D01*
X146406586Y-64792814D01*
X146410405Y-64785868D01*
X146410407Y-64785865D01*
X146416348Y-64775059D01*
X146427199Y-64758540D01*
X146434758Y-64748794D01*
X146439614Y-64742534D01*
X146442759Y-64735265D01*
X146442762Y-64735261D01*
X146457174Y-64701956D01*
X146462391Y-64691306D01*
X146483695Y-64652553D01*
X146488733Y-64632930D01*
X146495137Y-64614227D01*
X146500033Y-64602913D01*
X146500033Y-64602912D01*
X146503181Y-64595638D01*
X146504420Y-64587815D01*
X146504423Y-64587805D01*
X146510099Y-64551969D01*
X146512505Y-64540349D01*
X146521528Y-64505204D01*
X146521528Y-64505203D01*
X146523500Y-64497523D01*
X146523500Y-64477269D01*
X146525051Y-64457558D01*
X146526980Y-64445379D01*
X146528220Y-64437550D01*
X146524059Y-64393531D01*
X146523500Y-64381674D01*
X146523500Y-62554500D01*
X146543502Y-62486379D01*
X146597158Y-62439886D01*
X146649500Y-62428500D01*
X146686000Y-62428500D01*
X146754121Y-62448502D01*
G37*
%TD.AperFunction*%
%TA.AperFunction,Conductor*%
G36*
X146754121Y-57297002D02*
G01*
X146800614Y-57350658D01*
X146812000Y-57403000D01*
X146812000Y-58095500D01*
X146791998Y-58163621D01*
X146738342Y-58210114D01*
X146686000Y-58221500D01*
X144991866Y-58221500D01*
X144988469Y-58221869D01*
X144937534Y-58227402D01*
X144937532Y-58227402D01*
X144929684Y-58228255D01*
X144922291Y-58231027D01*
X144922289Y-58231027D01*
X144894433Y-58241470D01*
X144823626Y-58246653D01*
X144798962Y-58238597D01*
X144681288Y-58186206D01*
X144639660Y-58177358D01*
X144500944Y-58147872D01*
X144500939Y-58147872D01*
X144494487Y-58146500D01*
X144303513Y-58146500D01*
X144297061Y-58147872D01*
X144297056Y-58147872D01*
X144229279Y-58162279D01*
X144116712Y-58186206D01*
X144110682Y-58188891D01*
X144110681Y-58188891D01*
X143948278Y-58261197D01*
X143948276Y-58261198D01*
X143942248Y-58263882D01*
X143787747Y-58376134D01*
X143659960Y-58518056D01*
X143564473Y-58683444D01*
X143505458Y-58865072D01*
X143485496Y-59055000D01*
X143505458Y-59244928D01*
X143507498Y-59251206D01*
X143527371Y-59312370D01*
X143529398Y-59383338D01*
X143492736Y-59444136D01*
X143458786Y-59466413D01*
X143313281Y-59531195D01*
X143313274Y-59531199D01*
X143307248Y-59533882D01*
X143152747Y-59646134D01*
X143024960Y-59788056D01*
X142929473Y-59953444D01*
X142870458Y-60135072D01*
X142850496Y-60325000D01*
X142870458Y-60514928D01*
X142929473Y-60696556D01*
X143024960Y-60861944D01*
X143029378Y-60866851D01*
X143029379Y-60866852D01*
X143068711Y-60910535D01*
X143152747Y-61003866D01*
X143307248Y-61116118D01*
X143313276Y-61118802D01*
X143313278Y-61118803D01*
X143475681Y-61191109D01*
X143481712Y-61193794D01*
X143575113Y-61213647D01*
X143662056Y-61232128D01*
X143662061Y-61232128D01*
X143668513Y-61233500D01*
X143859487Y-61233500D01*
X143865939Y-61232128D01*
X143865944Y-61232128D01*
X143952887Y-61213647D01*
X144046288Y-61193794D01*
X144052319Y-61191109D01*
X144214722Y-61118803D01*
X144214724Y-61118802D01*
X144220752Y-61116118D01*
X144342922Y-61027356D01*
X144409790Y-61003498D01*
X144478941Y-61019578D01*
X144528421Y-61070492D01*
X144542521Y-61140074D01*
X144540200Y-61154497D01*
X144538255Y-61159684D01*
X144531500Y-61221866D01*
X144531500Y-61968134D01*
X144538255Y-62030316D01*
X144589385Y-62166705D01*
X144676739Y-62283261D01*
X144793295Y-62370615D01*
X144929684Y-62421745D01*
X144991866Y-62428500D01*
X145130500Y-62428500D01*
X145198621Y-62448502D01*
X145245114Y-62502158D01*
X145256500Y-62554500D01*
X145256500Y-64102898D01*
X145236498Y-64171019D01*
X145219595Y-64191994D01*
X145151472Y-64260116D01*
X145089159Y-64294141D01*
X145062377Y-64297020D01*
X143948500Y-64297020D01*
X143880379Y-64277018D01*
X143833886Y-64223362D01*
X143822500Y-64171020D01*
X143822500Y-63355600D01*
X143811526Y-63249834D01*
X143755550Y-63082054D01*
X143662478Y-62931652D01*
X143537303Y-62806695D01*
X143479241Y-62770905D01*
X143431749Y-62718134D01*
X143422963Y-62688017D01*
X143422326Y-62688174D01*
X143420515Y-62680798D01*
X143419602Y-62673258D01*
X143416918Y-62666155D01*
X143416276Y-62663541D01*
X143411813Y-62647228D01*
X143411048Y-62644695D01*
X143409743Y-62637217D01*
X143384052Y-62578690D01*
X143381567Y-62572602D01*
X143361672Y-62519949D01*
X143361671Y-62519947D01*
X143358987Y-62512844D01*
X143354686Y-62506585D01*
X143353449Y-62504220D01*
X143345227Y-62489448D01*
X143343872Y-62487156D01*
X143340816Y-62480195D01*
X143336191Y-62474168D01*
X143336189Y-62474164D01*
X143301907Y-62429487D01*
X143298029Y-62424150D01*
X143296963Y-62422598D01*
X143261857Y-62371519D01*
X143254798Y-62365229D01*
X143215339Y-62330073D01*
X143210063Y-62325092D01*
X141999442Y-61114472D01*
X141993588Y-61108206D01*
X141960556Y-61070340D01*
X141960553Y-61070337D01*
X141955561Y-61064615D01*
X141903280Y-61027871D01*
X141897986Y-61023939D01*
X141853693Y-60989209D01*
X141847718Y-60984524D01*
X141840802Y-60981401D01*
X141838516Y-60980017D01*
X141823835Y-60971643D01*
X141821475Y-60970378D01*
X141815261Y-60966010D01*
X141808182Y-60963250D01*
X141808180Y-60963249D01*
X141755725Y-60942798D01*
X141749656Y-60940247D01*
X141691427Y-60913955D01*
X141683960Y-60912571D01*
X141681405Y-60911770D01*
X141665152Y-60907141D01*
X141662572Y-60906478D01*
X141655491Y-60903718D01*
X141647960Y-60902727D01*
X141647958Y-60902726D01*
X141618339Y-60898827D01*
X141592139Y-60895378D01*
X141585641Y-60894348D01*
X141522814Y-60882704D01*
X141515234Y-60883141D01*
X141515233Y-60883141D01*
X141460608Y-60886291D01*
X141453354Y-60886500D01*
X141278101Y-60886500D01*
X141209980Y-60866498D01*
X141163487Y-60812842D01*
X141153383Y-60742568D01*
X141165014Y-60708964D01*
X141163539Y-60708307D01*
X141166223Y-60702279D01*
X141169527Y-60696556D01*
X141228542Y-60514928D01*
X141248504Y-60325000D01*
X141228542Y-60135072D01*
X141169527Y-59953444D01*
X141074040Y-59788056D01*
X141061662Y-59774309D01*
X141030946Y-59710303D01*
X141039710Y-59639850D01*
X141061661Y-59605693D01*
X141074040Y-59591944D01*
X141169527Y-59426556D01*
X141228542Y-59244928D01*
X141248504Y-59055000D01*
X141228542Y-58865072D01*
X141169527Y-58683444D01*
X141074040Y-58518056D01*
X141061662Y-58504309D01*
X141030946Y-58440303D01*
X141039710Y-58369850D01*
X141061661Y-58335693D01*
X141074040Y-58321944D01*
X141169527Y-58156556D01*
X141228542Y-57974928D01*
X141248504Y-57785000D01*
X141228542Y-57595072D01*
X141178785Y-57441936D01*
X141176757Y-57370969D01*
X141213420Y-57310171D01*
X141277132Y-57278845D01*
X141298618Y-57277000D01*
X146686000Y-57277000D01*
X146754121Y-57297002D01*
G37*
%TD.AperFunction*%
%TD*%
M02*
