%TF.GenerationSoftware,KiCad,Pcbnew,6.0.11+dfsg-1*%
%TF.CreationDate,2023-11-25T08:39:19-08:00*%
%TF.ProjectId,xbox_tray_emulator,78626f78-5f74-4726-9179-5f656d756c61,rev?*%
%TF.SameCoordinates,Original*%
%TF.FileFunction,Copper,L1,Top*%
%TF.FilePolarity,Positive*%
%FSLAX46Y46*%
G04 Gerber Fmt 4.6, Leading zero omitted, Abs format (unit mm)*
G04 Created by KiCad (PCBNEW 6.0.11+dfsg-1) date 2023-11-25 08:39:19*
%MOMM*%
%LPD*%
G01*
G04 APERTURE LIST*
G04 Aperture macros list*
%AMRoundRect*
0 Rectangle with rounded corners*
0 $1 Rounding radius*
0 $2 $3 $4 $5 $6 $7 $8 $9 X,Y pos of 4 corners*
0 Add a 4 corners polygon primitive as box body*
4,1,4,$2,$3,$4,$5,$6,$7,$8,$9,$2,$3,0*
0 Add four circle primitives for the rounded corners*
1,1,$1+$1,$2,$3*
1,1,$1+$1,$4,$5*
1,1,$1+$1,$6,$7*
1,1,$1+$1,$8,$9*
0 Add four rect primitives between the rounded corners*
20,1,$1+$1,$2,$3,$4,$5,0*
20,1,$1+$1,$4,$5,$6,$7,0*
20,1,$1+$1,$6,$7,$8,$9,0*
20,1,$1+$1,$8,$9,$2,$3,0*%
G04 Aperture macros list end*
%TA.AperFunction,SMDPad,CuDef*%
%ADD10RoundRect,0.250000X-0.337500X-0.475000X0.337500X-0.475000X0.337500X0.475000X-0.337500X0.475000X0*%
%TD*%
%TA.AperFunction,SMDPad,CuDef*%
%ADD11RoundRect,0.250000X-0.350000X-0.450000X0.350000X-0.450000X0.350000X0.450000X-0.350000X0.450000X0*%
%TD*%
%TA.AperFunction,SMDPad,CuDef*%
%ADD12RoundRect,0.150000X0.587500X0.150000X-0.587500X0.150000X-0.587500X-0.150000X0.587500X-0.150000X0*%
%TD*%
%TA.AperFunction,SMDPad,CuDef*%
%ADD13R,2.200000X0.650000*%
%TD*%
%TA.AperFunction,ComponentPad*%
%ADD14O,1.650000X1.200000*%
%TD*%
%TA.AperFunction,ViaPad*%
%ADD15C,0.800000*%
%TD*%
%TA.AperFunction,Conductor*%
%ADD16C,0.250000*%
%TD*%
%TA.AperFunction,Conductor*%
%ADD17C,0.400000*%
%TD*%
G04 APERTURE END LIST*
D10*
%TO.P,C1,1*%
%TO.N,/Net-(R1-Pad1)*%
X142599500Y-65024000D03*
%TO.P,C1,2*%
%TO.N,Net-(C1-Pad2)*%
X144674500Y-65024000D03*
%TD*%
D11*
%TO.P,R1,1*%
%TO.N,/Net-(R1-Pad1)*%
X138319000Y-65024000D03*
%TO.P,R1,2*%
%TO.N,Net-(R1-Pad2)*%
X140319000Y-65024000D03*
%TD*%
D12*
%TO.P,U2,1,GND*%
%TO.N,Net-(C1-Pad2)*%
X140383500Y-68641000D03*
%TO.P,U2,2,VO*%
%TO.N,/Net-(R1-Pad1)*%
X140383500Y-66741000D03*
%TO.P,U2,3,VI*%
%TO.N,/Net-(J1-Pad10)*%
X138508500Y-67691000D03*
%TD*%
D10*
%TO.P,C2,1*%
%TO.N,/Net-(J1-Pad10)*%
X142599500Y-68453000D03*
%TO.P,C2,2*%
%TO.N,Net-(C1-Pad2)*%
X144674500Y-68453000D03*
%TD*%
D13*
%TO.P,U1,1,~{RESET}/PB5*%
%TO.N,Net-(R1-Pad2)*%
X145630000Y-62992000D03*
%TO.P,U1,2,PB3*%
%TO.N,Net-(J1-Pad7)*%
X145630000Y-61722000D03*
%TO.P,U1,3,PB4*%
%TO.N,Net-(J1-Pad5)*%
X145630000Y-60452000D03*
%TO.P,U1,4,GND*%
%TO.N,Net-(C1-Pad2)*%
X145630000Y-59182000D03*
%TO.P,U1,5,PB0*%
%TO.N,Net-(J1-Pad4)*%
X138840000Y-59182000D03*
%TO.P,U1,6,PB1*%
%TO.N,Net-(J1-Pad6)*%
X138840000Y-60452000D03*
%TO.P,U1,7,PB2*%
%TO.N,Net-(J1-Pad8)*%
X138840000Y-61722000D03*
%TO.P,U1,8,VCC*%
%TO.N,/Net-(R1-Pad1)*%
X138840000Y-62992000D03*
%TD*%
D14*
%TO.P,J1,1,Pin_1*%
%TO.N,unconnected-(J1-Pad1)*%
X142605000Y-83470000D03*
%TO.P,J1,2,Pin_2*%
%TO.N,/Net-(J1-Pad10)*%
X140605000Y-83470000D03*
%TO.P,J1,3,Pin_3*%
%TO.N,Net-(C1-Pad2)*%
X142605000Y-81470000D03*
%TO.P,J1,4,Pin_4*%
%TO.N,Net-(J1-Pad4)*%
X140605000Y-81470000D03*
%TO.P,J1,5,Pin_5*%
%TO.N,Net-(J1-Pad5)*%
X142605000Y-79470000D03*
%TO.P,J1,6,Pin_6*%
%TO.N,Net-(J1-Pad6)*%
X140605000Y-79470000D03*
%TO.P,J1,7,Pin_7*%
%TO.N,Net-(J1-Pad7)*%
X142605000Y-77470000D03*
%TO.P,J1,8,Pin_8*%
%TO.N,Net-(J1-Pad8)*%
X140605000Y-77470000D03*
%TO.P,J1,9,Pin_9*%
%TO.N,unconnected-(J1-Pad9)*%
X142605000Y-75470000D03*
%TO.P,J1,10,Pin_10*%
%TO.N,/Net-(J1-Pad10)*%
X140605000Y-75470000D03*
%TO.P,J1,11,Pin_11*%
%TO.N,Net-(C1-Pad2)*%
X142605000Y-73470000D03*
%TO.P,J1,12,Pin_12*%
X140605000Y-73470000D03*
%TO.P,J1,13,Pin_13*%
%TO.N,unconnected-(J1-Pad13)*%
X142605000Y-71470000D03*
%TD*%
D15*
%TO.N,Net-(C1-Pad2)*%
X142494000Y-62992000D03*
X142113000Y-61722000D03*
X142240000Y-60452000D03*
%TO.N,Net-(J1-Pad5)*%
X143764000Y-60452000D03*
%TO.N,Net-(J1-Pad6)*%
X140335000Y-60452000D03*
%TO.N,Net-(J1-Pad7)*%
X143764000Y-61722000D03*
%TO.N,Net-(J1-Pad8)*%
X140335000Y-61722000D03*
%TO.N,Net-(J1-Pad4)*%
X140335000Y-59182000D03*
%TO.N,Net-(C1-Pad2)*%
X145923000Y-71501000D03*
X145923000Y-79375000D03*
X142240000Y-59182000D03*
X145923000Y-83566000D03*
X140589000Y-71501000D03*
X138430000Y-83566000D03*
X145923000Y-75438000D03*
%TD*%
D16*
%TO.N,Net-(J1-Pad5)*%
X145630000Y-60452000D02*
X143764000Y-60452000D01*
%TO.N,Net-(J1-Pad6)*%
X138590000Y-60452000D02*
X140335000Y-60452000D01*
%TO.N,Net-(J1-Pad7)*%
X145890000Y-61722000D02*
X143764000Y-61722000D01*
%TO.N,Net-(J1-Pad8)*%
X138590000Y-61722000D02*
X140335000Y-61722000D01*
%TO.N,Net-(J1-Pad4)*%
X138590000Y-59182000D02*
X140335000Y-59182000D01*
%TO.N,Net-(R1-Pad2)*%
X145857000Y-67056000D02*
X145890000Y-67023000D01*
X145890000Y-67023000D02*
X145890000Y-63373000D01*
X145857000Y-67056000D02*
X142351000Y-67056000D01*
X142351000Y-67056000D02*
X140319000Y-65024000D01*
D17*
%TO.N,/Net-(R1-Pad1)*%
X140567500Y-62992000D02*
X142599500Y-65024000D01*
X138319000Y-63263000D02*
X138590000Y-62992000D01*
X140036000Y-66741000D02*
X138319000Y-65024000D01*
X138590000Y-62992000D02*
X140567500Y-62992000D01*
X138319000Y-65024000D02*
X138319000Y-63263000D01*
D16*
X140383500Y-66741000D02*
X140036000Y-66741000D01*
D17*
%TO.N,/Net-(J1-Pad10)*%
X138970000Y-75470000D02*
X140605000Y-75470000D01*
D16*
X138938000Y-75438000D02*
X138970000Y-75470000D01*
D17*
X138508500Y-67691000D02*
X141837500Y-67691000D01*
X138938000Y-75438000D02*
X138938000Y-67945000D01*
X138938000Y-81803000D02*
X138938000Y-75438000D01*
X140605000Y-83470000D02*
X138938000Y-81803000D01*
X142599500Y-68453000D02*
X141837500Y-67691000D01*
X138938000Y-67945000D02*
X138684000Y-67691000D01*
%TD*%
%TA.AperFunction,Conductor*%
%TO.N,Net-(C1-Pad2)*%
G36*
X146753621Y-63845502D02*
G01*
X146800114Y-63899158D01*
X146811500Y-63951500D01*
X146811500Y-85090500D01*
X146791498Y-85158621D01*
X146737842Y-85205114D01*
X146685500Y-85216500D01*
X137794500Y-85216500D01*
X137726379Y-85196498D01*
X137679886Y-85142842D01*
X137668500Y-85090500D01*
X137668500Y-68619839D01*
X137688502Y-68551718D01*
X137742158Y-68505225D01*
X137815541Y-68496089D01*
X137817169Y-68496562D01*
X137823583Y-68497067D01*
X137823584Y-68497067D01*
X137852042Y-68499307D01*
X137852050Y-68499307D01*
X137854498Y-68499500D01*
X138103500Y-68499500D01*
X138171621Y-68519502D01*
X138218114Y-68573158D01*
X138229500Y-68625500D01*
X138229500Y-81774088D01*
X138229208Y-81782658D01*
X138225275Y-81840352D01*
X138226580Y-81847829D01*
X138226580Y-81847830D01*
X138236261Y-81903299D01*
X138237223Y-81909821D01*
X138244898Y-81973242D01*
X138247581Y-81980343D01*
X138248222Y-81982952D01*
X138252685Y-81999262D01*
X138253450Y-82001798D01*
X138254757Y-82009284D01*
X138257811Y-82016241D01*
X138280442Y-82067795D01*
X138282933Y-82073899D01*
X138305513Y-82133656D01*
X138309817Y-82139919D01*
X138311054Y-82142285D01*
X138319299Y-82157097D01*
X138320632Y-82159351D01*
X138323685Y-82166305D01*
X138328307Y-82172328D01*
X138362579Y-82216991D01*
X138366459Y-82222332D01*
X138398339Y-82268720D01*
X138398344Y-82268725D01*
X138402643Y-82274981D01*
X138408313Y-82280032D01*
X138408314Y-82280034D01*
X138449170Y-82316435D01*
X138454446Y-82321416D01*
X139258687Y-83125657D01*
X139292713Y-83187969D01*
X139294288Y-83232831D01*
X139267787Y-83415604D01*
X139277567Y-83626899D01*
X139327125Y-83832534D01*
X139329607Y-83837992D01*
X139329608Y-83837996D01*
X139373053Y-83933546D01*
X139414674Y-84025087D01*
X139537054Y-84197611D01*
X139689850Y-84343881D01*
X139867548Y-84458620D01*
X139873114Y-84460863D01*
X140058168Y-84535442D01*
X140058171Y-84535443D01*
X140063737Y-84537686D01*
X140271337Y-84578228D01*
X140276899Y-84578500D01*
X140882846Y-84578500D01*
X141040566Y-84563452D01*
X141243534Y-84503908D01*
X141327111Y-84460863D01*
X141426249Y-84409804D01*
X141426252Y-84409802D01*
X141431580Y-84407058D01*
X141523711Y-84334688D01*
X141589636Y-84308338D01*
X141659343Y-84321813D01*
X141680243Y-84336737D01*
X141680811Y-84336017D01*
X141685520Y-84339736D01*
X141689850Y-84343881D01*
X141867548Y-84458620D01*
X141873114Y-84460863D01*
X142058168Y-84535442D01*
X142058171Y-84535443D01*
X142063737Y-84537686D01*
X142271337Y-84578228D01*
X142276899Y-84578500D01*
X142882846Y-84578500D01*
X143040566Y-84563452D01*
X143243534Y-84503908D01*
X143327111Y-84460863D01*
X143426249Y-84409804D01*
X143426252Y-84409802D01*
X143431580Y-84407058D01*
X143597920Y-84276396D01*
X143601852Y-84271865D01*
X143601855Y-84271862D01*
X143732621Y-84121167D01*
X143736552Y-84116637D01*
X143739552Y-84111451D01*
X143739555Y-84111447D01*
X143839467Y-83938742D01*
X143842473Y-83933546D01*
X143911861Y-83733729D01*
X143942213Y-83524396D01*
X143932433Y-83313101D01*
X143882875Y-83107466D01*
X143795326Y-82914913D01*
X143672946Y-82742389D01*
X143520150Y-82596119D01*
X143342452Y-82481380D01*
X143267573Y-82451203D01*
X143151832Y-82404558D01*
X143151829Y-82404557D01*
X143146263Y-82402314D01*
X142938663Y-82361772D01*
X142933101Y-82361500D01*
X142327154Y-82361500D01*
X142169434Y-82376548D01*
X141966466Y-82436092D01*
X141961139Y-82438836D01*
X141961138Y-82438836D01*
X141783751Y-82530196D01*
X141783748Y-82530198D01*
X141778420Y-82532942D01*
X141687981Y-82603983D01*
X141686289Y-82605312D01*
X141620364Y-82631662D01*
X141550657Y-82618187D01*
X141529757Y-82603263D01*
X141529189Y-82603983D01*
X141524480Y-82600264D01*
X141520150Y-82596119D01*
X141514255Y-82592312D01*
X141487837Y-82575254D01*
X141441460Y-82521499D01*
X141431507Y-82451203D01*
X141461139Y-82386686D01*
X141478353Y-82370317D01*
X141488123Y-82362643D01*
X141597920Y-82276396D01*
X141601852Y-82271865D01*
X141601855Y-82271862D01*
X141732621Y-82121167D01*
X141736552Y-82116637D01*
X141739552Y-82111451D01*
X141739555Y-82111447D01*
X141839467Y-81938742D01*
X141842473Y-81933546D01*
X141911861Y-81733729D01*
X141942213Y-81524396D01*
X141932433Y-81313101D01*
X141882875Y-81107466D01*
X141795326Y-80914913D01*
X141672946Y-80742389D01*
X141520150Y-80596119D01*
X141514255Y-80592312D01*
X141487837Y-80575254D01*
X141441460Y-80521499D01*
X141431507Y-80451203D01*
X141461139Y-80386686D01*
X141478353Y-80370317D01*
X141521103Y-80336737D01*
X141523711Y-80334688D01*
X141589637Y-80308338D01*
X141659343Y-80321813D01*
X141680243Y-80336737D01*
X141680811Y-80336017D01*
X141685520Y-80339736D01*
X141689850Y-80343881D01*
X141867548Y-80458620D01*
X141873114Y-80460863D01*
X142058168Y-80535442D01*
X142058171Y-80535443D01*
X142063737Y-80537686D01*
X142271337Y-80578228D01*
X142276899Y-80578500D01*
X142882846Y-80578500D01*
X143040566Y-80563452D01*
X143243534Y-80503908D01*
X143287275Y-80481380D01*
X143426249Y-80409804D01*
X143426252Y-80409802D01*
X143431580Y-80407058D01*
X143597920Y-80276396D01*
X143601852Y-80271865D01*
X143601855Y-80271862D01*
X143732621Y-80121167D01*
X143736552Y-80116637D01*
X143739552Y-80111451D01*
X143739555Y-80111447D01*
X143839467Y-79938742D01*
X143842473Y-79933546D01*
X143911861Y-79733729D01*
X143942213Y-79524396D01*
X143932433Y-79313101D01*
X143882875Y-79107466D01*
X143795326Y-78914913D01*
X143672946Y-78742389D01*
X143520150Y-78596119D01*
X143514255Y-78592312D01*
X143487837Y-78575254D01*
X143441460Y-78521499D01*
X143431507Y-78451203D01*
X143461139Y-78386686D01*
X143478353Y-78370317D01*
X143593202Y-78280102D01*
X143597920Y-78276396D01*
X143601852Y-78271865D01*
X143601855Y-78271862D01*
X143732621Y-78121167D01*
X143736552Y-78116637D01*
X143739552Y-78111451D01*
X143739555Y-78111447D01*
X143839467Y-77938742D01*
X143842473Y-77933546D01*
X143911861Y-77733729D01*
X143942213Y-77524396D01*
X143932433Y-77313101D01*
X143882875Y-77107466D01*
X143795326Y-76914913D01*
X143672946Y-76742389D01*
X143520150Y-76596119D01*
X143514255Y-76592312D01*
X143487837Y-76575254D01*
X143441460Y-76521499D01*
X143431507Y-76451203D01*
X143461139Y-76386686D01*
X143478353Y-76370317D01*
X143593202Y-76280102D01*
X143597920Y-76276396D01*
X143601852Y-76271865D01*
X143601855Y-76271862D01*
X143732621Y-76121167D01*
X143736552Y-76116637D01*
X143739552Y-76111451D01*
X143739555Y-76111447D01*
X143839467Y-75938742D01*
X143842473Y-75933546D01*
X143911861Y-75733729D01*
X143942213Y-75524396D01*
X143932433Y-75313101D01*
X143882875Y-75107466D01*
X143795326Y-74914913D01*
X143672946Y-74742389D01*
X143520150Y-74596119D01*
X143342452Y-74481380D01*
X143282354Y-74457160D01*
X143151832Y-74404558D01*
X143151829Y-74404557D01*
X143146263Y-74402314D01*
X142938663Y-74361772D01*
X142933101Y-74361500D01*
X142327154Y-74361500D01*
X142169434Y-74376548D01*
X141966466Y-74436092D01*
X141961139Y-74438836D01*
X141961138Y-74438836D01*
X141783751Y-74530196D01*
X141783748Y-74530198D01*
X141778420Y-74532942D01*
X141687981Y-74603983D01*
X141686289Y-74605312D01*
X141620364Y-74631662D01*
X141550657Y-74618187D01*
X141529757Y-74603263D01*
X141529189Y-74603983D01*
X141524480Y-74600264D01*
X141520150Y-74596119D01*
X141342452Y-74481380D01*
X141282354Y-74457160D01*
X141151832Y-74404558D01*
X141151829Y-74404557D01*
X141146263Y-74402314D01*
X140938663Y-74361772D01*
X140933101Y-74361500D01*
X140327154Y-74361500D01*
X140169434Y-74376548D01*
X139966466Y-74436092D01*
X139830191Y-74506278D01*
X139760473Y-74519687D01*
X139694573Y-74493274D01*
X139653414Y-74435426D01*
X139646500Y-74394262D01*
X139646500Y-71415604D01*
X141267787Y-71415604D01*
X141277567Y-71626899D01*
X141327125Y-71832534D01*
X141329607Y-71837992D01*
X141329608Y-71837996D01*
X141373053Y-71933546D01*
X141414674Y-72025087D01*
X141537054Y-72197611D01*
X141689850Y-72343881D01*
X141867548Y-72458620D01*
X141873114Y-72460863D01*
X142058168Y-72535442D01*
X142058171Y-72535443D01*
X142063737Y-72537686D01*
X142271337Y-72578228D01*
X142276899Y-72578500D01*
X142882846Y-72578500D01*
X143040566Y-72563452D01*
X143243534Y-72503908D01*
X143327111Y-72460863D01*
X143426249Y-72409804D01*
X143426252Y-72409802D01*
X143431580Y-72407058D01*
X143597920Y-72276396D01*
X143601852Y-72271865D01*
X143601855Y-72271862D01*
X143732621Y-72121167D01*
X143736552Y-72116637D01*
X143739552Y-72111451D01*
X143739555Y-72111447D01*
X143839467Y-71938742D01*
X143842473Y-71933546D01*
X143911861Y-71733729D01*
X143942213Y-71524396D01*
X143932433Y-71313101D01*
X143882875Y-71107466D01*
X143839525Y-71012122D01*
X143797806Y-70920368D01*
X143795326Y-70914913D01*
X143672946Y-70742389D01*
X143520150Y-70596119D01*
X143342452Y-70481380D01*
X143282354Y-70457160D01*
X143151832Y-70404558D01*
X143151829Y-70404557D01*
X143146263Y-70402314D01*
X142938663Y-70361772D01*
X142933101Y-70361500D01*
X142327154Y-70361500D01*
X142169434Y-70376548D01*
X141966466Y-70436092D01*
X141961139Y-70438836D01*
X141961138Y-70438836D01*
X141783751Y-70530196D01*
X141783748Y-70530198D01*
X141778420Y-70532942D01*
X141612080Y-70663604D01*
X141608148Y-70668135D01*
X141608145Y-70668138D01*
X141539474Y-70747275D01*
X141473448Y-70823363D01*
X141470448Y-70828549D01*
X141470445Y-70828553D01*
X141423312Y-70910026D01*
X141367527Y-71006454D01*
X141298139Y-71206271D01*
X141267787Y-71415604D01*
X139646500Y-71415604D01*
X139646500Y-68525500D01*
X139666502Y-68457379D01*
X139720158Y-68410886D01*
X139772500Y-68399500D01*
X141377500Y-68399500D01*
X141445621Y-68419502D01*
X141492114Y-68473158D01*
X141503500Y-68525500D01*
X141503500Y-68978400D01*
X141514474Y-69084166D01*
X141570450Y-69251946D01*
X141663522Y-69402348D01*
X141788697Y-69527305D01*
X141794927Y-69531145D01*
X141794928Y-69531146D01*
X141932090Y-69615694D01*
X141939262Y-69620115D01*
X142019005Y-69646564D01*
X142100611Y-69673632D01*
X142100613Y-69673632D01*
X142107139Y-69675797D01*
X142113975Y-69676497D01*
X142113978Y-69676498D01*
X142157031Y-69680909D01*
X142211600Y-69686500D01*
X142987400Y-69686500D01*
X142990646Y-69686163D01*
X142990650Y-69686163D01*
X143086308Y-69676238D01*
X143086312Y-69676237D01*
X143093166Y-69675526D01*
X143099702Y-69673345D01*
X143099704Y-69673345D01*
X143231806Y-69629272D01*
X143260946Y-69619550D01*
X143411348Y-69526478D01*
X143536305Y-69401303D01*
X143629115Y-69250738D01*
X143684797Y-69082861D01*
X143695500Y-68978400D01*
X143695500Y-67927600D01*
X143685218Y-67828504D01*
X143698083Y-67758682D01*
X143746654Y-67706900D01*
X143810545Y-67689500D01*
X145778233Y-67689500D01*
X145789416Y-67690027D01*
X145796909Y-67691702D01*
X145804835Y-67691453D01*
X145804836Y-67691453D01*
X145864986Y-67689562D01*
X145868945Y-67689500D01*
X145896856Y-67689500D01*
X145900791Y-67689003D01*
X145900856Y-67688995D01*
X145912693Y-67688062D01*
X145944951Y-67687048D01*
X145948970Y-67686922D01*
X145956889Y-67686673D01*
X145976343Y-67681021D01*
X145995700Y-67677013D01*
X146007930Y-67675468D01*
X146007931Y-67675468D01*
X146015797Y-67674474D01*
X146023168Y-67671555D01*
X146023170Y-67671555D01*
X146056912Y-67658196D01*
X146068142Y-67654351D01*
X146102983Y-67644229D01*
X146102984Y-67644229D01*
X146110593Y-67642018D01*
X146117412Y-67637985D01*
X146117417Y-67637983D01*
X146128028Y-67631707D01*
X146145776Y-67623012D01*
X146164617Y-67615552D01*
X146200387Y-67589564D01*
X146210307Y-67583048D01*
X146241535Y-67564580D01*
X146241538Y-67564578D01*
X146248362Y-67560542D01*
X146262686Y-67546218D01*
X146277713Y-67533383D01*
X146294107Y-67521472D01*
X146315023Y-67496189D01*
X146320251Y-67490259D01*
X146343647Y-67465345D01*
X146346401Y-67462504D01*
X146366135Y-67442770D01*
X146368615Y-67439573D01*
X146376320Y-67430551D01*
X146401159Y-67404100D01*
X146406586Y-67398321D01*
X146410405Y-67391375D01*
X146410407Y-67391372D01*
X146416348Y-67380566D01*
X146427199Y-67364047D01*
X146434758Y-67354301D01*
X146439614Y-67348041D01*
X146442759Y-67340772D01*
X146442762Y-67340768D01*
X146457174Y-67307463D01*
X146462391Y-67296813D01*
X146483695Y-67258060D01*
X146488733Y-67238437D01*
X146495137Y-67219734D01*
X146500033Y-67208420D01*
X146500033Y-67208419D01*
X146503181Y-67201145D01*
X146504420Y-67193322D01*
X146504423Y-67193312D01*
X146510099Y-67157476D01*
X146512505Y-67145856D01*
X146521528Y-67110711D01*
X146521528Y-67110710D01*
X146523500Y-67103030D01*
X146523500Y-67082776D01*
X146525051Y-67063065D01*
X146526980Y-67050886D01*
X146528220Y-67043057D01*
X146524059Y-66999038D01*
X146523500Y-66987181D01*
X146523500Y-63951500D01*
X146543502Y-63883379D01*
X146597158Y-63836886D01*
X146649500Y-63825500D01*
X146685500Y-63825500D01*
X146753621Y-63845502D01*
G37*
%TD.AperFunction*%
%TA.AperFunction,Conductor*%
G36*
X146753621Y-58567502D02*
G01*
X146800114Y-58621158D01*
X146811500Y-58673500D01*
X146811500Y-59492500D01*
X146791498Y-59560621D01*
X146737842Y-59607114D01*
X146685500Y-59618500D01*
X144481866Y-59618500D01*
X144419684Y-59625255D01*
X144412288Y-59628027D01*
X144412282Y-59628029D01*
X144316525Y-59663927D01*
X144245718Y-59669110D01*
X144221280Y-59659697D01*
X144220752Y-59660882D01*
X144052319Y-59585891D01*
X144052318Y-59585891D01*
X144046288Y-59583206D01*
X143933721Y-59559279D01*
X143865944Y-59544872D01*
X143865939Y-59544872D01*
X143859487Y-59543500D01*
X143668513Y-59543500D01*
X143662061Y-59544872D01*
X143662056Y-59544872D01*
X143594279Y-59559279D01*
X143481712Y-59583206D01*
X143475682Y-59585891D01*
X143475681Y-59585891D01*
X143313278Y-59658197D01*
X143313276Y-59658198D01*
X143307248Y-59660882D01*
X143152747Y-59773134D01*
X143024960Y-59915056D01*
X142929473Y-60080444D01*
X142870458Y-60262072D01*
X142850496Y-60452000D01*
X142870458Y-60641928D01*
X142929473Y-60823556D01*
X143024960Y-60988944D01*
X143037338Y-61002691D01*
X143068054Y-61066697D01*
X143059290Y-61137150D01*
X143037339Y-61171307D01*
X143024960Y-61185056D01*
X142929473Y-61350444D01*
X142870458Y-61532072D01*
X142850496Y-61722000D01*
X142870458Y-61911928D01*
X142929473Y-62093556D01*
X143024960Y-62258944D01*
X143029378Y-62263851D01*
X143029379Y-62263852D01*
X143148325Y-62395955D01*
X143152747Y-62400866D01*
X143307248Y-62513118D01*
X143313276Y-62515802D01*
X143313278Y-62515803D01*
X143475681Y-62588109D01*
X143481712Y-62590794D01*
X143575113Y-62610647D01*
X143662056Y-62629128D01*
X143662061Y-62629128D01*
X143668513Y-62630500D01*
X143859487Y-62630500D01*
X143865944Y-62629128D01*
X143865949Y-62629127D01*
X143869309Y-62628413D01*
X143871298Y-62628565D01*
X143872515Y-62628437D01*
X143872538Y-62628660D01*
X143940099Y-62633818D01*
X143996730Y-62676637D01*
X144021221Y-62743276D01*
X144021500Y-62751661D01*
X144021500Y-63365134D01*
X144028255Y-63427316D01*
X144079385Y-63563705D01*
X144166739Y-63680261D01*
X144283295Y-63767615D01*
X144419684Y-63818745D01*
X144481866Y-63825500D01*
X145130500Y-63825500D01*
X145198621Y-63845502D01*
X145245114Y-63899158D01*
X145256500Y-63951500D01*
X145256500Y-66296500D01*
X145236498Y-66364621D01*
X145182842Y-66411114D01*
X145130500Y-66422500D01*
X143329178Y-66422500D01*
X143261057Y-66402498D01*
X143214564Y-66348842D01*
X143204460Y-66278568D01*
X143233954Y-66213988D01*
X143262875Y-66189356D01*
X143405120Y-66101332D01*
X143411348Y-66097478D01*
X143536305Y-65972303D01*
X143629115Y-65821738D01*
X143684797Y-65653861D01*
X143695500Y-65549400D01*
X143695500Y-64498600D01*
X143684526Y-64392834D01*
X143628550Y-64225054D01*
X143535478Y-64074652D01*
X143410303Y-63949695D01*
X143336057Y-63903929D01*
X143265968Y-63860725D01*
X143265966Y-63860724D01*
X143259738Y-63856885D01*
X143144749Y-63818745D01*
X143098389Y-63803368D01*
X143098387Y-63803368D01*
X143091861Y-63801203D01*
X143085025Y-63800503D01*
X143085022Y-63800502D01*
X143041969Y-63796091D01*
X142987400Y-63790500D01*
X142420160Y-63790500D01*
X142352039Y-63770498D01*
X142331065Y-63753595D01*
X141088950Y-62511480D01*
X141083096Y-62505215D01*
X141045061Y-62461615D01*
X141046959Y-62459960D01*
X141016071Y-62409826D01*
X141017422Y-62338842D01*
X141043985Y-62292323D01*
X141069621Y-62263852D01*
X141069622Y-62263851D01*
X141074040Y-62258944D01*
X141169527Y-62093556D01*
X141228542Y-61911928D01*
X141248504Y-61722000D01*
X141228542Y-61532072D01*
X141169527Y-61350444D01*
X141074040Y-61185056D01*
X141061662Y-61171309D01*
X141030946Y-61107303D01*
X141039710Y-61036850D01*
X141061661Y-61002693D01*
X141074040Y-60988944D01*
X141169527Y-60823556D01*
X141228542Y-60641928D01*
X141248504Y-60452000D01*
X141228542Y-60262072D01*
X141169527Y-60080444D01*
X141074040Y-59915056D01*
X141061662Y-59901309D01*
X141030946Y-59837303D01*
X141039710Y-59766850D01*
X141061661Y-59732693D01*
X141074040Y-59718944D01*
X141169527Y-59553556D01*
X141228542Y-59371928D01*
X141248504Y-59182000D01*
X141228542Y-58992072D01*
X141169527Y-58810444D01*
X141126835Y-58736499D01*
X141110097Y-58667505D01*
X141133317Y-58600413D01*
X141189124Y-58556526D01*
X141235954Y-58547500D01*
X146685500Y-58547500D01*
X146753621Y-58567502D01*
G37*
%TD.AperFunction*%
%TD*%
M02*
