%TF.GenerationSoftware,KiCad,Pcbnew,6.0.2+dfsg-1*%
%TF.CreationDate,2023-11-14T18:31:36-08:00*%
%TF.ProjectId,xbox_tray_emulator,78626f78-5f74-4726-9179-5f656d756c61,rev?*%
%TF.SameCoordinates,Original*%
%TF.FileFunction,Copper,L2,Bot*%
%TF.FilePolarity,Positive*%
%FSLAX46Y46*%
G04 Gerber Fmt 4.6, Leading zero omitted, Abs format (unit mm)*
G04 Created by KiCad (PCBNEW 6.0.2+dfsg-1) date 2023-11-14 18:31:36*
%MOMM*%
%LPD*%
G01*
G04 APERTURE LIST*
%TA.AperFunction,ComponentPad*%
%ADD10O,1.650000X1.200000*%
%TD*%
%TA.AperFunction,ViaPad*%
%ADD11C,0.800000*%
%TD*%
%TA.AperFunction,Conductor*%
%ADD12C,0.250000*%
%TD*%
G04 APERTURE END LIST*
D10*
%TO.P,J1,1,Pin_1*%
%TO.N,unconnected-(J1-Pad1)*%
X142605000Y-83470000D03*
%TO.P,J1,2,Pin_2*%
%TO.N,/Net-(J1-Pad10)*%
X140605000Y-83470000D03*
%TO.P,J1,3,Pin_3*%
%TO.N,Net-(C1-Pad2)*%
X142605000Y-81470000D03*
%TO.P,J1,4,Pin_4*%
%TO.N,Net-(J1-Pad4)*%
X140605000Y-81470000D03*
%TO.P,J1,5,Pin_5*%
%TO.N,Net-(J1-Pad5)*%
X142605000Y-79470000D03*
%TO.P,J1,6,Pin_6*%
%TO.N,Net-(J1-Pad6)*%
X140605000Y-79470000D03*
%TO.P,J1,7,Pin_7*%
%TO.N,Net-(J1-Pad7)*%
X142605000Y-77470000D03*
%TO.P,J1,8,Pin_8*%
%TO.N,Net-(J1-Pad8)*%
X140605000Y-77470000D03*
%TO.P,J1,9,Pin_9*%
%TO.N,unconnected-(J1-Pad9)*%
X142605000Y-75470000D03*
%TO.P,J1,10,Pin_10*%
%TO.N,/Net-(J1-Pad10)*%
X140605000Y-75470000D03*
%TO.P,J1,11,Pin_11*%
%TO.N,Net-(C1-Pad2)*%
X142605000Y-73470000D03*
%TO.P,J1,12,Pin_12*%
X140605000Y-73470000D03*
%TO.P,J1,13,Pin_13*%
%TO.N,unconnected-(J1-Pad13)*%
X142605000Y-71470000D03*
%TD*%
D11*
%TO.N,Net-(C1-Pad2)*%
X142240000Y-59182000D03*
X142240000Y-62738000D03*
%TO.N,Net-(J1-Pad8)*%
X140335000Y-61722000D03*
%TO.N,Net-(J1-Pad6)*%
X140335000Y-60452000D03*
%TO.N,Net-(J1-Pad4)*%
X140335000Y-59182000D03*
%TO.N,Net-(J1-Pad7)*%
X143764000Y-61722000D03*
%TO.N,Net-(J1-Pad5)*%
X144526000Y-60452000D03*
%TO.N,Net-(C1-Pad2)*%
X145923000Y-71501000D03*
X145923000Y-79375000D03*
X145923000Y-83566000D03*
X140589000Y-71501000D03*
X138430000Y-83566000D03*
X145923000Y-75438000D03*
%TD*%
D12*
%TO.N,Net-(J1-Pad4)*%
X140605000Y-81470000D02*
X138556440Y-79421440D01*
X138556440Y-79421440D02*
X138556440Y-60960560D01*
X138556440Y-60960560D02*
X140335000Y-59182000D01*
%TO.N,Net-(J1-Pad6)*%
X140605000Y-79470000D02*
X139005960Y-77870960D01*
X139005960Y-77870960D02*
X139005960Y-61781040D01*
X139005960Y-61781040D02*
X140335000Y-60452000D01*
%TO.N,Net-(J1-Pad8)*%
X140605000Y-77470000D02*
X139455480Y-76320480D01*
X139455480Y-76320480D02*
X139455480Y-62601520D01*
X139455480Y-62601520D02*
X140335000Y-61722000D01*
%TO.N,Net-(J1-Pad5)*%
X142605000Y-79470000D02*
X144526000Y-77549000D01*
X144526000Y-77549000D02*
X144526000Y-60833000D01*
%TO.N,Net-(J1-Pad7)*%
X143754520Y-76320480D02*
X143754520Y-62112480D01*
X142605000Y-77470000D02*
X143754520Y-76320480D01*
%TD*%
%TA.AperFunction,Conductor*%
%TO.N,Net-(C1-Pad2)*%
G36*
X139502455Y-58567002D02*
G01*
X139548948Y-58620658D01*
X139559052Y-58690932D01*
X139543453Y-58736000D01*
X139500473Y-58810444D01*
X139441458Y-58992072D01*
X139440768Y-58998633D01*
X139440768Y-58998635D01*
X139424093Y-59157293D01*
X139397080Y-59222950D01*
X139387878Y-59233218D01*
X138719784Y-59901311D01*
X138164187Y-60456908D01*
X138155901Y-60464448D01*
X138149422Y-60468560D01*
X138143997Y-60474337D01*
X138102797Y-60518211D01*
X138100042Y-60521053D01*
X138080305Y-60540790D01*
X138077825Y-60543987D01*
X138070122Y-60553007D01*
X138039854Y-60585239D01*
X138036035Y-60592185D01*
X138036033Y-60592188D01*
X138030092Y-60602994D01*
X138019241Y-60619513D01*
X138006826Y-60635519D01*
X138003681Y-60642788D01*
X138003678Y-60642792D01*
X137989266Y-60676097D01*
X137984049Y-60686747D01*
X137962745Y-60725500D01*
X137960774Y-60733175D01*
X137960774Y-60733176D01*
X137957707Y-60745122D01*
X137951303Y-60763826D01*
X137943259Y-60782415D01*
X137942020Y-60790238D01*
X137942017Y-60790248D01*
X137936341Y-60826084D01*
X137933935Y-60837704D01*
X137922940Y-60880530D01*
X137922940Y-60900784D01*
X137921389Y-60920495D01*
X137918449Y-60939057D01*
X137917190Y-60941712D01*
X137919441Y-60953420D01*
X137922381Y-60984521D01*
X137922940Y-60996379D01*
X137922940Y-79342673D01*
X137922413Y-79353856D01*
X137920738Y-79361349D01*
X137920987Y-79369275D01*
X137920987Y-79369276D01*
X137922878Y-79429426D01*
X137922940Y-79433385D01*
X137922940Y-79461296D01*
X137923437Y-79465230D01*
X137923437Y-79465231D01*
X137923445Y-79465296D01*
X137924378Y-79477133D01*
X137925767Y-79521329D01*
X137928384Y-79530336D01*
X137931418Y-79540779D01*
X137935427Y-79560140D01*
X137937966Y-79580237D01*
X137940885Y-79587608D01*
X137940885Y-79587610D01*
X137954244Y-79621352D01*
X137958089Y-79632582D01*
X137970422Y-79675033D01*
X137974455Y-79681852D01*
X137974457Y-79681857D01*
X137980733Y-79692468D01*
X137989428Y-79710216D01*
X137996888Y-79729057D01*
X138001550Y-79735473D01*
X138001550Y-79735474D01*
X138022876Y-79764827D01*
X138029392Y-79774747D01*
X138051898Y-79812802D01*
X138066219Y-79827123D01*
X138079059Y-79842156D01*
X138090968Y-79858547D01*
X138097074Y-79863598D01*
X138125045Y-79886738D01*
X138133824Y-79894728D01*
X139280251Y-81041155D01*
X139314277Y-81103467D01*
X139310184Y-81171581D01*
X139300108Y-81200599D01*
X139300107Y-81200605D01*
X139298139Y-81206271D01*
X139267787Y-81415604D01*
X139277567Y-81626899D01*
X139327125Y-81832534D01*
X139329607Y-81837992D01*
X139329608Y-81837996D01*
X139373053Y-81933546D01*
X139414674Y-82025087D01*
X139537054Y-82197611D01*
X139689850Y-82343881D01*
X139694888Y-82347134D01*
X139722163Y-82364746D01*
X139768540Y-82418501D01*
X139778493Y-82488797D01*
X139748861Y-82553314D01*
X139731649Y-82569681D01*
X139612080Y-82663604D01*
X139608148Y-82668135D01*
X139608145Y-82668138D01*
X139539474Y-82747275D01*
X139473448Y-82823363D01*
X139470448Y-82828549D01*
X139470445Y-82828553D01*
X139423312Y-82910026D01*
X139367527Y-83006454D01*
X139298139Y-83206271D01*
X139267787Y-83415604D01*
X139277567Y-83626899D01*
X139327125Y-83832534D01*
X139329607Y-83837992D01*
X139329608Y-83837996D01*
X139373053Y-83933546D01*
X139414674Y-84025087D01*
X139537054Y-84197611D01*
X139689850Y-84343881D01*
X139867548Y-84458620D01*
X139873114Y-84460863D01*
X140058168Y-84535442D01*
X140058171Y-84535443D01*
X140063737Y-84537686D01*
X140271337Y-84578228D01*
X140276899Y-84578500D01*
X140882846Y-84578500D01*
X141040566Y-84563452D01*
X141243534Y-84503908D01*
X141327111Y-84460863D01*
X141426249Y-84409804D01*
X141426252Y-84409802D01*
X141431580Y-84407058D01*
X141523711Y-84334688D01*
X141589636Y-84308338D01*
X141659343Y-84321813D01*
X141680243Y-84336737D01*
X141680811Y-84336017D01*
X141685520Y-84339736D01*
X141689850Y-84343881D01*
X141867548Y-84458620D01*
X141873114Y-84460863D01*
X142058168Y-84535442D01*
X142058171Y-84535443D01*
X142063737Y-84537686D01*
X142271337Y-84578228D01*
X142276899Y-84578500D01*
X142882846Y-84578500D01*
X143040566Y-84563452D01*
X143243534Y-84503908D01*
X143327111Y-84460863D01*
X143426249Y-84409804D01*
X143426252Y-84409802D01*
X143431580Y-84407058D01*
X143597920Y-84276396D01*
X143601852Y-84271865D01*
X143601855Y-84271862D01*
X143732621Y-84121167D01*
X143736552Y-84116637D01*
X143739552Y-84111451D01*
X143739555Y-84111447D01*
X143839467Y-83938742D01*
X143842473Y-83933546D01*
X143911861Y-83733729D01*
X143942213Y-83524396D01*
X143932433Y-83313101D01*
X143882875Y-83107466D01*
X143839525Y-83012122D01*
X143797806Y-82920368D01*
X143795326Y-82914913D01*
X143672946Y-82742389D01*
X143520150Y-82596119D01*
X143342452Y-82481380D01*
X143267573Y-82451203D01*
X143151832Y-82404558D01*
X143151829Y-82404557D01*
X143146263Y-82402314D01*
X142938663Y-82361772D01*
X142933101Y-82361500D01*
X142327154Y-82361500D01*
X142169434Y-82376548D01*
X141966466Y-82436092D01*
X141961139Y-82438836D01*
X141961138Y-82438836D01*
X141783751Y-82530196D01*
X141783748Y-82530198D01*
X141778420Y-82532942D01*
X141687981Y-82603983D01*
X141686289Y-82605312D01*
X141620364Y-82631662D01*
X141550657Y-82618187D01*
X141529757Y-82603263D01*
X141529189Y-82603983D01*
X141524480Y-82600264D01*
X141520150Y-82596119D01*
X141514255Y-82592312D01*
X141487837Y-82575254D01*
X141441460Y-82521499D01*
X141431507Y-82451203D01*
X141461139Y-82386686D01*
X141478353Y-82370317D01*
X141485446Y-82364746D01*
X141597920Y-82276396D01*
X141601852Y-82271865D01*
X141601855Y-82271862D01*
X141732621Y-82121167D01*
X141736552Y-82116637D01*
X141739552Y-82111451D01*
X141739555Y-82111447D01*
X141839467Y-81938742D01*
X141842473Y-81933546D01*
X141911861Y-81733729D01*
X141942213Y-81524396D01*
X141932433Y-81313101D01*
X141882875Y-81107466D01*
X141878113Y-81096991D01*
X141797806Y-80920368D01*
X141795326Y-80914913D01*
X141672946Y-80742389D01*
X141520150Y-80596119D01*
X141514255Y-80592312D01*
X141487837Y-80575254D01*
X141441460Y-80521499D01*
X141431507Y-80451203D01*
X141461139Y-80386686D01*
X141478353Y-80370317D01*
X141521103Y-80336737D01*
X141523711Y-80334688D01*
X141589637Y-80308338D01*
X141659343Y-80321813D01*
X141680243Y-80336737D01*
X141680811Y-80336017D01*
X141685520Y-80339736D01*
X141689850Y-80343881D01*
X141867548Y-80458620D01*
X141873114Y-80460863D01*
X142058168Y-80535442D01*
X142058171Y-80535443D01*
X142063737Y-80537686D01*
X142271337Y-80578228D01*
X142276899Y-80578500D01*
X142882846Y-80578500D01*
X143040566Y-80563452D01*
X143243534Y-80503908D01*
X143327111Y-80460863D01*
X143426249Y-80409804D01*
X143426252Y-80409802D01*
X143431580Y-80407058D01*
X143597920Y-80276396D01*
X143601852Y-80271865D01*
X143601855Y-80271862D01*
X143732621Y-80121167D01*
X143736552Y-80116637D01*
X143739552Y-80111451D01*
X143739555Y-80111447D01*
X143839467Y-79938742D01*
X143842473Y-79933546D01*
X143911861Y-79733729D01*
X143928155Y-79621352D01*
X143941352Y-79530336D01*
X143941352Y-79530333D01*
X143942213Y-79524396D01*
X143932433Y-79313101D01*
X143919519Y-79259514D01*
X143895650Y-79160471D01*
X143899135Y-79089560D01*
X143929048Y-79041856D01*
X144918247Y-78052657D01*
X144926537Y-78045113D01*
X144933018Y-78041000D01*
X144979659Y-77991332D01*
X144982413Y-77988491D01*
X145002134Y-77968770D01*
X145004612Y-77965575D01*
X145012318Y-77956553D01*
X145037158Y-77930101D01*
X145042586Y-77924321D01*
X145052346Y-77906568D01*
X145063199Y-77890045D01*
X145070753Y-77880306D01*
X145075613Y-77874041D01*
X145093176Y-77833457D01*
X145098383Y-77822827D01*
X145119695Y-77784060D01*
X145121666Y-77776383D01*
X145121668Y-77776378D01*
X145124732Y-77764442D01*
X145131138Y-77745730D01*
X145136033Y-77734419D01*
X145139181Y-77727145D01*
X145140421Y-77719317D01*
X145140423Y-77719310D01*
X145146099Y-77683476D01*
X145148505Y-77671856D01*
X145157528Y-77636711D01*
X145157528Y-77636710D01*
X145159500Y-77629030D01*
X145159500Y-77608776D01*
X145161051Y-77589065D01*
X145162980Y-77576886D01*
X145164220Y-77569057D01*
X145160059Y-77525038D01*
X145159500Y-77513181D01*
X145159500Y-61154524D01*
X145179502Y-61086403D01*
X145191858Y-61070221D01*
X145265040Y-60988944D01*
X145343409Y-60853206D01*
X145357223Y-60829279D01*
X145357224Y-60829278D01*
X145360527Y-60823556D01*
X145419542Y-60641928D01*
X145422722Y-60611677D01*
X145438814Y-60458565D01*
X145439504Y-60452000D01*
X145419542Y-60262072D01*
X145360527Y-60080444D01*
X145265040Y-59915056D01*
X145137253Y-59773134D01*
X144982752Y-59660882D01*
X144976724Y-59658198D01*
X144976722Y-59658197D01*
X144814319Y-59585891D01*
X144814318Y-59585891D01*
X144808288Y-59583206D01*
X144695721Y-59559279D01*
X144627944Y-59544872D01*
X144627939Y-59544872D01*
X144621487Y-59543500D01*
X144430513Y-59543500D01*
X144424061Y-59544872D01*
X144424056Y-59544872D01*
X144356279Y-59559279D01*
X144243712Y-59583206D01*
X144237682Y-59585891D01*
X144237681Y-59585891D01*
X144075278Y-59658197D01*
X144075276Y-59658198D01*
X144069248Y-59660882D01*
X143914747Y-59773134D01*
X143786960Y-59915056D01*
X143691473Y-60080444D01*
X143632458Y-60262072D01*
X143612496Y-60452000D01*
X143613186Y-60458565D01*
X143629279Y-60611677D01*
X143632458Y-60641928D01*
X143643690Y-60676496D01*
X143645718Y-60747462D01*
X143609056Y-60808260D01*
X143550055Y-60838678D01*
X143488176Y-60851831D01*
X143488167Y-60851834D01*
X143481712Y-60853206D01*
X143475682Y-60855891D01*
X143475681Y-60855891D01*
X143313278Y-60928197D01*
X143313276Y-60928198D01*
X143307248Y-60930882D01*
X143152747Y-61043134D01*
X143024960Y-61185056D01*
X142929473Y-61350444D01*
X142870458Y-61532072D01*
X142850496Y-61722000D01*
X142870458Y-61911928D01*
X142929473Y-62093556D01*
X143024960Y-62258944D01*
X143088658Y-62329688D01*
X143119374Y-62393693D01*
X143121020Y-62413996D01*
X143121020Y-70244398D01*
X143101018Y-70312519D01*
X143047362Y-70359012D01*
X142970871Y-70368062D01*
X142938663Y-70361772D01*
X142933101Y-70361500D01*
X142327154Y-70361500D01*
X142169434Y-70376548D01*
X141966466Y-70436092D01*
X141961139Y-70438836D01*
X141961138Y-70438836D01*
X141783751Y-70530196D01*
X141783748Y-70530198D01*
X141778420Y-70532942D01*
X141612080Y-70663604D01*
X141608148Y-70668135D01*
X141608145Y-70668138D01*
X141489554Y-70804802D01*
X141473448Y-70823363D01*
X141470448Y-70828549D01*
X141470445Y-70828553D01*
X141376661Y-70990665D01*
X141367527Y-71006454D01*
X141298139Y-71206271D01*
X141267787Y-71415604D01*
X141277567Y-71626899D01*
X141327125Y-71832534D01*
X141414674Y-72025087D01*
X141537054Y-72197611D01*
X141689850Y-72343881D01*
X141867548Y-72458620D01*
X141873114Y-72460863D01*
X142058168Y-72535442D01*
X142058171Y-72535443D01*
X142063737Y-72537686D01*
X142271337Y-72578228D01*
X142276899Y-72578500D01*
X142882846Y-72578500D01*
X142983053Y-72568939D01*
X143052765Y-72582380D01*
X143104144Y-72631377D01*
X143121020Y-72694369D01*
X143121020Y-74244398D01*
X143101018Y-74312519D01*
X143047362Y-74359012D01*
X142970871Y-74368062D01*
X142938663Y-74361772D01*
X142933101Y-74361500D01*
X142327154Y-74361500D01*
X142169434Y-74376548D01*
X141966466Y-74436092D01*
X141961139Y-74438836D01*
X141961138Y-74438836D01*
X141783751Y-74530196D01*
X141783748Y-74530198D01*
X141778420Y-74532942D01*
X141687981Y-74603983D01*
X141686289Y-74605312D01*
X141620364Y-74631662D01*
X141550657Y-74618187D01*
X141529757Y-74603263D01*
X141529189Y-74603983D01*
X141524480Y-74600264D01*
X141520150Y-74596119D01*
X141342452Y-74481380D01*
X141282354Y-74457160D01*
X141151832Y-74404558D01*
X141151829Y-74404557D01*
X141146263Y-74402314D01*
X140938663Y-74361772D01*
X140933101Y-74361500D01*
X140327154Y-74361500D01*
X140226947Y-74371061D01*
X140157235Y-74357620D01*
X140105856Y-74308623D01*
X140088980Y-74245631D01*
X140088980Y-62916114D01*
X140108982Y-62847993D01*
X140125885Y-62827019D01*
X140285499Y-62667405D01*
X140347811Y-62633379D01*
X140374594Y-62630500D01*
X140430487Y-62630500D01*
X140436939Y-62629128D01*
X140436944Y-62629128D01*
X140523887Y-62610647D01*
X140617288Y-62590794D01*
X140623319Y-62588109D01*
X140785722Y-62515803D01*
X140785724Y-62515802D01*
X140791752Y-62513118D01*
X140946253Y-62400866D01*
X141074040Y-62258944D01*
X141169527Y-62093556D01*
X141228542Y-61911928D01*
X141248504Y-61722000D01*
X141228542Y-61532072D01*
X141169527Y-61350444D01*
X141074040Y-61185056D01*
X141061662Y-61171309D01*
X141030946Y-61107303D01*
X141039710Y-61036850D01*
X141061661Y-61002693D01*
X141074040Y-60988944D01*
X141152409Y-60853206D01*
X141166223Y-60829279D01*
X141166224Y-60829278D01*
X141169527Y-60823556D01*
X141228542Y-60641928D01*
X141231722Y-60611677D01*
X141247814Y-60458565D01*
X141248504Y-60452000D01*
X141228542Y-60262072D01*
X141169527Y-60080444D01*
X141074040Y-59915056D01*
X141061662Y-59901309D01*
X141030946Y-59837303D01*
X141039710Y-59766850D01*
X141061661Y-59732693D01*
X141074040Y-59718944D01*
X141169527Y-59553556D01*
X141228542Y-59371928D01*
X141248504Y-59182000D01*
X141228542Y-58992072D01*
X141169527Y-58810444D01*
X141126547Y-58736000D01*
X141109809Y-58667004D01*
X141133030Y-58599913D01*
X141188837Y-58556026D01*
X141235666Y-58547000D01*
X146686000Y-58547000D01*
X146754121Y-58567002D01*
X146800614Y-58620658D01*
X146812000Y-58673000D01*
X146812000Y-85091000D01*
X146791998Y-85159121D01*
X146738342Y-85205614D01*
X146686000Y-85217000D01*
X137794000Y-85217000D01*
X137725879Y-85196998D01*
X137679386Y-85143342D01*
X137668000Y-85091000D01*
X137668000Y-60965278D01*
X137673659Y-60946005D01*
X137669039Y-60935494D01*
X137668000Y-60919346D01*
X137668000Y-58673000D01*
X137688002Y-58604879D01*
X137741658Y-58558386D01*
X137794000Y-58547000D01*
X139434334Y-58547000D01*
X139502455Y-58567002D01*
G37*
%TD.AperFunction*%
%TD*%
M02*
